<?xml version="1.0" encoding="UTF-8" standalone="no"?>
<svg
   xmlns:dc="http://purl.org/dc/elements/1.1/"
   xmlns:cc="http://creativecommons.org/ns#"
   xmlns:rdf="http://www.w3.org/1999/02/22-rdf-syntax-ns#"
   xmlns:svg="http://www.w3.org/2000/svg"
   xmlns="http://www.w3.org/2000/svg"
   xmlns:sodipodi="http://sodipodi.sourceforge.net/DTD/sodipodi-0.dtd"
   xmlns:inkscape="http://www.inkscape.org/namespaces/inkscape"
   inkscape:version="1.0 (4035a4f, 2020-05-01)"
   sodipodi:docname="construction.svg"
   id="svg945"
   xml:space="preserve"
   style="enable-background:new 0 0 512 512;"
   viewBox="0 0 512 512"
   y="0px"
   x="0px"
   version="1.1"
   fill="#000000"
   width="300px"
   height="300px"><metadata
     id="metadata951"><rdf:RDF><cc:Work
         rdf:about=""><dc:format>image/svg+xml</dc:format><dc:type
           rdf:resource="http://purl.org/dc/dcmitype/StillImage" /></cc:Work></rdf:RDF></metadata><defs
     id="defs949" /><sodipodi:namedview
     inkscape:current-layer="svg945"
     inkscape:window-maximized="0"
     inkscape:window-y="23"
     inkscape:window-x="0"
     inkscape:cy="150"
     inkscape:cx="150"
     inkscape:zoom="2.3733333"
     showgrid="false"
     id="namedview947"
     inkscape:window-height="867"
     inkscape:window-width="1537"
     inkscape:pageshadow="2"
     inkscape:pageopacity="0"
     guidetolerance="10"
     gridtolerance="10"
     objecttolerance="10"
     borderopacity="1"
     bordercolor="#666666"
     pagecolor="#ffffff" /><g
     id="g943"><g
       id="g941"><g
         id="g915"><path
           id="path913"
           d="M406.637,469.075c-2.56,0-5.118-0.977-7.071-2.929L196.002,262.584c-1.875-1.875-2.929-4.419-2.929-7.07     c0-2.652,1.054-5.196,2.929-7.071L253,191.445c3.906-3.905,10.238-3.904,14.143,0l203.563,203.562     c3.905,3.905,3.905,10.237,0,14.143l-56.997,56.997C411.755,468.099,409.196,469.075,406.637,469.075z M217.215,255.514     l189.421,189.419l42.854-42.854l-189.42-189.42L217.215,255.514z" /></g><g
         id="g919"><path
           id="path917"
           d="M121.648,184.088c-2.559,0-5.118-0.976-7.071-2.929l-32.57-32.57c-1.875-1.875-2.929-4.419-2.929-7.071     s1.054-5.196,2.929-7.071l56.998-56.998c1.875-1.875,4.419-2.929,7.071-2.929s5.196,1.054,7.071,2.929l32.57,32.57     c3.905,3.905,3.905,10.237,0,14.142L128.72,181.16C126.767,183.112,124.208,184.088,121.648,184.088z M103.22,141.519     l18.428,18.428l42.855-42.855l-18.428-18.428L103.22,141.519z" /></g><g
         id="g923"><path
           id="path921"
           d="M129.791,338.796c-2.652,0-5.196-1.054-7.071-2.929l-81.425-81.425c-3.905-3.905-3.905-10.237,0-14.143L212.288,69.308     c1.23-1.23,2.761-2.119,4.439-2.576l89.569-24.428c3.461-0.945,7.165,0.039,9.702,2.576l48.854,48.855     c3.905,3.905,3.905,10.237,0,14.143l-227.991,227.99C134.986,337.742,132.443,338.796,129.791,338.796z M62.508,247.371     l67.283,67.282l213.848-213.847l-37.68-37.68l-81.407,22.202L62.508,247.371z" /></g><g
         id="g927"><path
           id="path925"
           d="M144.285,440.049c-16.542,0-30-13.458-30-30s13.458-30,30-30s30,13.458,30,30S160.827,440.049,144.285,440.049z      M144.285,400.049c-5.514,0-10,4.486-10,10s4.486,10,10,10s10-4.486,10-10S149.799,400.049,144.285,400.049z" /></g><g
         id="g931"><path
           id="path929"
           d="M424.286,220.049c-22.056,0-40-17.944-40-40s17.944-40,40-40s40,17.944,40,40S446.342,220.049,424.286,220.049z      M424.286,160.049c-11.028,0-20,8.972-20,20s8.972,20,20,20s20-8.972,20-20S435.314,160.049,424.286,160.049z" /></g><g
         id="g935"><path
           id="path933"
           d="M364.286,430.049H224.285c-5.523,0-10-4.478-10-10s4.477-10,10-10h140.001c5.522,0,10,4.478,10,10     S369.809,430.049,364.286,430.049z" /></g><g
         id="g939"><path
           id="path937"
           d="M324.286,470.049h-60c-5.523,0-10-4.478-10-10s4.477-10,10-10h60c5.522,0,10,4.478,10,10     S329.809,470.049,324.286,470.049z" /></g></g></g><path
     transform="scale(1.7066667)"
     id="path953"
     d="M 56.565388,164.43057 37.079634,144.94144 84.586167,97.500413 132.0927,50.05939 l 23.57017,-6.409356 23.57018,-6.409355 10.87481,10.87481 10.87481,10.87481 -62.46576,62.464701 -62.465769,62.46471 z"
     style="fill:#666666;fill-opacity:1;stroke:#7e7e7b;stroke-width:8.42697;stroke-linejoin:round;stroke-opacity:0" /><path
     transform="scale(1.7066667)"
     id="path955"
     d="m 182.96785,204.87796 -55.30139,-55.30259 12.32709,-12.32178 12.3271,-12.32178 55.30139,55.30259 55.30139,55.30259 -12.3271,12.32178 -12.32709,12.32178 z"
     style="fill:#803300;fill-opacity:1;stroke:#7e7e7b;stroke-width:8.42697;stroke-linejoin:round;stroke-opacity:0" /><path
     transform="scale(1.7066667)"
     id="path957"
     d="M 66.150819,88.060929 60.892061,82.789515 73.212302,70.469274 85.532543,58.149033 90.800286,63.416776 96.068029,68.684519 83.738803,81.008432 71.409577,93.332344 Z"
     style="fill:#803300;fill-opacity:1;stroke:#7e7e7b;stroke-width:8.42697;stroke-linejoin:round;stroke-opacity:0" /><path
     transform="scale(1.7066667)"
     id="path959"
     d="m 81.869804,245.03259 c -2.646176,-1.61348 -3.630753,-4.41385 -2.436614,-6.93032 1.009266,-2.12686 2.852579,-3.34103 5.072257,-3.34103 4.280822,0 6.908995,4.36137 4.893177,8.12008 -1.464545,2.7308 -4.946588,3.72575 -7.52882,2.15127 z"
     style="fill:#4d4d4d;fill-opacity:1;stroke:#7e7e7b;stroke-width:8.42697;stroke-linejoin:round;stroke-opacity:0" /><path
     transform="scale(1.7066667)"
     id="path961"
     d="m 243.61364,115.64326 c -4.49726,-2.26845 -6.73879,-6.3258 -6.28141,-11.36987 0.82271,-9.072942 11.68316,-13.349837 18.75047,-7.384018 4.80839,4.058968 5.19055,11.845748 0.8025,16.351668 -2.3309,2.39352 -4.53199,3.39751 -7.86835,3.589 -2.41504,0.13861 -3.05369,-0.002 -5.40321,-1.18678 z"
     style="fill:#4d4d4d;fill-opacity:1;stroke:#7e7e7b;stroke-width:8.42697;stroke-linejoin:round;stroke-opacity:0" /></svg>
