<?xml version="1.0" encoding="UTF-8" standalone="no"?>
<svg
   xmlns:dc="http://purl.org/dc/elements/1.1/"
   xmlns:cc="http://creativecommons.org/ns#"
   xmlns:rdf="http://www.w3.org/1999/02/22-rdf-syntax-ns#"
   xmlns:svg="http://www.w3.org/2000/svg"
   xmlns="http://www.w3.org/2000/svg"
   xmlns:sodipodi="http://sodipodi.sourceforge.net/DTD/sodipodi-0.dtd"
   xmlns:inkscape="http://www.inkscape.org/namespaces/inkscape"
   inkscape:version="1.0 (4035a4f, 2020-05-01)"
   sodipodi:docname="diamond.svg"
   xml:space="preserve"
   style="enable-background:new 0 0 512.007 512.007;"
   viewBox="0 0 512.007 512.007"
   y="0px"
   x="0px"
   id="Capa_1"
   version="1.1"><metadata
   id="metadata1132"><rdf:RDF><cc:Work
       rdf:about=""><dc:format>image/svg+xml</dc:format><dc:type
         rdf:resource="http://purl.org/dc/dcmitype/StillImage" /></cc:Work></rdf:RDF></metadata><defs
   id="defs1130" /><sodipodi:namedview
   inkscape:current-layer="Capa_1"
   inkscape:window-maximized="0"
   inkscape:window-y="23"
   inkscape:window-x="0"
   inkscape:cy="256.00351"
   inkscape:cx="256.00351"
   inkscape:zoom="1.3066227"
   showgrid="false"
   id="namedview1128"
   inkscape:window-height="839"
   inkscape:window-width="1335"
   inkscape:pageshadow="2"
   inkscape:pageopacity="0"
   guidetolerance="10"
   gridtolerance="10"
   objecttolerance="10"
   borderopacity="1"
   bordercolor="#666666"
   pagecolor="#ffffff" />
<g
   id="g1065">
	<g
   id="g1063">
		<path
   id="path1061"
   d="M510.025,139.609l-85.333-102.4c-1.621-1.937-4.019-3.063-6.554-3.063H93.871c-2.534,0-4.932,1.118-6.554,3.063    l-85.333,102.4c-2.125,2.543-2.586,6.084-1.178,9.079c1.408,2.995,4.42,4.915,7.731,4.915h494.933c3.311,0,6.323-1.92,7.731-4.915    C512.602,145.702,512.15,142.16,510.025,139.609z M26.757,136.537l71.108-85.333h316.271l71.108,85.333H26.757z" />
	</g>
</g>
<g
   id="g1071">
	<g
   id="g1069">
		<path
   id="path1067"
   d="M263.898,39.402c-1.323-3.191-4.437-5.265-7.885-5.265H93.88c-3.055,0-5.871,1.63-7.398,4.284s-1.519,5.905,0.026,8.55    l59.733,102.4c1.331,2.278,3.644,3.823,6.272,4.164c0.367,0.043,0.734,0.068,1.092,0.068c2.253,0,4.429-0.887,6.042-2.5    l102.4-102.4C264.487,46.263,265.221,42.593,263.898,39.402z M155.397,131.212l-46.669-80.008h126.677L155.397,131.212z" />
	</g>
</g>
<g
   id="g1077">
	<g
   id="g1075">
		<path
   id="path1073"
   d="M511.109,141.281c-1.434-2.91-4.403-4.753-7.646-4.753H8.53c-3.243,0-6.204,1.843-7.646,4.753    c-1.434,2.91-1.101,6.383,0.87,8.96l247.467,324.267c1.613,2.116,4.122,3.362,6.784,3.362s5.171-1.246,6.767-3.362    l247.467-324.267C512.21,147.664,512.542,144.191,511.109,141.281z M256.005,455.274L25.784,153.604h460.442L256.005,455.274z" />
	</g>
</g>
<g
   id="g1083">
	<g
   id="g1081">
		<path
   id="path1079"
   d="M264.146,466.76l-102.4-324.267c-1.126-3.55-4.412-5.965-8.141-5.965H8.538c-3.243,0-6.204,1.843-7.646,4.753    c-1.434,2.91-1.101,6.383,0.87,8.96l247.467,324.267c1.655,2.176,4.19,3.362,6.784,3.362c1.331,0,2.679-0.307,3.925-0.973    C263.617,474.995,265.391,470.711,264.146,466.76z M25.784,153.604H147.35l85.811,271.736L25.784,153.604z" />
	</g>
</g>
<g
   id="g1089">
	<g
   id="g1087">
		<path
   id="path1085"
   d="M425.537,38.421c-1.519-2.654-4.343-4.284-7.398-4.284H256.005c-3.447,0-6.562,2.074-7.885,5.265    c-1.323,3.191-0.589,6.861,1.852,9.301l102.4,102.4c1.604,1.613,3.78,2.5,6.033,2.5c0.367,0,0.734-0.026,1.101-0.068    c2.62-0.341,4.941-1.877,6.272-4.164l59.733-102.4C427.047,44.326,427.056,41.075,425.537,38.421z M356.613,131.212    l-80.009-80.008h126.677L356.613,131.212z" />
	</g>
</g>
<g
   id="g1095">
	<g
   id="g1093">
		<path
   id="path1091"
   d="M511.126,141.299c-1.434-2.91-4.403-4.753-7.646-4.753H358.413c-3.729,0-7.023,2.415-8.141,5.965l-102.4,324.267    c-1.246,3.942,0.529,8.226,4.207,10.138c1.246,0.648,2.594,0.956,3.925,0.956c2.586,0,5.12-1.186,6.784-3.345l247.467-324.267    C512.227,147.681,512.559,144.208,511.126,141.299z M278.849,425.339l85.811-271.736h121.566L278.849,425.339z" />
	</g>
</g>
<g
   id="g1097">
</g>
<g
   id="g1099">
</g>
<g
   id="g1101">
</g>
<g
   id="g1103">
</g>
<g
   id="g1105">
</g>
<g
   id="g1107">
</g>
<g
   id="g1109">
</g>
<g
   id="g1111">
</g>
<g
   id="g1113">
</g>
<g
   id="g1115">
</g>
<g
   id="g1117">
</g>
<g
   id="g1119">
</g>
<g
   id="g1121">
</g>
<g
   id="g1123">
</g>
<g
   id="g1125">
</g>
<path
   id="path1134"
   d="m 210.78752,296.37477 -44.76899,-141.77773 44.99249,-0.1974 c 24.74587,-0.10858 65.23911,-0.10858 89.98498,0 l 44.99249,0.1974 -44.76899,141.77773 c -24.62295,77.97775 -44.97014,141.77772 -45.21599,141.77772 -0.24585,0 -20.59305,-63.79997 -45.21599,-141.77772 z"
   style="fill:#c8b7b7;stroke-width:0.765332" /><path
   id="path1136"
   d="m 215.63316,95.476057 40.37035,-40.370349 40.37035,40.370349 40.37035,40.370353 h -80.7407 -80.7407 z"
   style="fill:#c8b7b7;stroke-width:0.765332" /><path
   id="path1138"
   d="M 129.31925,288.36568 C 73.843891,215.63479 28.123514,155.6972 27.718411,155.17104 c -0.587801,-0.76347 11.390853,-0.95667 59.3135,-0.95667 h 60.050049 l 41.94039,132.80506 c 23.06721,73.04277 41.76506,132.98036 41.55078,133.19464 -0.21428,0.21428 -45.77852,-59.1175 -101.25388,-131.84839 z"
   style="fill:#e3dbdb;stroke-width:0.765332" /><path
   id="path1140"
   d="M 60.178089,97.150145 C 77.91918,75.867201 92.675976,58.733334 92.970969,59.074884 c 0.807068,0.934443 44.406101,75.925126 44.406101,76.378846 0,0.21597 -24.62749,0.39268 -54.727755,0.39268 H 27.92156 Z"
   style="fill:#e3dbdb;stroke-width:0.765332" /><path
   id="path1142"
   d="m 132.5834,91.212804 -22.77897,-39.170237 31.00629,-0.199918 c 17.05345,-0.109955 44.95584,-0.109955 62.0053,0 l 30.99903,0.199918 -39.22635,39.170237 -39.22633,39.170236 z"
   style="fill:#e3dbdb;stroke-width:0.765332" /><path
   id="path1144"
   d="m 281.24,420.13986 c -0.0107,-0.4059 18.81406,-60.40518 41.8328,-133.33174 l 41.85226,-132.59375 h 60.04717 60.04718 l -2.16376,2.87 c -12.71758,16.86852 -199.72947,261.83941 -200.52562,262.67283 -0.58881,0.61636 -1.07932,0.78856 -1.09003,0.38266 z"
   style="fill:#ac9393;stroke-width:0.765332" /><path
   id="path1146"
   d="m 374.62995,135.45373 c 0,-0.45372 43.59903,-75.444403 44.4061,-76.378846 0.29499,-0.34155 15.05179,16.792317 32.79288,38.075261 l 32.25653,38.696265 H 429.3577 c -30.10026,0 -54.72775,-0.17671 -54.72775,-0.39268 z"
   style="fill:#ac9393;stroke-width:0.765332" /><path
   id="path1148"
   d="m 317.21234,91.05677 -39.3913,-39.396869 h 62.18043 c 34.19923,0 62.18043,0.126054 62.18043,0.280121 0,0.154066 -9.92324,17.287934 -22.05166,38.07526 -12.1284,20.787328 -22.38351,38.389868 -22.78912,39.116748 -0.62053,1.11202 -6.98424,-4.92603 -40.12878,-38.07526 z"
   style="fill:#ac9393;stroke-width:0.765332" /><path
   id="path1150"
   d="m 254.09018,477.29122 c -0.84187,-0.2692 -2.06881,-0.83387 -2.72654,-1.2548 C 250.70591,475.61549 194.05549,401.74183 125.47383,311.87274 13.673938,165.37067 0.75377184,148.15783 0.52719143,145.41305 0.27703184,142.38265 0.71557581,141.82219 43.944078,89.926494 67.962358,61.092616 88.392364,36.896194 89.344084,36.156666 90.98243,34.883607 99.849106,34.812071 256.00351,34.812071 c 156.1544,0 165.02108,0.07154 166.65942,1.344595 0.95173,0.739528 21.38173,24.93595 45.40001,53.769828 43.20603,51.868716 43.66696,52.457726 43.42097,55.486556 -0.22312,2.74711 -13.05274,19.84528 -124.99452,166.58151 -68.61025,89.9361 -125.43469,163.87421 -126.27656,164.30692 -2.31913,1.192 -4.4254,1.53248 -6.12265,0.98974 z M 301.50166,298.2881 c 24.80036,-78.60915 45.23748,-143.35623 45.41583,-143.8824 0.25822,-0.76179 -18.26065,-0.95666 -90.91398,-0.95666 -72.65922,0 -91.16998,0.19481 -90.90294,0.95666 0.18443,0.52617 20.62695,65.27237 45.4278,143.88044 24.80086,78.60808 45.27006,142.92466 45.48711,142.92573 0.21705,7.7e-4 20.68583,-64.31463 45.48618,-142.92377 z M 190.72983,289.48311 147.771,153.44904 H 86.659637 c -48.692019,0 -60.992027,0.19442 -60.524186,0.95666 1.45313,2.36757 207.124539,271.54016 207.326279,271.33841 0.12482,-0.12481 -19.10453,-61.44227 -42.7319,-136.261 z m 192.43301,-0.18766 c 56.17275,-73.6632 102.39409,-134.36358 102.71408,-134.88975 0.46355,-0.7622 -11.84056,-0.95666 -60.53049,-0.95666 h -61.1123 l -42.63515,135.018 c -23.44933,74.25991 -42.85533,135.64909 -43.12444,136.42041 -0.44322,1.27035 -0.34591,1.25827 1.03337,-0.12826 0.83746,-0.84187 47.48218,-61.80055 103.65493,-135.46374 z M 138.90773,136.21989 c 0,-0.51611 -45.108243,-77.870082 -45.878978,-78.675669 -0.428617,-0.448001 -53.812671,62.661179 -65.761849,77.741869 -0.994252,1.25482 1.96026,1.32565 55.295231,1.32565 30.990076,0 56.345596,-0.17633 56.345596,-0.39185 z m 158.23148,-40.74385 -41.1357,-41.135697 -41.1357,41.135697 -41.13569,41.1357 h 82.27139 82.27139 z m 187.6009,39.81005 C 472.79094,120.2054 419.40688,57.09622 418.97827,57.544221 c -0.77074,0.805587 -45.87898,78.159559 -45.87898,78.675669 0,0.21552 25.35552,0.39185 56.34559,0.39185 53.33497,0 56.28949,-0.0708 55.29523,-1.32565 z M 195.89445,91.48767 c 21.86868,-21.871711 39.5733,-39.954678 39.34361,-40.184372 -0.2297,-0.229694 -28.89289,-0.329523 -63.69599,-0.221844 l -63.27837,0.195781 22.28744,38.266593 c 25.1545,43.189212 24.26745,41.710592 25.02297,41.710592 0.30751,0 18.45166,-17.89504 40.32034,-39.76675 z m 184.66682,-0.380927 c 12.73321,-21.807977 23.15129,-39.777162 23.15129,-39.931521 0,-0.154359 -28.58515,-0.280653 -63.52255,-0.280653 -34.93739,0 -63.52254,0.25707 -63.52254,0.571265 0,1.035379 79.19024,79.795626 79.97511,79.540866 0.42207,-0.13699 11.18548,-18.09198 23.91869,-39.899957 z"
   style="fill:#241c1c;stroke-width:0.765332" /></svg>
