<?xml version="1.0" encoding="UTF-8" standalone="no"?>
<svg
   xmlns:dc="http://purl.org/dc/elements/1.1/"
   xmlns:cc="http://creativecommons.org/ns#"
   xmlns:rdf="http://www.w3.org/1999/02/22-rdf-syntax-ns#"
   xmlns:svg="http://www.w3.org/2000/svg"
   xmlns="http://www.w3.org/2000/svg"
   xmlns:sodipodi="http://sodipodi.sourceforge.net/DTD/sodipodi-0.dtd"
   xmlns:inkscape="http://www.inkscape.org/namespaces/inkscape"
   inkscape:version="1.0 (4035a4f, 2020-05-01)"
   sodipodi:docname="die.svg"
   id="svg2385"
   xml:space="preserve"
   enable-background="new 0 0 100 100"
   viewBox="0 0 100 100"
   y="0px"
   x="0px"
   version="1.1"
   fill="#000000"
   width="300px"
   height="300px"><metadata
     id="metadata2391"><rdf:RDF><cc:Work
         rdf:about=""><dc:format>image/svg+xml</dc:format><dc:type
           rdf:resource="http://purl.org/dc/dcmitype/StillImage" /></cc:Work></rdf:RDF></metadata><defs
     id="defs2389" /><sodipodi:namedview
     inkscape:current-layer="svg2385"
     inkscape:window-maximized="0"
     inkscape:window-y="23"
     inkscape:window-x="0"
     inkscape:cy="150"
     inkscape:cx="150"
     inkscape:zoom="2.23"
     showgrid="false"
     id="namedview2387"
     inkscape:window-height="858"
     inkscape:window-width="1513"
     inkscape:pageshadow="2"
     inkscape:pageopacity="0"
     guidetolerance="10"
     gridtolerance="10"
     objecttolerance="10"
     borderopacity="1"
     bordercolor="#666666"
     pagecolor="#ffffff" /><path
     style="fill:#e3e3e3;fill-opacity:1;stroke:#000000;stroke-opacity:1"
     id="path2365"
     d="M57.433,50.783l-45.91-17.879v45.127l45.91,17.879V50.783z M39.665,66.303l-0.16,1.135  c-0.006,0.039-0.022,0.074-0.036,0.109c-0.006,0.016-0.005,0.031-0.013,0.045l-0.008,0.018c-0.001,0-0.001,0-0.002,0.002  L39.07,68.36c0,0,0,0,0,0.002l-0.006,0.012c-0.001,0-0.001,0-0.001,0.002l-0.076,0.15c-0.004,0.008-0.012,0.01-0.016,0.018  c-0.026,0.045-0.056,0.092-0.098,0.129l-0.736,0.66l-0.008,0.006c-0.048,0.043-0.103,0.074-0.159,0.096  c-0.001,0-0.001,0.002-0.002,0.002l-0.973,0.355c-0.041,0.014-0.083,0.018-0.124,0.021c-0.014,0.002-0.024,0.008-0.038,0.008  l-1.131,0.021c-0.004,0-0.007,0-0.01,0c-0.041,0-0.083-0.004-0.125-0.016l-1.215-0.314c-0.023-0.006-0.041-0.021-0.062-0.029  c-0.014-0.006-0.029-0.004-0.043-0.012l-1.213-0.631c-0.013-0.006-0.02-0.018-0.031-0.025c-0.017-0.01-0.034-0.014-0.05-0.027  l-1.133-0.902c-0.013-0.01-0.02-0.025-0.031-0.037c-0.011-0.01-0.024-0.014-0.034-0.025l-0.971-1.113  c-0.013-0.014-0.017-0.031-0.027-0.047c-0.007-0.01-0.019-0.014-0.024-0.023l-0.746-1.246c-0.012-0.02-0.013-0.041-0.021-0.061  c-0.005-0.012-0.017-0.016-0.021-0.027l-0.469-1.297c-0.006-0.016-0.003-0.033-0.008-0.051c-0.005-0.02-0.015-0.035-0.018-0.055  l-0.16-1.258c-0.003-0.023,0.005-0.045,0.005-0.068c0-0.021-0.007-0.043-0.004-0.064l0.043-0.307l0.117-0.83  c0.004-0.029,0.021-0.055,0.029-0.084c0.008-0.023,0.008-0.047,0.02-0.07l0.463-0.918c0-0.002,0.001-0.004,0.002-0.006l0.004-0.008  c0.014-0.025,0.035-0.043,0.053-0.066c0.02-0.027,0.034-0.059,0.061-0.082l0.008-0.006c0.001-0.002,0.002-0.002,0.003-0.004  l0.735-0.656c0.022-0.02,0.05-0.027,0.075-0.043c0.028-0.018,0.052-0.041,0.084-0.053l0.232-0.086c0,0,0,0,0.001,0c0,0,0,0,0.001,0  l0.01-0.004c0.003-0.002,0.005-0.002,0.008-0.004l0.721-0.262c0.025-0.01,0.052-0.008,0.077-0.012  c0.029-0.006,0.055-0.018,0.085-0.02l1.133-0.021c0.004,0,0.007,0,0.01,0c0.022,0,0.041,0.01,0.062,0.014  c0.021,0.002,0.042-0.002,0.063,0.004l1.213,0.316c0.018,0.004,0.03,0.016,0.047,0.023c0.019,0.006,0.039,0.006,0.057,0.016  l1.215,0.629c0.016,0.008,0.025,0.021,0.04,0.031c0.014,0.01,0.029,0.012,0.042,0.021l1.131,0.902  c0.012,0.01,0.017,0.023,0.027,0.033c0.012,0.012,0.027,0.016,0.038,0.029l0.973,1.113c0.01,0.012,0.013,0.025,0.022,0.039  c0.009,0.012,0.022,0.02,0.03,0.033l0.744,1.246c0.009,0.014,0.01,0.031,0.017,0.047c0.007,0.014,0.019,0.023,0.024,0.039  l0.469,1.297c0.007,0.02,0.004,0.039,0.009,0.057c0.004,0.018,0.015,0.031,0.017,0.051l0.111,0.873l0,0l0.049,0.385  c0.003,0.023-0.005,0.045-0.005,0.068C39.661,66.26,39.667,66.282,39.665,66.303z" /><path
     id="path2367"
     d="M35.35,68.581c-0.016-0.006-0.032-0.004-0.048-0.012l-1.213-0.629c-0.014-0.008-0.022-0.02-0.035-0.029  c-0.015-0.01-0.031-0.014-0.046-0.025l-1.133-0.902c-0.013-0.01-0.02-0.025-0.031-0.037c-0.011-0.01-0.024-0.014-0.034-0.025  l-0.971-1.113c-0.013-0.014-0.017-0.031-0.027-0.047c-0.007-0.01-0.019-0.014-0.024-0.023l-0.746-1.246  c-0.012-0.02-0.013-0.041-0.021-0.061c-0.005-0.012-0.017-0.016-0.021-0.027l-0.469-1.297c-0.006-0.016-0.003-0.033-0.008-0.051  c-0.005-0.02-0.015-0.035-0.018-0.055l-0.13-1.018l-0.051,0.363c0,0,0,0,0,0.002l-0.033,0.236l0.145,1.135l0.435,1.205l0.697,1.162  l0.912,1.047l1.059,0.844l1.117,0.58l1.097,0.285l0.516-0.01l-0.861-0.225C35.385,68.602,35.37,68.588,35.35,68.581z" /><path
     id="path2369"
     d="M49.083,14.148L49.083,14.148l0.573,0.166c0.016,0.004,0.027,0.016,0.042,0.021s0.031,0.006,0.046,0.014l1.107,0.564  c0.02,0.01,0.032,0.027,0.05,0.039s0.038,0.018,0.055,0.032l0.348,0.31l-0.181-0.312c0,0,0-0.001-0.001-0.002l-0.073-0.126  l-0.707-0.617l-1.011-0.517l-1.234-0.354l-1.372-0.163l-1.396,0.051L44.01,13.51l-1.141,0.436l-0.874,0.57l-0.552,0.64l-0.03,0.085  l0.956-0.623c0.016-0.01,0.033-0.011,0.049-0.02c0.016-0.008,0.027-0.021,0.045-0.027l1.23-0.471  c0.014-0.006,0.027-0.004,0.042-0.008s0.026-0.014,0.042-0.018l1.4-0.27c0.014-0.002,0.026,0.002,0.04,0.001  s0.024-0.009,0.037-0.009l1.475-0.053c0.015-0.002,0.028,0.006,0.043,0.006c0.012,0,0.021-0.004,0.033-0.003l1.447,0.17  c0.015,0.001,0.025,0.01,0.039,0.013s0.026,0,0.04,0.004L49.083,14.148C49.083,14.148,49.083,14.148,49.083,14.148z" /><path
     id="path2371"
     d="M67.761,50.475l-0.334-0.352l-0.073-0.02l0.059,0.158c0.008,0.021,0.005,0.041,0.01,0.062  c0.006,0.021,0.018,0.04,0.02,0.063l0.11,1.103c0.002,0.016-0.005,0.031-0.005,0.049c0,0.014,0.006,0.027,0.005,0.043l-0.109,1.289  c-0.001,0.012-0.008,0.023-0.01,0.035s0.002,0.021-0.001,0.033l-0.316,1.385c-0.003,0.012-0.01,0.021-0.014,0.033  c-0.002,0.008-0.001,0.018-0.004,0.027l-0.06,0.162v0.002l-0.389,1.076c0,0.002-0.001,0.002-0.001,0.002l-0.053,0.145  c-0.003,0.006-0.01,0.01-0.013,0.016c-0.005,0.014-0.005,0.025-0.011,0.039l-0.654,1.295c-0.004,0.008-0.014,0.012-0.019,0.02  c-0.007,0.012-0.008,0.025-0.016,0.037l-0.764,1.115c-0.007,0.01-0.018,0.012-0.024,0.021c-0.01,0.014-0.015,0.029-0.026,0.041  l-0.82,0.857c-0.013,0.014-0.03,0.02-0.044,0.031c-0.015,0.012-0.023,0.029-0.04,0.039l-0.525,0.352l0.232,0.061l0.557-0.139  l0.096-0.064c0.002,0,0.003,0,0.005-0.002l0.598-0.396l0.756-0.793l0.718-1.049l0.631-1.242l0.344-0.949l0,0l0.137-0.383  l0.302-1.318l0.101-1.203l-0.098-0.998L67.761,50.475z" /><path
     style="stroke:#000000;stroke-opacity:1;fill:#e3e3e3;fill-opacity:1"
     id="path2373"
     d="M89.076,24.443L58.433,50.672v44.883l30.643-26.229V24.443z M69.115,76.147l-0.107,1.287  c-0.001,0.012-0.008,0.023-0.01,0.035s0.002,0.021-0.001,0.033l-0.316,1.385c-0.003,0.012-0.01,0.021-0.014,0.033  c-0.003,0.008-0.001,0.018-0.004,0.025l-0.502,1.387c-0.003,0.008-0.01,0.01-0.013,0.018c-0.005,0.012-0.004,0.025-0.011,0.039  l-0.656,1.297c-0.004,0.008-0.014,0.012-0.018,0.02c-0.008,0.012-0.009,0.025-0.017,0.037l-0.764,1.113  c-0.007,0.01-0.018,0.014-0.025,0.023c-0.01,0.012-0.014,0.027-0.024,0.039l-0.818,0.859c-0.013,0.014-0.03,0.018-0.044,0.029  c-0.016,0.014-0.024,0.031-0.042,0.043l-0.818,0.543c-0.01,0.006-0.021,0.004-0.032,0.01c-0.039,0.021-0.077,0.047-0.123,0.059  l-0.764,0.191c-0.04,0.01-0.081,0.014-0.121,0.014c-0.042,0-0.084-0.004-0.127-0.016l-0.654-0.172  c-0.012-0.004-0.021-0.012-0.031-0.016C63.027,84.452,63,84.436,62.97,84.42c-0.031-0.02-0.061-0.037-0.087-0.061  c-0.01-0.01-0.022-0.012-0.031-0.021l-0.506-0.537c-0.046-0.049-0.079-0.105-0.102-0.164c-0.001-0.002-0.002-0.002-0.002-0.002  v-0.002c-0.001,0-0.001-0.002-0.002-0.002l-0.312-0.83c-0.007-0.02-0.004-0.037-0.009-0.057c-0.007-0.023-0.019-0.047-0.021-0.072  l-0.107-1.104c-0.002-0.016,0.005-0.031,0.005-0.047s-0.006-0.029-0.005-0.043l0.107-1.287c0.001-0.012,0.008-0.021,0.01-0.033  s-0.002-0.023,0.001-0.037l0.316-1.387c0.002-0.01,0.01-0.018,0.013-0.027c0.003-0.012,0.001-0.021,0.005-0.033l0.043-0.117h0.001  l0.46-1.268c0.004-0.01,0.012-0.016,0.016-0.025s0.003-0.02,0.008-0.029l0.654-1.295c0.006-0.012,0.016-0.018,0.021-0.029  c0.006-0.008,0.007-0.02,0.013-0.027l0.764-1.115c0.008-0.012,0.02-0.018,0.027-0.027c0.01-0.012,0.013-0.025,0.023-0.037  l0.818-0.857c0.014-0.014,0.031-0.02,0.046-0.031c0.014-0.012,0.022-0.027,0.038-0.039l0.818-0.545  c0.024-0.016,0.052-0.02,0.078-0.031s0.049-0.031,0.078-0.037l0.361-0.09l0.109-0.027c0.001,0,0.002,0,0.002,0l0.289-0.074  c0.007-0.002,0.014,0,0.021,0c0.033-0.008,0.068-0.008,0.104-0.006c0.036-0.002,0.071-0.002,0.106,0.006  c0.007,0.002,0.014,0,0.021,0.002l0.656,0.174c0.012,0.002,0.021,0.012,0.032,0.016c0.032,0.01,0.061,0.027,0.091,0.045  c0.028,0.018,0.056,0.033,0.081,0.057c0.009,0.008,0.021,0.012,0.03,0.021l0.502,0.527c0.006,0.006,0.008,0.016,0.014,0.021  c0.039,0.047,0.072,0.096,0.093,0.148l0.315,0.842c0.008,0.021,0.006,0.043,0.011,0.064s0.018,0.039,0.02,0.062l0.107,1.104  c0.002,0.018-0.005,0.031-0.005,0.049C69.11,76.118,69.116,76.131,69.115,76.147z M69.115,52.192l-0.107,1.287  c-0.001,0.012-0.008,0.023-0.01,0.035s0.002,0.021-0.001,0.033l-0.316,1.385c-0.003,0.012-0.01,0.02-0.013,0.031  c-0.003,0.008-0.001,0.018-0.004,0.027l-0.146,0.408h-0.001v0.002l-0.355,0.98c-0.003,0.006-0.01,0.01-0.013,0.016  c-0.005,0.014-0.005,0.025-0.011,0.039l-0.656,1.295c-0.004,0.008-0.014,0.012-0.019,0.02c-0.007,0.012-0.008,0.025-0.016,0.037  l-0.764,1.115c-0.007,0.01-0.018,0.012-0.024,0.021c-0.01,0.014-0.015,0.029-0.026,0.041l-0.818,0.857  c-0.014,0.016-0.032,0.02-0.047,0.033c-0.014,0.012-0.022,0.027-0.038,0.037l-0.649,0.432c-0.002,0.002-0.002,0.004-0.004,0.004  l-0.166,0.109c-0.011,0.008-0.023,0.004-0.034,0.01c-0.039,0.023-0.075,0.047-0.12,0.059l-0.764,0.191  c-0.04,0.01-0.081,0.014-0.121,0.014c-0.042,0-0.084-0.004-0.127-0.016l-0.654-0.172c-0.012-0.004-0.021-0.012-0.031-0.016  c-0.031-0.012-0.059-0.027-0.088-0.043c-0.031-0.02-0.061-0.037-0.087-0.061c-0.01-0.01-0.022-0.012-0.031-0.021l-0.506-0.537  c-0.046-0.049-0.079-0.105-0.102-0.164c-0.001-0.002-0.002-0.002-0.002-0.002v-0.002c-0.001,0-0.001-0.002-0.002-0.002l-0.312-0.83  c-0.007-0.02-0.004-0.037-0.009-0.057c-0.007-0.023-0.019-0.047-0.021-0.072l-0.107-1.104c-0.002-0.016,0.005-0.031,0.005-0.047  s-0.006-0.029-0.005-0.043l0.107-1.287c0.001-0.012,0.008-0.021,0.01-0.033s-0.002-0.023,0.001-0.037l0.316-1.385  c0.002-0.01,0.01-0.018,0.013-0.027c0.003-0.012,0.001-0.021,0.005-0.033l0.043-0.117h0.001l0.46-1.27  c0.003-0.01,0.011-0.016,0.015-0.023c0.005-0.01,0.004-0.021,0.009-0.031l0.654-1.295c0.005-0.012,0.015-0.018,0.021-0.027  s0.007-0.021,0.014-0.031l0.764-1.112c0.008-0.012,0.02-0.017,0.027-0.027c0.009-0.011,0.013-0.024,0.022-0.035l0.818-0.859  c0.014-0.014,0.031-0.02,0.046-0.031c0.015-0.013,0.023-0.029,0.04-0.04l0.818-0.543c0.025-0.017,0.055-0.022,0.082-0.034  c0.024-0.01,0.045-0.027,0.071-0.033l0.361-0.092h0.001c0.001-0.001,0.001-0.002,0.002-0.002l0.402-0.1  c0.008-0.002,0.016,0.001,0.023,0c0.03-0.006,0.061-0.005,0.093-0.005c0.036-0.001,0.072-0.002,0.107,0.006  c0.008,0.001,0.016-0.001,0.023,0.001l0.656,0.172c0.014,0.004,0.023,0.014,0.036,0.018c0.029,0.011,0.057,0.025,0.084,0.041  c0.03,0.018,0.059,0.036,0.085,0.06c0.009,0.009,0.021,0.012,0.03,0.021l0.502,0.527c0.049,0.051,0.083,0.109,0.106,0.172  l0.315,0.842c0.008,0.021,0.006,0.041,0.011,0.062c0.005,0.022,0.018,0.041,0.02,0.064l0.107,1.102  c0.002,0.018-0.005,0.031-0.005,0.049C69.11,52.163,69.116,52.176,69.115,52.192z M85.828,61.84l-0.107,1.287  c-0.001,0.012-0.008,0.023-0.01,0.035s0.002,0.021-0.001,0.033l-0.316,1.385c-0.002,0.012-0.009,0.02-0.013,0.029  c-0.003,0.01,0,0.02-0.004,0.029l-0.502,1.389c-0.003,0.008-0.011,0.012-0.014,0.02c-0.006,0.012-0.005,0.025-0.011,0.037  l-0.656,1.295c-0.004,0.008-0.013,0.01-0.018,0.018c-0.007,0.012-0.008,0.027-0.016,0.039l-0.762,1.115  c-0.007,0.01-0.019,0.014-0.026,0.023c-0.01,0.012-0.014,0.027-0.025,0.039l-0.82,0.857c-0.013,0.014-0.03,0.02-0.044,0.031  c-0.015,0.012-0.024,0.029-0.041,0.041l-0.818,0.543c-0.011,0.006-0.023,0.004-0.034,0.01c-0.038,0.021-0.074,0.045-0.119,0.057  l-0.764,0.193c-0.041,0.012-0.083,0.016-0.123,0.016c-0.042,0-0.085-0.004-0.128-0.016l-0.654-0.174  c-0.012-0.004-0.02-0.012-0.03-0.016c-0.031-0.01-0.06-0.027-0.088-0.043c-0.031-0.018-0.06-0.035-0.086-0.059  c-0.009-0.01-0.021-0.012-0.029-0.021l-0.504-0.527c-0.048-0.051-0.084-0.107-0.106-0.17h-0.001l-0.314-0.844  c-0.008-0.021-0.005-0.043-0.01-0.064s-0.017-0.039-0.019-0.062l-0.11-1.102c-0.002-0.018,0.005-0.033,0.005-0.049  s-0.006-0.029-0.005-0.043l0.109-1.287c0.001-0.012,0.008-0.021,0.01-0.031c0.002-0.014-0.002-0.025,0.001-0.037l0.314-1.385  c0.002-0.012,0.01-0.018,0.013-0.029c0.003-0.01,0.001-0.021,0.005-0.033l0.043-0.117H79l0.46-1.268  c0.004-0.01,0.012-0.016,0.016-0.025s0.003-0.02,0.008-0.029l0.654-1.297c0.005-0.012,0.016-0.018,0.021-0.027  s0.006-0.021,0.013-0.031l0.764-1.113c0.008-0.012,0.02-0.016,0.028-0.027c0.009-0.01,0.012-0.023,0.021-0.033l0.818-0.859  c0.014-0.014,0.031-0.02,0.045-0.031c0.016-0.014,0.024-0.031,0.041-0.041l0.82-0.543c0.027-0.02,0.058-0.023,0.087-0.037  c0.023-0.008,0.042-0.025,0.066-0.031l0.029-0.008h0.001l0.331-0.084c0.001,0,0.001,0,0.002,0l0.4-0.1  c0.005-0.002,0.01,0,0.015-0.002c0.039-0.008,0.08-0.006,0.121-0.004c0.03,0,0.059,0,0.087,0.006c0.009,0.002,0.017,0,0.025,0.002  l0.656,0.172c0.012,0.002,0.021,0.012,0.031,0.016c0.033,0.01,0.062,0.027,0.093,0.045c0.029,0.018,0.056,0.033,0.08,0.055  c0.01,0.01,0.021,0.012,0.03,0.021l0.291,0.305c0,0,0,0.002,0.001,0.002h0.001l0.21,0.223h0.001  c0.048,0.051,0.083,0.109,0.105,0.172l0.315,0.84c0.008,0.021,0.005,0.041,0.01,0.061c0.006,0.023,0.019,0.043,0.021,0.066  l0.107,1.104c0.002,0.018-0.005,0.031-0.005,0.049C85.823,61.811,85.829,61.825,85.828,61.84z M85.828,37.885l-0.107,1.289  c-0.001,0.013-0.008,0.023-0.01,0.035s0.002,0.023-0.001,0.035l-0.316,1.385c-0.003,0.012-0.01,0.021-0.014,0.032  c-0.003,0.009-0.001,0.018-0.004,0.026l-0.502,1.387c-0.002,0.007-0.01,0.01-0.013,0.016c-0.005,0.014-0.004,0.027-0.011,0.04  l-0.656,1.295c-0.004,0.008-0.013,0.011-0.018,0.019c-0.007,0.012-0.008,0.025-0.016,0.037l-0.762,1.115  c-0.007,0.011-0.019,0.014-0.026,0.023c-0.01,0.014-0.014,0.029-0.025,0.041l-0.82,0.857c-0.013,0.013-0.03,0.018-0.044,0.029  c-0.015,0.013-0.023,0.029-0.04,0.041l-0.818,0.545c-0.01,0.006-0.021,0.004-0.031,0.009c-0.039,0.022-0.078,0.048-0.125,0.06  l-0.764,0.191c-0.04,0.01-0.081,0.016-0.121,0.016c-0.042,0-0.085-0.006-0.128-0.018l-0.654-0.174  c-0.012-0.002-0.02-0.011-0.03-0.015c-0.031-0.011-0.06-0.026-0.089-0.044s-0.059-0.034-0.084-0.057  c-0.009-0.009-0.021-0.012-0.03-0.021l-0.504-0.525c-0.048-0.051-0.083-0.108-0.106-0.17c0,0-0.001-0.001-0.001-0.002l-0.314-0.844  c-0.008-0.021-0.005-0.041-0.01-0.062s-0.017-0.04-0.019-0.062l-0.11-1.104c-0.002-0.017,0.005-0.031,0.005-0.049  c0-0.015-0.006-0.027-0.005-0.043l0.109-1.289c0.001-0.012,0.008-0.021,0.01-0.031c0.002-0.013-0.002-0.025,0.001-0.037l0.314-1.385  c0.002-0.01,0.01-0.018,0.013-0.027c0.003-0.012,0.001-0.023,0.005-0.034l0.043-0.117c0-0.001,0.001-0.002,0.002-0.003l0.459-1.265  c0.004-0.009,0.011-0.016,0.015-0.024c0.005-0.01,0.004-0.021,0.009-0.031l0.654-1.295c0.006-0.01,0.016-0.017,0.021-0.027  c0.006-0.01,0.006-0.02,0.013-0.029l0.764-1.115c0.008-0.011,0.02-0.017,0.027-0.026c0.009-0.011,0.013-0.025,0.022-0.036  l0.818-0.859c0.013-0.014,0.03-0.019,0.045-0.03c0.015-0.013,0.024-0.03,0.041-0.042l0.82-0.543c0.024-0.016,0.053-0.02,0.079-0.031  c0.025-0.012,0.048-0.029,0.076-0.037l0.36-0.089l0.399-0.102c0.009-0.003,0.019,0.001,0.027-0.001  c0.033-0.007,0.065-0.005,0.1-0.005c0.033,0.001,0.065-0.001,0.098,0.006c0.009,0.002,0.017-0.001,0.025,0.001l0.379,0.1  c0.003,0.002,0.006,0.004,0.009,0.005c0.004,0.001,0.007,0,0.011,0.001l0.146,0.045l0.088,0.018c0.017,0.004,0.029,0.015,0.045,0.02  c0.032,0.01,0.062,0.023,0.092,0.04c0.03,0.017,0.057,0.035,0.083,0.058c0.012,0.011,0.027,0.016,0.039,0.027l0.502,0.525  c0.017,0.018,0.024,0.041,0.038,0.061c0.025,0.035,0.054,0.07,0.068,0.109l0.316,0.844c0.008,0.02,0.005,0.041,0.01,0.061  c0.006,0.023,0.019,0.043,0.021,0.066l0.107,1.104c0.002,0.017-0.005,0.031-0.005,0.047S85.829,37.87,85.828,37.885z" /><path
     id="path2375"
     d="M67.761,74.428l-0.335-0.352l-0.073-0.02l0.06,0.158c0.009,0.023,0.006,0.045,0.011,0.068  c0.005,0.02,0.017,0.037,0.019,0.059l0.11,1.104c0.002,0.016-0.005,0.031-0.005,0.049c0,0.014,0.006,0.027,0.005,0.043l-0.109,1.287  c-0.001,0.012-0.008,0.021-0.01,0.035c-0.002,0.012,0.002,0.021-0.001,0.033l-0.316,1.385c-0.002,0.012-0.009,0.02-0.013,0.029  c-0.003,0.01,0,0.02-0.004,0.029l-0.502,1.389c-0.003,0.008-0.011,0.012-0.014,0.02c-0.006,0.012-0.005,0.025-0.011,0.037  l-0.654,1.295c-0.004,0.008-0.014,0.012-0.019,0.02c-0.007,0.012-0.008,0.025-0.016,0.037l-0.764,1.115  c-0.007,0.01-0.018,0.012-0.024,0.021c-0.01,0.014-0.015,0.029-0.026,0.041l-0.82,0.857c-0.013,0.014-0.03,0.02-0.044,0.031  c-0.015,0.012-0.024,0.029-0.041,0.041l-0.526,0.348l0.234,0.062l0.557-0.139l0.7-0.465l0.752-0.791l0.722-1.051l0.63-1.246  l0.479-1.322l0.303-1.322l0.101-1.203l-0.098-1L67.761,74.428z" /><path
     id="path2377"
     d="M84.474,36.168l-0.327-0.343h-0.001l-0.075-0.022l0.058,0.152c0.008,0.022,0.006,0.045,0.011,0.067  c0.005,0.021,0.017,0.038,0.019,0.06l0.107,1.104c0.002,0.017-0.005,0.031-0.005,0.047s0.006,0.028,0.005,0.043l-0.107,1.289  c-0.001,0.013-0.008,0.023-0.01,0.035s0.002,0.023-0.001,0.035l-0.316,1.385c-0.003,0.012-0.01,0.021-0.014,0.031  c-0.003,0.01-0.001,0.019-0.004,0.027l-0.504,1.387c-0.003,0.008-0.01,0.01-0.013,0.018c-0.005,0.012-0.005,0.025-0.011,0.037  l-0.654,1.295c-0.004,0.009-0.014,0.012-0.019,0.02c-0.007,0.013-0.008,0.026-0.016,0.038l-0.764,1.115  c-0.007,0.009-0.018,0.013-0.024,0.021c-0.01,0.013-0.014,0.028-0.025,0.04l-0.818,0.859c-0.013,0.014-0.03,0.02-0.044,0.031  c-0.016,0.013-0.024,0.03-0.042,0.041l-0.526,0.349l0.234,0.062l0.554-0.139l0.701-0.467l0.753-0.787l0.721-1.056l0.63-1.243  l0.479-1.323l0.302-1.322l0.101-1.205l-0.098-0.998L84.474,36.168z" /><path
     style="fill:#e3e3e3;fill-opacity:1;stroke:#000000;stroke-opacity:1"
     id="path2379"
     d="M42.763,5.664L11.982,32.01l45.854,17.856L88.617,23.52L42.763,5.664z M47.459,19.667c-0.003,0-0.006,0.002-0.009,0.002  l-1.475,0.053c-0.006,0.001-0.011,0.001-0.017,0.001c-0.001,0-0.001,0-0.001,0c-0.02,0-0.038-0.002-0.059-0.004l-1.447-0.17  c-0.01-0.001-0.017-0.007-0.026-0.008c-0.018-0.004-0.035-0.003-0.054-0.008l-1.322-0.381c-0.019-0.006-0.032-0.02-0.051-0.027  c-0.013-0.005-0.026-0.002-0.038-0.009l-1.105-0.566c-0.016-0.009-0.026-0.022-0.041-0.032c-0.02-0.013-0.041-0.02-0.06-0.035  l-0.816-0.711c-0.032-0.028-0.051-0.063-0.074-0.097c-0.008-0.013-0.022-0.017-0.03-0.03L40.461,17l-0.095-0.162  c-0.002-0.004-0.002-0.008-0.004-0.012c-0.02-0.036-0.029-0.077-0.04-0.118c-0.006-0.022-0.018-0.043-0.02-0.065  c-0.001-0.002-0.002-0.003-0.002-0.005l-0.09-0.852c0-0.003,0.001-0.007,0.001-0.01c-0.003-0.034,0.005-0.069,0.01-0.104  c0.004-0.031,0.003-0.064,0.013-0.094c0.002-0.004,0.001-0.007,0.002-0.011l0.295-0.834c0.01-0.027,0.029-0.048,0.044-0.072  c0.016-0.029,0.026-0.062,0.049-0.088l0.658-0.764c0.017-0.02,0.039-0.028,0.059-0.045c0.017-0.015,0.028-0.034,0.048-0.048  l0.98-0.639c0.016-0.01,0.033-0.011,0.049-0.02c0.017-0.008,0.027-0.021,0.045-0.027l1.23-0.471  c0.015-0.006,0.029-0.004,0.043-0.008c0.015-0.004,0.026-0.014,0.041-0.017l1.4-0.271c0.014-0.003,0.026,0.002,0.039,0  c0.014-0.001,0.024-0.009,0.038-0.009l1.475-0.053c0.019-0.003,0.034,0.006,0.052,0.006c0.009,0,0.017-0.004,0.024-0.003  l1.447,0.172c0.014,0.001,0.025,0.01,0.039,0.013s0.026,0,0.04,0.004l1.322,0.379c0.016,0.004,0.027,0.016,0.042,0.021  c0.016,0.006,0.032,0.006,0.048,0.014l1.107,0.566c0.019,0.01,0.03,0.025,0.048,0.037s0.037,0.018,0.054,0.031l0.814,0.711  c0.023,0.021,0.035,0.047,0.055,0.07c0.015,0.02,0.035,0.033,0.048,0.055l0.117,0.201c0,0,0.001,0,0.001,0.001l0.352,0.607  c0.001,0.001,0,0.002,0.001,0.003c0.018,0.031,0.024,0.069,0.036,0.105c0.008,0.029,0.022,0.057,0.026,0.086  c0,0.002,0.001,0.002,0.001,0.004l0.09,0.852c0,0.003-0.001,0.006-0.001,0.009c0.003,0.032-0.005,0.065-0.009,0.099  s-0.003,0.068-0.014,0.1c-0.001,0.002,0,0.006-0.001,0.008l-0.059,0.17c0,0.001-0.001,0.001-0.001,0.002c0,0,0,0.001,0,0.002  l-0.125,0.355h-0.001c0,0.001,0,0.002,0,0.002l-0.111,0.311c-0.003,0.008-0.011,0.011-0.013,0.018  c-0.021,0.049-0.043,0.099-0.08,0.141l-0.658,0.762c-0.014,0.016-0.032,0.021-0.047,0.035c-0.02,0.019-0.034,0.041-0.058,0.057  l-0.979,0.639c-0.011,0.008-0.024,0.005-0.036,0.012c-0.021,0.011-0.036,0.027-0.059,0.037l-0.674,0.258c-0.001,0-0.001,0-0.001,0  l-0.559,0.213c-0.016,0.006-0.031,0.004-0.047,0.009c-0.013,0.003-0.022,0.013-0.036,0.015l-1.4,0.271  C47.505,19.664,47.483,19.666,47.459,19.667z M60.169,39.936c-0.004,0.031-0.004,0.062-0.013,0.092  c-0.002,0.004-0.001,0.008-0.002,0.012l-0.186,0.525l-0.109,0.311c-0.002,0.006-0.009,0.008-0.011,0.014  c-0.021,0.051-0.044,0.102-0.082,0.146l-0.658,0.764c-0.014,0.016-0.033,0.022-0.049,0.036c-0.02,0.019-0.033,0.041-0.057,0.056  l-0.979,0.639c-0.011,0.008-0.023,0.005-0.034,0.011c-0.021,0.012-0.037,0.029-0.061,0.038l-1.232,0.471  c-0.016,0.006-0.032,0.004-0.049,0.009c-0.013,0.003-0.022,0.013-0.035,0.015l-0.291,0.057h-0.001l-1.107,0.215  c-0.023,0.004-0.046,0.006-0.069,0.007c-0.003,0-0.006,0.002-0.009,0.002l-1.475,0.051c-0.006,0.001-0.011,0.001-0.017,0.001  c-0.001,0-0.001,0-0.001,0c-0.02,0-0.038-0.002-0.059-0.004l-1.447-0.17c-0.01-0.001-0.017-0.007-0.026-0.008  c-0.018-0.004-0.035-0.003-0.054-0.008l-1.322-0.381c-0.019-0.006-0.031-0.02-0.049-0.025c-0.014-0.006-0.027-0.004-0.04-0.01  l-1.107-0.564c-0.017-0.009-0.027-0.023-0.042-0.034c-0.02-0.013-0.042-0.02-0.06-0.035l-0.814-0.711  c-0.032-0.028-0.052-0.063-0.075-0.098c-0.008-0.012-0.021-0.017-0.028-0.028l-0.373-0.645l-0.095-0.162  c-0.002-0.004-0.002-0.007-0.003-0.01c-0.022-0.039-0.034-0.084-0.045-0.13c-0.004-0.019-0.014-0.036-0.016-0.054  c-0.001-0.002-0.002-0.004-0.002-0.006l-0.027-0.252c0,0,0-0.001,0-0.002l-0.056-0.541c0-0.001-0.001-0.001-0.001-0.002  l-0.006-0.053c0-0.004,0.002-0.008,0.001-0.012c-0.003-0.033,0.005-0.066,0.009-0.101c0.004-0.032,0.004-0.065,0.014-0.097  c0.002-0.004,0-0.009,0.002-0.013l0.295-0.836c0.01-0.028,0.03-0.049,0.045-0.073c0.016-0.029,0.025-0.061,0.048-0.087l0.658-0.764  c0.016-0.019,0.037-0.026,0.054-0.042c0.019-0.016,0.031-0.037,0.052-0.051l0.979-0.639c0.016-0.01,0.033-0.011,0.049-0.02  c0.017-0.008,0.028-0.021,0.046-0.028l1.232-0.471c0.015-0.005,0.029-0.003,0.044-0.007c0.014-0.005,0.025-0.014,0.04-0.018  l1.4-0.27c0.014-0.002,0.026,0.002,0.04,0.001c0.013-0.001,0.023-0.009,0.037-0.009l1.475-0.053c0.016-0.002,0.03,0.006,0.046,0.006  c0.01,0,0.02-0.004,0.03-0.003l1.447,0.17c0.015,0.001,0.025,0.01,0.039,0.013s0.027,0,0.041,0.004l1.322,0.381  c0.017,0.004,0.027,0.016,0.043,0.021c0.015,0.006,0.031,0.006,0.046,0.014l1.105,0.564c0.02,0.01,0.031,0.026,0.049,0.038  c0.017,0.012,0.037,0.017,0.053,0.03l0.816,0.713c0.021,0.02,0.033,0.045,0.051,0.066c0.018,0.021,0.039,0.035,0.053,0.059  l0.469,0.809c0.001,0.002,0.001,0.004,0.002,0.006c0.012,0.021,0.015,0.047,0.023,0.069c0.015,0.04,0.033,0.079,0.038,0.12  c0,0.001,0.001,0.002,0.001,0.004l0.09,0.85c0,0.003-0.001,0.006-0.001,0.01C60.182,39.865,60.174,39.9,60.169,39.936z" /><path
     id="path2381"
     d="M84.474,60.122l-0.143-0.15L84.14,59.77l-0.071-0.018l0.059,0.156c0.008,0.021,0.006,0.043,0.011,0.064  s0.018,0.039,0.02,0.062l0.107,1.104c0.002,0.018-0.005,0.031-0.005,0.049c0,0.014,0.006,0.027,0.005,0.043l-0.107,1.289  c-0.001,0.012-0.008,0.023-0.01,0.035s0.002,0.021-0.001,0.033l-0.316,1.385c-0.003,0.012-0.01,0.021-0.014,0.033  c-0.003,0.008-0.001,0.018-0.004,0.027l-0.504,1.387c-0.003,0.006-0.01,0.01-0.013,0.016c-0.005,0.014-0.005,0.025-0.011,0.039  l-0.654,1.295c-0.004,0.008-0.014,0.012-0.019,0.02c-0.007,0.012-0.008,0.025-0.016,0.037l-0.764,1.115  c-0.007,0.01-0.018,0.012-0.024,0.021c-0.01,0.014-0.015,0.029-0.026,0.041l-0.818,0.857c-0.014,0.016-0.032,0.02-0.047,0.033  c-0.014,0.012-0.022,0.027-0.038,0.037l-0.528,0.352l0.236,0.062l0.553-0.141l0.703-0.467l0.752-0.785l0.722-1.057l0.626-1.234  l0.483-1.338l0.301-1.316l0.101-1.203l-0.098-1L84.474,60.122z" /><path
     id="path2383"
     d="M58.026,37.919l-1.008-0.515l-1.237-0.356l-1.369-0.161l-1.394,0.051l-1.322,0.254l-1.142,0.436l-0.874,0.571l-0.551,0.639  l-0.031,0.087l0.356-0.23v-0.001l0.598-0.391c0.015-0.01,0.032-0.011,0.048-0.02c0.017-0.009,0.029-0.022,0.047-0.029l1.232-0.471  c0.015-0.006,0.03-0.003,0.046-0.008c0.014-0.004,0.024-0.013,0.038-0.016l1.4-0.271c0.014-0.003,0.026,0.002,0.039,0  c0.014-0.001,0.024-0.009,0.038-0.009l1.475-0.051c0.018-0.003,0.033,0.006,0.051,0.005c0.009,0.001,0.017-0.003,0.025-0.002  l1.447,0.17c0.015,0.001,0.025,0.01,0.039,0.013s0.027,0,0.041,0.004l1.322,0.381c0.017,0.004,0.027,0.016,0.043,0.021  c0.015,0.006,0.031,0.006,0.046,0.014l1.105,0.564c0.02,0.01,0.032,0.027,0.05,0.039c0.017,0.012,0.035,0.016,0.051,0.029  l0.347,0.302l-0.25-0.431L58.026,37.919z" /><path
     transform="scale(0.33333333)"
     id="path2954"
     d="m 136.32287,57.316535 c -6.38236,-0.622352 -12.80877,-4.369689 -13.72,-8.000352 -1.08427,-4.320077 3.32481,-8.563916 10.70538,-10.304172 8.8311,-2.082276 19.40667,1.189157 21.95999,6.793074 0.80616,1.769336 0.0163,4.762393 -1.73182,6.562134 -3.31591,3.413887 -10.82328,5.572439 -17.21355,4.949316 z M 126.4574,44.625528 c 0.61659,-0.408712 2.02915,-1.066276 3.13901,-1.461253 7.2189,-2.569046 15.13766,-2.123845 21.40349,1.203326 1.63734,0.86943 3.07395,1.483811 3.19247,1.36529 0.52144,-0.52144 -3.70124,-3.808114 -5.99545,-4.666488 -5.31181,-1.987402 -13.01078,-2.057995 -17.85342,-0.1637 -1.72674,0.675448 -5.67982,3.095245 -5.67982,3.476783 0,0.0913 -0.13519,0.518294 -0.30042,0.94888 -0.32119,0.83699 -0.13421,0.774235 2.09414,-0.702838 z"
     style="fill:#666666;fill-opacity:1;stroke:none;stroke-width:8.96861;stroke-linejoin:round;stroke-opacity:1" /><path
     transform="scale(0.33333333)"
     id="path2956"
     d="m 158.07175,128.18452 c -5.46712,-1.13859 -8.52827,-2.60189 -10.66491,-5.09807 -2.00948,-2.34762 -2.30815,-4.1217 -1.11904,-6.64693 2.7803,-5.9043 15.18836,-8.82697 24.11038,-5.6791 4.67648,1.64996 7.24814,3.87387 8.0885,6.99473 1.46368,5.43569 -6.89344,10.8347 -16.51324,10.66817 -1.65265,-0.0286 -3.40842,-0.13607 -3.90169,-0.2388 z m 18.33767,-12.6089 c -1.12908,-1.56433 -5.96642,-4.00447 -9.09394,-4.58734 -5.21696,-0.97227 -11.50683,-0.30738 -15.6382,1.65308 -1.65638,0.78601 -4.86942,3.59849 -4.51541,3.9525 0.11796,0.11796 1.60374,-0.4845 3.30173,-1.33881 1.69799,-0.85431 4.20536,-1.7868 5.57192,-2.07221 3.70715,-0.77423 10.10145,-0.64197 13.24699,0.27401 2.98145,0.86819 6.72278,2.62777 7.18806,3.3806 0.16547,0.26774 0.41848,0.36917 0.56224,0.2254 0.14376,-0.14376 -0.13676,-0.81301 -0.62339,-1.48723 z"
     style="fill:#1a1a1a;fill-opacity:1;stroke:none;stroke-width:8.96861;stroke-linejoin:round;stroke-opacity:1" /><path
     transform="scale(0.33333333)"
     id="path2958"
     d="m 133.23423,56.494537 c -3.36543,-0.944658 -7.45646,-3.213928 -9.03478,-5.011529 -1.03015,-1.173277 -1.32949,-1.94576 -1.32949,-3.430841 0,-1.054143 0.29627,-2.308333 0.65838,-2.787086 0.62155,-0.82176 0.65918,-0.824464 0.67265,-0.04834 0.008,0.452168 0.1681,0.754859 0.35613,0.672646 0.18803,-0.08221 1.44924,-0.698265 2.80269,-1.369006 7.36307,-3.648982 16.66648,-3.491581 24.38347,0.412535 1.57704,0.797845 2.28267,0.961622 2.51607,0.583981 0.43597,-0.705416 0.89812,0.5273 0.89592,2.389734 -0.004,3.163102 -3.40688,6.362679 -8.48032,7.973043 -3.89274,1.235595 -10.20119,1.524183 -13.44072,0.614863 z"
     style="fill:#1a1a1a;fill-opacity:1;stroke:none;stroke-width:8.96861;stroke-linejoin:round;stroke-opacity:1" /><path
     transform="scale(0.33333333)"
     id="path2960"
     d="m 105.14002,207.26652 c -6.436433,-1.91979 -12.772016,-8.40415 -14.737267,-15.08334 -1.069818,-3.63593 -0.923411,-6.19096 0.51653,-9.01427 5.742025,-11.25844 26.136577,0.86795 26.170707,15.56083 0.0155,6.65203 -5.37011,10.49934 -11.94997,8.53678 z m 3.38016,-0.76428 c 0.5575,-0.36028 0.51912,-0.43593 -0.22422,-0.44192 -1.72093,-0.0138 -6.29888,-2.60401 -9.059366,-5.1257 -4.062825,-3.71137 -7.756773,-10.42562 -7.756773,-14.09899 0,-0.86256 -0.126272,-1.01429 -0.518047,-0.62252 -0.389314,0.38932 -0.392937,1.27306 -0.01458,3.55637 1.233931,7.44654 7.465044,14.62725 14.333506,16.51788 2.68353,0.73867 2.45266,0.72336 3.23948,0.21488 z"
     style="fill:#1a1a1a;fill-opacity:1;stroke:none;stroke-width:8.96861;stroke-linejoin:round;stroke-opacity:1" /><path
     transform="scale(0.33333333)"
     id="path2962"
     d="m 190.12822,179.90254 c -2.71127,-1.34913 -3.65342,-7.58067 -2.08023,-13.75904 1.04661,-4.11032 4.3901,-10.6833 6.79478,-13.35788 8.18008,-9.09822 13.70052,-0.73396 8.82289,13.36796 -3.11734,9.01264 -9.67377,15.67153 -13.53744,13.74896 z m 4.87013,-2.10148 c 3.73313,-2.70426 7.09762,-8.67636 8.84118,-15.69344 0.8604,-3.46272 0.78316,-8.37896 -0.16152,-10.28132 -1.29285,-2.60349 -1.68033,-2.12588 -1.49983,1.84871 0.35517,7.82112 -3.22141,17.10221 -8.73627,22.67028 -2.66142,2.6871 -2.72491,2.80269 -1.53942,2.80269 0.68007,0 2.07321,-0.60611 3.09586,-1.34692 z"
     style="fill:#1a1a1a;fill-opacity:1;stroke:none;stroke-width:8.96861;stroke-linejoin:round;stroke-opacity:1" /><path
     transform="scale(0.33333333)"
     id="path2964"
     d="m 189.77936,251.53952 c -3.55739,-2.4917 -3.27452,-11.43957 0.62903,-19.89736 3.83396,-8.30703 10.07621,-12.97817 13.07102,-9.78117 1.42053,1.51644 1.96467,3.37483 1.95424,6.67431 -0.0273,8.64586 -5.89209,20.33052 -11.4779,22.86798 -2.22246,1.0096 -2.89803,1.03163 -4.17639,0.13624 z m 6.68873,-3.31702 c 4.41944,-4.41945 8.01621,-13.29869 8.01621,-19.78939 0,-2.75373 -0.72799,-5.16632 -1.83636,-6.08578 -0.53444,-0.44335 -0.60604,0.0492 -0.47204,3.24732 0.35592,8.49408 -3.78397,18.47984 -9.79415,23.62434 -1.12192,0.96031 -1.6273,1.6603 -1.28185,1.77545 1.34669,0.44889 3.00219,-0.40595 5.36819,-2.77194 z"
     style="fill:#1a1a1a;fill-opacity:1;stroke:none;stroke-width:8.96861;stroke-linejoin:round;stroke-opacity:1" /><path
     transform="scale(0.33333333)"
     id="path2966"
     d="m 239.23933,208.03117 c -3.89277,-4.20038 -1.49635,-16.79575 4.79846,-25.22026 2.00502,-2.68337 5.30582,-5.00822 7.11061,-5.00822 6.06295,0 5.90595,13.25022 -0.27928,23.56962 -3.96778,6.61981 -8.99718,9.49949 -11.62979,6.65886 z m 4.53462,-0.46257 c 3.45286,-1.63849 7.60775,-7.89413 9.64344,-14.51927 1.25321,-4.07853 1.45066,-10.23795 0.39427,-12.29873 -1.19725,-2.33556 -1.59813,-1.82434 -1.41489,1.80433 0.39969,7.91503 -3.59326,17.84891 -9.33212,23.21694 -1.24161,1.16138 -2.25748,2.20441 -2.25748,2.31785 0,0.43792 1.50156,0.17417 2.96678,-0.52112 z"
     style="fill:#1a1a1a;fill-opacity:1;stroke:none;stroke-width:8.96861;stroke-linejoin:round;stroke-opacity:1" /><path
     transform="scale(0.33333333)"
     id="path2968"
     d="m 239.572,136.34671 c -3.58973,-3.02056 -2.81625,-12.11185 1.78708,-21.00477 6.05218,-11.69187 14.2463,-12.53718 14.2463,-1.46966 0,7.74333 -4.82464,18.19443 -10.09544,21.86869 -2.68381,1.87087 -4.24513,2.03015 -5.93794,0.60574 z m 5.36061,-1.22479 c 3.1885,-2.228 6.65545,-7.87396 8.4872,-13.82147 1.34317,-4.36116 1.48068,-10.83675 0.2694,-12.6869 -0.4373,-0.66794 -0.94328,-1.21445 -1.1244,-1.21445 -0.18112,0 -0.25706,1.59087 -0.16876,3.53527 0.33115,7.29214 -3.504,17.15437 -8.68936,22.34499 -1.53079,1.53234 -2.67856,2.89077 -2.5506,3.01874 0.38258,0.38257 2.48114,-0.27102 3.77652,-1.17618 z"
     style="fill:#1a1a1a;fill-opacity:1;stroke:none;stroke-width:8.96861;stroke-linejoin:round;stroke-opacity:1" /></svg>
