<?xml version="1.0" encoding="UTF-8" standalone="no"?>
<svg
   xmlns:dc="http://purl.org/dc/elements/1.1/"
   xmlns:cc="http://creativecommons.org/ns#"
   xmlns:rdf="http://www.w3.org/1999/02/22-rdf-syntax-ns#"
   xmlns:svg="http://www.w3.org/2000/svg"
   xmlns="http://www.w3.org/2000/svg"
   xmlns:sodipodi="http://sodipodi.sourceforge.net/DTD/sodipodi-0.dtd"
   xmlns:inkscape="http://www.inkscape.org/namespaces/inkscape"
   inkscape:version="1.0 (4035a4f, 2020-05-01)"
   sodipodi:docname="exploration.svg"
   id="svg1043"
   version="1.1"
   y="0px"
   x="0px"
   viewBox="0 0 20 20"
   fill="#000000"
   width="300px"
   height="300px">
  <metadata
     id="metadata1049">
    <rdf:RDF>
      <cc:Work
         rdf:about="">
        <dc:format>image/svg+xml</dc:format>
        <dc:type
           rdf:resource="http://purl.org/dc/dcmitype/StillImage" />
      </cc:Work>
    </rdf:RDF>
  </metadata>
  <defs
     id="defs1047" />
  <sodipodi:namedview
     inkscape:current-layer="svg1043"
     inkscape:window-maximized="0"
     inkscape:window-y="23"
     inkscape:window-x="0"
     inkscape:cy="150"
     inkscape:cx="150"
     inkscape:zoom="2.23"
     showgrid="false"
     id="namedview1045"
     inkscape:window-height="845"
     inkscape:window-width="1308"
     inkscape:pageshadow="2"
     inkscape:pageopacity="0"
     guidetolerance="10"
     gridtolerance="10"
     objecttolerance="10"
     borderopacity="1"
     bordercolor="#666666"
     pagecolor="#ffffff" />
  <g
     id="g1041"
     transform="translate(-2 -2)">
    <path
       id="path1027"
       d="M12,2A10,10,0,1,0,22,12,10,10,0,0,0,12,2Zm0,19a9,9,0,1,1,9-9,9,9,0,0,1-9,9Z" />
    <circle
       id="circle1029"
       transform="translate(11.5 19)"
       r="0.5"
       cy="0.5"
       cx="0.5" />
    <circle
       id="circle1031"
       transform="translate(11.5 4)"
       r="0.5"
       cy="0.5"
       cx="0.5" />
    <circle
       id="circle1033"
       transform="translate(19.5 11.5)"
       r="0.5"
       cy="0.5"
       cx="0.5" />
    <circle
       id="circle1035"
       transform="translate(3.5 11.5)"
       r="0.5"
       cy="0.5"
       cx="0.5" />
    <path
       id="path1037"
       d="M12,13.5A1.5,1.5,0,1,0,10.5,12,1.5,1.5,0,0,0,12,13.5Zm0-2a.5.5,0,1,1-.5.5A.5.5,0,0,1,12,11.5Z" />
    <path
       id="path1039"
       d="M16.25,6.07l-7,4a.48.48,0,0,0-.23.29l-2,7a.49.49,0,0,0,.17.53A.51.51,0,0,0,7.5,18a.47.47,0,0,0,.25-.07l7-4a.48.48,0,0,0,.23-.29l2-7a.49.49,0,0,0-.17-.53.5.5,0,0,0-.56-.04Zm-2.17,7.1L8.32,16.46l1.6-5.63,5.76-3.29Z" />
  </g>
  <path
     transform="scale(0.06666667)"
     id="path1612"
     d="m 95.653983,214.97035 c 0.150859,-0.58795 5.463267,-19.34427 11.805357,-41.68071 l 11.53108,-40.6117 42.5698,-24.32628 c 23.41339,-13.379448 42.66469,-24.231386 42.78066,-24.115414 0.11597,0.115973 -5.08628,18.858194 -11.56058,41.649394 l -11.77143,41.43853 -42.31926,24.18545 c -23.2756,13.30199 -42.542165,24.26291 -42.814593,24.35759 -0.317198,0.11024 -0.396685,-0.21228 -0.221034,-0.89686 z M 154.4843,172.19241 c 14.97402,-3.15779 22.50602,-19.10212 15.51611,-32.84573 -5.95771,-11.71411 -21.5598,-15.60255 -32.71497,-8.15342 -10.94266,7.30723 -13.18819,22.74956 -4.84772,33.33738 2.98095,3.78416 8.61619,6.96462 13.90609,7.84839 3.42498,0.57221 4.67846,0.54347 8.14049,-0.18662 z"
     style="fill:#c83737;stroke:#7e7e7b;stroke-width:8.96861;stroke-linejoin:round;stroke-opacity:0" />
  <path
     transform="scale(0.06666667)"
     id="path1614"
     d="M 142.6009,284.5257 C 71.346825,280.51745 15.249701,221.26002 15.249701,150 c 0,-50.833897 28.903575,-97.563839 74.436398,-120.34527 19.281641,-9.647178 38.748121,-14.273067 60.089681,-14.27932 27.26561,-0.008 52.36573,7.562505 74.8879,22.587078 61.92348,41.309256 78.64804,124.749802 37.4218,186.701192 -13.02976,19.58005 -31.13097,35.46074 -52.35954,45.93646 -8.55303,4.2207 -13.28324,6.10437 -21.83356,8.69462 -13.51803,4.09517 -30.53785,6.06088 -45.29148,5.23094 z m 10.44041,-14.96374 c 5.77699,-2.47182 6.23497,-10.94453 0.74303,-13.74631 -6.17271,-3.14907 -13.22346,2.42982 -11.17377,8.84122 1.41318,4.42044 6.24881,6.69441 10.43074,4.90509 z M 86.228628,239.1731 c 5.650354,-2.87739 105.666582,-60.30088 106.676012,-61.24715 0.66033,-0.61901 1.41113,-1.65671 1.66844,-2.30599 0.25731,-0.64927 7.2567,-24.97118 15.5542,-54.04867 16.34746,-57.287573 15.90349,-55.387384 13.6731,-58.519667 -2.16875,-3.045735 -6.52094,-4.011175 -10.02901,-2.224726 -5.65035,2.87739 -105.66658,60.300883 -106.67601,61.247153 -0.66033,0.61901 -1.41113,1.65671 -1.66844,2.30599 -0.25731,0.64927 -7.2567,24.97118 -15.554198,54.04867 -16.345803,57.28175 -15.903206,55.38778 -13.674776,58.51732 2.178175,3.05896 6.508911,4.0205 10.030682,2.22707 z m -51.77211,-82.84336 c 4.667982,-3.32389 4.054232,-10.82898 -1.085004,-13.2677 -1.176463,-0.55827 -2.359075,-0.72791 -4.079784,-0.58521 -4.860794,0.40309 -7.646952,4.36323 -6.683382,9.4995 0.359905,1.91846 2.191257,4.19729 4.051035,5.04087 2.029719,0.92067 6.034618,0.56757 7.797135,-0.68746 z m 239.849152,0.11574 c 2.42006,-1.80683 3.04859,-3.1357 3.04859,-6.44548 0,-3.32285 -0.62687,-4.63741 -3.0875,-6.47453 -1.85125,-1.38217 -6.67997,-1.31432 -8.69395,0.12216 -4.61239,3.28979 -4.12272,10.69912 0.87545,13.24675 2.00603,1.02249 6.2082,0.78242 7.85741,-0.4489 z M 153.78434,44.184343 c 5.49194,-2.80178 5.03396,-11.274488 -0.74303,-13.746299 -6.98786,-2.989905 -13.48995,4.836952 -9.46204,11.389888 1.86723,3.037773 6.68769,4.150845 10.20507,2.356411 z"
     style="fill:#997f7f;stroke:#7e7e7b;stroke-width:8.96861;stroke-linejoin:round;stroke-opacity:0;fill-opacity:1" />
  <path
     transform="scale(0.06666667)"
     id="path1616"
     d="m 146.56852,156.27 c -3.62502,-1.91517 -4.81732,-6.73065 -2.52437,-10.19552 3.89918,-5.89206 13.079,-3.16497 13.079,3.88543 0,5.43384 -5.72955,8.85925 -10.55463,6.31009 z"
     style="fill:#ffff00;stroke:#7e7e7b;stroke-width:8.96861;stroke-linejoin:round;stroke-opacity:0" />
</svg>
