<?xml version="1.0" encoding="UTF-8" standalone="no"?>
<svg
   xmlns:dc="http://purl.org/dc/elements/1.1/"
   xmlns:cc="http://creativecommons.org/ns#"
   xmlns:rdf="http://www.w3.org/1999/02/22-rdf-syntax-ns#"
   xmlns:svg="http://www.w3.org/2000/svg"
   xmlns="http://www.w3.org/2000/svg"
   xmlns:sodipodi="http://sodipodi.sourceforge.net/DTD/sodipodi-0.dtd"
   xmlns:inkscape="http://www.inkscape.org/namespaces/inkscape"
   inkscape:version="1.0 (4035a4f, 2020-05-01)"
   sodipodi:docname="fabric.svg"
   id="svg942"
   version="1.1"
   width="512pt"
   viewBox="0 0 512.001 512"
   height="512pt">
  <metadata
     id="metadata948">
    <rdf:RDF>
      <cc:Work
         rdf:about="">
        <dc:format>image/svg+xml</dc:format>
        <dc:type
           rdf:resource="http://purl.org/dc/dcmitype/StillImage" />
      </cc:Work>
    </rdf:RDF>
  </metadata>
  <defs
     id="defs946" />
  <sodipodi:namedview
     inkscape:current-layer="svg942"
     inkscape:window-maximized="0"
     inkscape:window-y="23"
     inkscape:window-x="0"
     inkscape:cy="341.33333"
     inkscape:cx="341.33333"
     inkscape:zoom="0.97998047"
     showgrid="false"
     id="namedview944"
     inkscape:window-height="900"
     inkscape:window-width="1287"
     inkscape:pageshadow="2"
     inkscape:pageopacity="0"
     guidetolerance="10"
     gridtolerance="10"
     objecttolerance="10"
     borderopacity="1"
     bordercolor="#666666"
     pagecolor="#ffffff" />
  <path
     id="path938"
     d="m162.96875 432.96875c0-10.203125-8.304688-18.507812-18.507812-18.507812h-65.597657c-10.203125 0-18.503906 8.304687-18.503906 18.507812s8.300781 18.503906 18.503906 18.503906h65.597657c10.207031 0 18.507812-8.300781 18.507812-18.503906zm0 0" />
  <path
     id="path940"
     d="m493.894531 235.941406 18.105469-52.359375-18.300781-52.914062 17.996093-66.890625h-289.835937c-7.0625-36.292969-39.074219-63.777344-77.398437-63.777344h-65.597657c-43.484375 0-78.863281 35.378906-78.863281 78.867188v354.101562c0 43.484375 35.378906 78.863281 78.863281 78.863281h432.929688l-18.078125-65.933593 18.285156-52.878907-18.105469-52.359375 18.105469-52.359375zm-415.03125-205.761718h65.597657c26.847656 0 48.6875 21.839843 48.6875 48.6875v292.128906c-13.421876-10.566406-30.324219-16.890625-48.6875-16.890625h-65.597657c-18.363281 0-35.265625 6.324219-48.683593 16.890625v-292.128906c0-26.847657 21.839843-48.6875 48.683593-48.6875zm0 451.472656c-26.84375 0-48.683593-21.839844-48.683593-48.683594 0-26.847656 21.839843-48.6875 48.683593-48.6875h65.597657c26.847656 0 48.6875 21.839844 48.6875 48.6875 0 26.84375-21.839844 48.683594-48.6875 48.683594zm401.203125-193.355469-18.105468 52.363281 18.105468 52.355469-17.929687 51.851563 10.089843 36.785156h-265.792968c10.566406-13.417969 16.890625-30.320313 16.890625-48.683594v-339.015625h249l-10.175781 37.824219 17.917968 51.808594-18.105468 52.355468zm0 0" />
  <path
     transform="matrix(0.75000144,0,0,0.75000144,0,-5e-4)"
     id="path950"
     d="M 40.569347,294.27783 C 40.860361,105.38373 40.973548,94.577907 42.721889,88.77728 49.350271,66.7857 67.473317,48.848744 89.287494,42.689815 c 6.048003,-1.70757 11.311046,-1.872675 59.695066,-1.872675 52.77805,0 53.10327,0.01279 60.7155,2.388699 11.73742,3.663453 19.1183,8.065235 27.6486,16.488995 8.92051,8.809102 14.12079,17.449139 17.18474,28.551722 2.09479,7.590733 2.10637,8.722764 2.10637,205.871444 0,109.03132 -0.26166,198.23875 -0.58146,198.23875 -0.31982,0 -2.53193,-1.34194 -4.91582,-2.98211 -8.81442,-6.06448 -20.40402,-11.25537 -32.70041,-14.64623 -8.08566,-2.22972 -9.31879,-2.27001 -69.45752,-2.27001 -60.62731,0 -61.309194,0.0229 -69.767634,2.33495 -13.314959,3.63967 -26.051407,9.62006 -36.634408,17.20163 l -2.318336,1.66084 z"
     style="fill:#5fbcd3;stroke-width:1.02043" />
  <path
     transform="matrix(0.75000144,0,0,0.75000144,0,-5e-4)"
     id="path952"
     d="m 280.72456,635.62895 c 5.9619,-9.31995 11.44146,-21.67952 14.43343,-32.55571 l 2.80713,-10.20428 0.27431,-233.42302 0.27431,-233.42302 h 165.21402 165.21402 l -3.4913,13.01046 c -1.92023,7.15576 -4.92107,18.37361 -6.66855,24.92857 l -3.17722,11.9181 11.92897,34.4382 11.92897,34.43819 -11.82973,34.25756 c -6.50636,18.84165 -11.82402,34.89338 -11.81703,35.67052 0.007,0.77712 5.33516,16.76321 11.84038,35.52462 l 11.82769,34.11166 -11.84747,34.37473 c -6.51611,18.9061 -11.83856,34.9212 -11.82768,35.58913 0.0109,0.66792 5.33906,16.63625 11.84038,35.48517 l 11.8206,34.27078 -11.92543,34.52665 -11.92541,34.52666 6.57997,24.1227 6.57998,24.12269 H 452.92529 277.07169 Z"
     style="fill:#5fbcd3;stroke-width:1.02043" />
  <path
     transform="matrix(0.75000144,0,0,0.75000144,0,-5e-4)"
     id="path954"
     d="m 88.486031,639.36008 c -11.446703,-3.27283 -19.460525,-8.05564 -28.29522,-16.88716 -8.874988,-8.8718 -13.19233,-15.95298 -16.805021,-27.5631 -2.834628,-9.10966 -3.126455,-23.67648 -0.662919,-33.09021 4.893624,-18.69967 18.561902,-35.05965 35.940877,-43.01875 12.680451,-5.8073 17.306786,-6.17223 73.950242,-5.8333 l 51.47171,0.30798 8.71871,3.12243 c 19.39048,6.94431 33.36812,20.73972 40.52764,39.99929 3.4151,9.18684 4.2488,25.15565 1.84739,35.38534 -4.38417,18.67597 -17.36552,34.79778 -34.90563,43.35 -12.39861,6.04532 -14.01657,6.18223 -72.31168,6.11894 -47.89779,-0.0521 -53.686529,-0.23611 -59.476099,-1.89146 z M 199.7231,601.49606 c 2.09046,-0.58057 5.76401,-2.55102 8.16343,-4.37878 11.90197,-9.06629 13.19208,-26.81202 2.71119,-37.29292 -7.48994,-7.48993 -6.38277,-7.36662 -63.22703,-7.04149 l -50.59244,0.28938 -4.993938,3.08826 c -18.272277,11.29961 -14.185698,39.1019 6.680432,45.44909 4.010816,1.22004 96.831336,1.11596 101.258356,-0.11354 z"
     style="fill:#5fbcd3;stroke-width:1.02043" />
  <path
     transform="matrix(0.75000144,0,0,0.75000144,0,-5e-4)"
     id="path956"
     d="M 89.287494,680.5875 C 44.700881,673.53845 9.7974575,639.04205 2.1588327,594.47489 0.6724885,585.80289 0.51021425,560.92585 0.51021425,341.73757 0.51021425,172.91151 0.84768689,96.192688 1.6145769,90.678952 7.8113877,46.125533 43.179276,9.8829888 88.145624,2.0079726 98.722598,0.15561322 194.36756,-0.17049713 207.32825,1.6016083 248.45718,7.2251324 283.98658,39.570244 294.39927,80.868959 l 1.09345,4.336821 h 192.82164 c 121.3166,0 192.82166,0.360062 192.82166,0.970948 0,0.534022 -5.28704,20.584422 -11.74899,44.556432 l -11.74899,43.58548 12.21746,35.2921 12.21746,35.2921 -12.09206,34.82177 -12.09206,34.82176 12.08704,34.88091 12.08705,34.88091 -11.763,33.87082 c -6.46965,18.62895 -11.77364,34.7892 -11.78666,35.91167 -0.013,1.12247 5.2804,17.3172 11.76315,35.98828 l 11.78682,33.94743 -12.19609,35.25387 -12.19609,35.25385 11.73247,42.73239 c 6.45288,23.5028 11.73249,43.21783 11.73249,43.81117 0,0.75581 -87.29762,1.04919 -291.58744,0.97994 -238.77471,-0.0809 -293.158426,-0.3472 -300.261086,-1.47011 z M 214.02626,639.17313 c 19.77735,-7.69443 33.11344,-21.06818 40.33146,-40.44533 3.42959,-9.20692 4.27336,-26.03221 1.82903,-36.4717 -5.26046,-22.46674 -23.05973,-41.09648 -45.97848,-48.12372 -5.62558,-1.72489 -10.6369,-1.87727 -61.73592,-1.87727 H 92.858994 l -7.653214,2.72347 c -11.677855,4.15567 -17.107529,7.61404 -26.058197,16.59742 -11.575056,11.61737 -17.076476,22.80816 -18.844755,38.33332 -3.079053,27.03351 10.624017,52.71405 34.858253,65.32685 13.561114,7.05795 13.106814,7.0172 75.862339,6.80401 l 56.12357,-0.19065 z m 415.71407,1.40086 c -0.28149,-0.98216 -3.31693,-12.02924 -6.74541,-24.54905 l -6.23361,-22.7633 11.77879,-34.09272 c 6.47833,-18.751 11.77878,-34.59151 11.77878,-35.20113 0,-0.60962 -5.34246,-16.53176 -11.87213,-35.38251 l -11.87214,-34.27411 5.65919,-16.4371 c 3.11255,-9.0404 8.53544,-24.76823 12.05087,-34.95072 l 6.3917,-18.51364 -12.03595,-34.87902 -12.03595,-34.87903 11.85721,-34.40561 c 6.52146,-18.92308 11.8572,-34.91467 11.8572,-35.53687 0,-0.6222 -5.2911,-16.40719 -11.75801,-35.07775 l -11.758,-33.94647 6.65586,-24.76684 c 3.66073,-13.62176 6.65587,-25.02532 6.65587,-25.34123 0,-0.31592 -74.84843,-0.5744 -166.32985,-0.5744 H 297.45491 l -0.006,228.83109 c -0.006,251.08149 0.28089,239.02889 -6.1398,257.40309 -3.44039,9.84539 -7.33434,17.49668 -12.85451,25.25796 -1.89701,2.66718 -3.4491,5.07794 -3.4491,5.35725 0,0.27933 79.93049,0.50786 177.62332,0.50786 168.67975,0 177.59755,-0.0899 177.11152,-1.78575 z M 48.392588,489.85684 c 9.327327,-6.1365 19.597895,-10.74126 31.532032,-14.13725 7.659473,-2.17958 9.182703,-2.22874 69.05794,-2.22874 59.87524,0 61.39847,0.0492 69.05794,2.22874 11.8722,3.37837 22.19267,7.99283 31.34843,14.01646 l 8.26927,5.4404 -0.0151,-199.62809 C 257.62633,73.369319 258.15815,89.808849 250.51215,75.117866 240.0155,54.949667 221.86597,42.753386 198.5802,40.220165 192.0808,39.513105 171.39762,39.265777 141.63667,39.53924 89.67,40.016741 89.374809,40.050608 75.001495,47.184215 64.28639,52.502219 52.263757,64.504598 47.136485,75.002279 c -7.981187,16.34085 -7.286123,-3.77458 -7.607245,220.156661 -0.157947,110.1425 -0.130205,200.2591 0.06165,200.2591 0.191854,0 4.152619,-2.50254 8.801698,-5.5612 z"
     style="fill:#0b2228;stroke-width:0.72;stroke-miterlimit:4;stroke-dasharray:none" />
  <path
     transform="matrix(0.75000144,0,0,0.75000144,0,-5e-4)"
     id="path958"
     d="m 97.458722,600.21847 c -1.960034,-0.63459 -5.93375,-3.46623 -8.830478,-6.29252 -5.57625,-5.44065 -7.496364,-9.898 -7.488519,-17.38385 0.0093,-8.86227 7.93861,-19.56863 16.311197,-22.02376 2.293243,-0.67246 21.313568,-0.93605 53.143548,-0.73648 l 49.57206,0.31082 4.9939,3.08826 c 9.55583,5.90939 13.92495,17.78201 10.16592,27.62487 -2.25937,5.91608 -6.77037,11.10432 -12.16446,13.99073 -4.11949,2.20436 -4.8681,2.23824 -53.1589,2.40579 -34.08195,0.11826 -50.064553,-0.18101 -52.544268,-0.98386 z"
     style="fill:#0b2228;stroke-width:1.02043" />
  <path
     transform="matrix(0.75000144,0,0,0.75000144,0,-5e-4)"
     id="path1521"
     d="M 91.176666,680.10368 C 69.730746,678.05139 45.651876,665.61794 29.451559,648.23107 17.504447,635.40893 9.2072172,620.37022 4.3541366,602.74204 2.2502181,595.09984 2.1739256,592.1741 1.2096035,482.15247 0.57433236,409.67298 0.57181701,318.9111 1.2025618,228.06577 L 2.1838203,86.736423 4.4843102,78.572995 C 13.918972,45.093525 39.137026,18.288828 71.991031,6.8189558 86.793437,1.651193 92.187949,1.2664576 150.5132,1.2187712 c 47.60427,-0.038921 54.53878,0.1590604 62.24614,1.7771367 37.15514,7.8003181 68.06571,36.1490931 79.62517,73.0260151 l 2.71885,8.673643 192.21469,0.814034 c 105.71808,0.447719 192.4328,1.032151 192.69939,1.298737 0.26659,0.266586 -4.74911,20.072733 -11.14599,44.013673 l -11.63069,43.52895 8.48701,24.56144 c 4.66786,13.50879 10.12554,29.43474 12.12817,35.39101 l 3.64116,10.82957 -12.03838,34.76513 -12.03839,34.76512 11.85785,34.12179 c 6.52181,18.76699 11.85784,34.70777 11.85784,35.42394 0,0.71619 -5.05112,15.94392 -11.22471,33.83942 -6.17359,17.8955 -11.22471,34.09547 -11.22471,35.99992 0,1.90447 4.64601,16.92808 10.32448,33.3858 5.67846,16.45774 10.79695,31.54209 11.37441,33.52078 0.95809,3.28297 0.0104,6.59569 -10.8347,37.87353 -6.53655,18.85176 -11.88462,34.9652 -11.88462,35.80767 0,0.84246 5.05112,20.00138 11.22471,42.57538 6.17359,22.57401 11.22472,41.69185 11.22472,42.48411 0,1.23729 -40.98322,1.42032 -290.56702,1.29773 C 229.73672,680.9148 95.46936,680.51446 91.176666,680.10368 Z M 215.52026,638.97537 c 19.03462,-8.02779 31.68969,-20.79066 38.66058,-38.98992 3.65202,-9.53455 4.63137,-29.04748 1.97044,-39.25999 -2.87723,-11.04265 -8.20464,-20.00876 -17.32317,-29.15514 -8.53605,-8.56213 -15.59117,-13.22014 -25.72629,-16.98528 -5.79392,-2.1524 -7.49548,-2.22278 -62.96743,-2.60432 -57.003678,-0.39208 -57.01357,-0.39178 -63.266565,1.89637 -13.136223,4.80691 -18.233197,8.04571 -27.74898,17.6327 -13.127386,13.22561 -18.079651,23.94014 -19.399052,41.97103 -1.86217,25.44833 12.873715,50.82999 36.30213,62.52819 4.770504,2.382 11.199203,4.73168 14.285999,5.22152 3.086796,0.48985 30.716808,0.94431 61.400018,1.00992 l 55.78766,0.11929 z m 413.38838,2.5002 c 1.06741,-0.67683 0.0666,-5.48147 -4.84704,-23.27149 -3.40568,-12.33022 -6.19647,-23.3044 -6.20176,-24.38706 -0.005,-1.08267 5.12649,-17.06157 11.40396,-35.50866 10.88126,-31.97593 11.36089,-33.73677 10.28381,-37.75585 -0.62137,-2.31863 -5.93129,-18.2017 -11.79982,-35.29572 l -10.67006,-31.08002 12.05525,-34.89297 12.05525,-34.89297 -12.06683,-34.8581 -12.06684,-34.85809 10.5761,-30.77798 c 5.81685,-16.92789 11.13154,-32.94521 11.81042,-35.59405 1.22505,-4.77989 1.14649,-5.07081 -10.46087,-38.73773 l -11.69519,-33.92167 6.41292,-24.04482 c 3.5271,-13.22465 6.41376,-24.61882 6.41479,-25.32036 10e-4,-1.01523 -33.94339,-1.27554 -166.32798,-1.27554 H 297.45491 l -10e-4,149.23767 c -0.002,179.1057 -0.78905,296.74138 -2.10056,313.86365 -1.3218,17.25652 -6.95026,32.98533 -17.22424,48.13336 -1.71293,2.52556 -3.11638,4.93632 -3.11879,5.35725 -0.006,1.05766 352.22989,0.93938 353.89879,-0.11885 z M 46.107033,491.87396 c 7.393384,-4.97899 19.896964,-11.13981 29.447759,-14.50961 l 8.120345,-2.8651 h 65.307423 65.30743 l 8.16342,2.8751 c 9.8362,3.46424 21.61668,9.25486 29.15208,14.32952 l 5.54249,3.73254 0.28134,-194.65593 c 0.18037,-124.78351 -0.0866,-198.50192 -0.74367,-205.370415 -0.90546,-9.4647 -1.52309,-11.705229 -5.29494,-19.208003 -8.06542,-16.043372 -21.56332,-27.63898 -39.14158,-33.625283 l -8.16343,-2.780067 h -54.59292 c -60.098738,0 -59.988727,-0.0095 -73.171133,6.342676 -6.304272,3.037843 -9.856776,5.739164 -17.136794,13.030803 C 48.585035,69.786932 43.02058,79.14152 41.203218,89.399708 39.827693,97.163935 38.654752,495.41804 40.007411,495.41804 c 0.460334,0 3.205165,-1.59484 6.099622,-3.54408 z"
     style="fill:#164450;stroke-width:0.734709;stroke-miterlimit:4;stroke-dasharray:none" />
  <path
     transform="matrix(0.75000144,0,0,0.75000144,0,-5e-4)"
     id="path1523"
     d="m 95.410065,598.37346 c -14.893559,-8.92856 -17.989169,-24.62878 -7.264441,-36.84357 6.264265,-7.1346 4.434704,-6.927 61.046476,-6.927 h 50.92254 l 4.73922,3.00552 c 9.81655,6.22548 13.74363,19.1859 8.86629,29.26115 -2.68737,5.55136 -8.90895,11.17292 -13.89905,12.55859 -2.49633,0.69319 -21.33468,1.08332 -52.36918,1.08452 -47.41332,0.002 -48.548243,-0.0448 -52.041855,-2.13921 z"
     style="fill:#164450;stroke-width:0.734709;stroke-miterlimit:4;stroke-dasharray:none" />
  <path
     transform="matrix(0.75000144,0,0,0.75000144,0,-5e-4)"
     id="path1525"
     d="m 280.60916,637.00249 c 5.30151,-8.64979 9.89713,-18.51649 13.58836,-29.17392 l 3.7676,-10.8779 0.54234,-235.20877 c 0.29828,-129.36482 0.64268,-235.32356 0.76532,-235.46387 0.58266,-0.6666 328.79965,-0.15727 328.79065,0.51021 -0.006,0.42093 -2.93937,11.61448 -6.51932,24.87456 l -6.509,24.10923 11.93221,34.44667 11.93222,34.44669 -5.86591,16.95579 c -3.22625,9.32569 -8.51194,24.84598 -11.74598,34.48952 -6.98879,20.83982 -7.77393,14.47279 7.12553,57.78468 l 10.46444,30.41953 -11.52451,33.67627 c -6.33848,18.52195 -11.52451,34.76317 -11.52451,36.0916 0,1.32844 5.05112,17.23644 11.22471,35.35112 6.1736,18.11468 11.22472,33.72496 11.22472,34.68949 0,0.96454 -5.22727,16.88121 -11.61616,35.37037 l -11.61615,33.61666 6.514,23.85642 c 3.58272,13.12101 6.51402,23.97252 6.51402,24.11444 0,0.14192 -78.7776,0.25803 -175.06132,0.25803 H 277.95109 Z"
     style="fill:#2c89a0;stroke-width:0.734709;stroke-miterlimit:4;stroke-dasharray:none" />
  <path
     transform="matrix(0.75000144,0,0,0.75000144,0,-5e-4)"
     id="path1527"
     d="m 41.062229,345.6285 c 0.148463,-80.65472 0.420401,-170.75257 0.604307,-200.21744 l 0.334375,-53.572495 2.72137,-7.001051 C 51.853489,66.491634 66.259496,52.093829 85.005261,44.57747 l 6.833304,-2.739901 h 56.123565 c 52.17869,0 56.51806,0.13435 61.73593,1.911395 17.72933,6.038064 32.24011,18.263028 39.70508,33.450517 2.30234,4.684083 4.5881,10.812477 5.07948,13.618656 1.01437,5.792812 1.771,174.589073 1.38983,310.055363 l -0.25511,90.66324 -3.31639,-2.18328 c -6.42373,-4.22893 -19.33257,-10.36952 -28.62006,-13.61422 l -9.3909,-3.28084 H 149.49278 84.695566 l -7.653214,2.39684 c -13.262614,4.15359 -21.312215,7.94724 -34.196777,16.11637 l -2.05328,1.30183 z"
     style="fill:#2c89a0;stroke-width:0.734709;stroke-miterlimit:4;stroke-dasharray:none" />
  <path
     transform="matrix(0.75000144,0,0,0.75000144,0,-5e-4)"
     id="path1529"
     d="M 88.393344,638.7368 C 74.71699,634.98916 59.311527,623.32207 51.175934,610.55077 40.139576,593.22585 38.587149,569.54556 47.280271,551.12738 c 8.719062,-18.47315 27.619854,-33.34947 46.088937,-36.27542 3.912454,-0.61983 28.045782,-1.05395 58.842562,-1.0585 l 52.20977,-0.008 8.20174,3.13194 c 11.08586,4.2333 18.74656,9.39681 26.6672,17.97442 7.28185,7.88582 12.37677,17.09702 14.8961,26.93094 2.33468,9.11312 1.59215,27.81185 -1.4327,36.07882 -6.41712,17.53819 -20.93805,32.37696 -38.66424,39.51056 l -5.92223,2.3833 -57.14399,0.2222 c -47.6754,0.18538 -58.053025,-0.0269 -62.630076,-1.28113 z M 203.06527,600.65379 c 5.34175,-2.43996 12.31623,-10.11912 13.69263,-15.0761 3.3869,-12.19754 -1.53399,-25.20985 -11.65177,-30.81079 -2.72134,-1.50647 -8.92622,-1.72777 -55.87706,-1.99286 l -52.815786,-0.29821 -4.328217,2.99598 c -8.988747,6.222 -11.98143,11.68152 -11.98143,21.85759 0,10.83314 5.612536,19.3885 15.553732,23.70902 2.715751,1.18029 12.476141,1.44794 53.325191,1.46226 46.27611,0.0162 50.30508,-0.12136 54.08271,-1.84689 z"
     style="fill:#2c89a0;stroke-width:0.734709;stroke-miterlimit:4;stroke-dasharray:none" />
</svg>
