<?xml version="1.0" encoding="UTF-8" standalone="no"?>
<svg
   xmlns:dc="http://purl.org/dc/elements/1.1/"
   xmlns:cc="http://creativecommons.org/ns#"
   xmlns:rdf="http://www.w3.org/1999/02/22-rdf-syntax-ns#"
   xmlns:svg="http://www.w3.org/2000/svg"
   xmlns="http://www.w3.org/2000/svg"
   xmlns:xlink="http://www.w3.org/1999/xlink"
   xmlns:sodipodi="http://sodipodi.sourceforge.net/DTD/sodipodi-0.dtd"
   xmlns:inkscape="http://www.inkscape.org/namespaces/inkscape"
   inkscape:version="1.0 (4035a4f, 2020-05-01)"
   sodipodi:docname="goal.svg"
   id="svg1011"
   xml:space="preserve"
   enable-background="new 0 0 100 100"
   viewBox="0 0 100 100"
   y="0px"
   x="0px"
   version="1.1"
   fill="#000000"
   width="300px"
   height="300px"><metadata
     id="metadata1017"><rdf:RDF><cc:Work
         rdf:about=""><dc:format>image/svg+xml</dc:format><dc:type
           rdf:resource="http://purl.org/dc/dcmitype/StillImage" /></cc:Work></rdf:RDF></metadata><defs
     id="defs1015" /><sodipodi:namedview
     inkscape:current-layer="svg1011"
     inkscape:window-maximized="0"
     inkscape:window-y="23"
     inkscape:window-x="0"
     inkscape:cy="150"
     inkscape:cx="150"
     inkscape:zoom="2.3733333"
     showgrid="false"
     id="namedview1013"
     inkscape:window-height="828"
     inkscape:window-width="1246"
     inkscape:pageshadow="2"
     inkscape:pageopacity="0"
     guidetolerance="10"
     gridtolerance="10"
     objecttolerance="10"
     borderopacity="1"
     bordercolor="#666666"
     pagecolor="#ffffff" /><symbol
     id="symbol950"
     viewBox="-27.299 -39.024 54.598 78.047"><path
       id="path946"
       d="M11.157,34.02c-1.275-1.85-3.408-3.026-5.733-3.026c-2.13,0-4.118,0.985-5.424,2.607   c-1.306-1.622-3.294-2.607-5.423-2.607c-2.325,0-4.457,1.176-5.734,3.026c-1.275-1.85-3.408-3.026-5.733-3.026   c-1.913,0-3.648,0.776-4.908,2.029v-66.474c1.26,1.253,2.995,2.029,4.908,2.029c2.325,0,4.458-1.176,5.733-3.026   c1.277,1.85,3.409,3.026,5.734,3.026c2.129,0,4.117-0.986,5.423-2.607c1.306,1.622,3.294,2.607,5.424,2.607   c2.325,0,4.458-1.176,5.733-3.026c1.277,1.85,3.409,3.026,5.734,3.026c1.913,0,3.647-0.776,4.907-2.028v66.473   c-1.26-1.253-2.994-2.028-4.907-2.028C14.567,30.995,12.435,32.17,11.157,34.02z"
       fill="none" /><path
       id="path948"
       d="M-20.463-37.524   c0.391,1.615,1.839,2.822,3.573,2.822c1.733,0,3.181-1.207,3.572-2.822h4.323c0.391,1.615,1.839,2.822,3.573,2.822   s3.182-1.207,3.573-2.822h3.701c0.391,1.615,1.839,2.822,3.573,2.822s3.182-1.207,3.573-2.822h4.322   c0.391,1.615,1.839,2.822,3.573,2.822s3.182-1.207,3.573-2.822h5.335v75.047h-5.266c-0.219-1.825-1.759-3.25-3.641-3.25   s-3.423,1.425-3.641,3.25H9.065c-0.219-1.825-1.759-3.25-3.641-3.25s-3.423,1.425-3.641,3.25h-3.564   c-0.219-1.825-1.759-3.25-3.641-3.25s-3.423,1.425-3.641,3.25h-4.186c-0.219-1.825-1.758-3.25-3.641-3.25   c-1.883,0-3.423,1.425-3.641,3.25h-5.267v-75.047H-20.463z"
       stroke-miterlimit="10"
       stroke-width="3"
       stroke="#000000"
       fill="#000000" /></symbol><symbol
     id="symbol956"
     viewBox="-30.282 -48.056 60.563 94.113"><path
       id="path952"
       d="M16.006,43.056   c-3.233-4.883-8.77-8.108-15.065-8.108s-11.832,3.225-15.065,8.108h-10.584v-88.113h10.584c3.233,4.883,8.77,8.108,15.065,8.108   s11.832-3.224,15.065-8.108H26.59v88.113H16.006z"
       stroke-miterlimit="10"
       stroke-width="6"
       stroke="#000000"
       fill="#000000" /><line
       id="line954"
       y2="-20.755"
       x2="-27.782"
       y1="-20.755"
       x1="27.781"
       stroke-dasharray="7,8"
       stroke-miterlimit="10"
       stroke-linejoin="round"
       stroke-linecap="round"
       stroke-width="5"
       stroke="#000000"
       fill="none" /></symbol><symbol
     id="symbol962"
     viewBox="-24.712 -42.834 54.356 85.667"><path
       id="path958"
       d="M17.181,40.333h-4.475   c-0.466-2.355-2.539-4.131-5.031-4.131c-2.491,0-4.565,1.776-5.03,4.131h-4.883c-0.466-2.355-2.539-4.131-5.031-4.131   c-2.491,0-4.565,1.776-5.03,4.131h-4.883c-0.466-2.355-2.539-4.131-5.03-4.131v-72.023c2.622,0,4.76-1.974,5.069-4.512h4.806   c0.309,2.539,2.447,4.512,5.069,4.512c2.622,0,4.76-1.974,5.069-4.512h4.806c0.309,2.539,2.447,4.512,5.069,4.512   c2.622,0,4.76-1.974,5.069-4.512h4.398c0.309,2.539,2.447,4.512,5.069,4.512v72.023C19.72,36.202,17.647,37.978,17.181,40.333z"
       stroke-miterlimit="10"
       stroke-width="5"
       stroke="#000000"
       fill="#000000" /><line
       id="line960"
       y2="-17.395"
       x2="27.644"
       y1="-17.395"
       x1="-22.644"
       stroke-dasharray="7,6"
       stroke-miterlimit="10"
       stroke-linejoin="round"
       stroke-linecap="round"
       stroke-width="4"
       stroke="#000000"
       fill="none" /></symbol><symbol
     id="symbol970"
     viewBox="-23.971 -42.094 47.944 84.188"><g
       id="g966"><path
         id="path964"
         d="M17.182,40.333h-4.475    c-0.466-2.355-2.539-4.131-5.031-4.131c-2.491,0-4.565,1.776-5.03,4.131h-4.883c-0.466-2.355-2.539-4.131-5.031-4.131    c-2.491,0-4.565,1.776-5.03,4.131h-4.883c-0.466-2.355-2.539-4.131-5.03-4.131v-72.023c2.622,0,4.76-1.974,5.069-4.512h4.806    c0.309,2.539,2.447,4.512,5.069,4.512c2.622,0,4.76-1.974,5.069-4.512h4.806c0.309,2.539,2.447,4.512,5.069,4.512    c2.622,0,4.76-1.974,5.069-4.512h4.398c0.309,2.539,2.447,4.512,5.069,4.512v72.023C19.721,36.202,17.648,37.978,17.182,40.333z"
         stroke-miterlimit="10"
         stroke-width="3.521"
         stroke="#000000"
         fill="#000000" /></g><polygon
       id="polygon968"
       points="5.14,17.02 11.952,13.853    8.431,7.217 7.524,-0.241 0.124,1.057 -7.248,-0.385 -8.301,7.053 -11.951,13.62 -5.201,16.919 -0.084,22.42  "
       stroke-miterlimit="10"
       stroke-width="3.8113"
       stroke="#000000"
       fill="#000000" /></symbol><symbol
     viewBox="-21.087 -31.266 42.17 72.87"
     id="a"><path
       id="path972"
       d="M6.373,39.104h5.21c0-3.87,3.13-7,7-7v-53.87   c-3.87,0-7-3.14-7-7h-5.21"
       stroke-miterlimit="10"
       stroke-width="5"
       stroke="#000000"
       fill="#000000" /><path
       id="path974"
       d="M-6.377-28.766h-5.21c0,3.86-3.13,7-7,7v53.87   c3.87,0,7,3.13,7,7h5.21"
       stroke-miterlimit="10"
       stroke-width="5"
       stroke="#000000"
       fill="#000000" /><line
       id="line976"
       y2="39.104"
       x2="-2.377"
       y1="39.104"
       x1="2.373"
       stroke-miterlimit="10"
       stroke-width="5"
       stroke="#000000"
       fill="none" /><line
       id="line978"
       y2="-28.766"
       x2="-2.377"
       y1="-28.766"
       x1="2.373"
       stroke-miterlimit="10"
       stroke-width="5"
       stroke="#000000"
       fill="none" /><g
       id="g988"><path
         id="path980"
         d="M-9.901-10.118c0-0.994-0.806-1.8-1.8-1.8    s-1.8,0.806-1.8,1.8s0.806,1.8,1.8,1.8S-9.901-9.124-9.901-10.118z"
         stroke-miterlimit="10"
         stroke-width="0.9"
         stroke="#000000" /><path
         id="path982"
         d="M-2.101-10.118c0-0.994-0.806-1.8-1.8-1.8    s-1.8,0.806-1.8,1.8s0.806,1.8,1.8,1.8S-2.101-9.124-2.101-10.118z"
         stroke-miterlimit="10"
         stroke-width="0.9"
         stroke="#000000" /><path
         id="path984"
         d="M5.699-10.118c0-0.994-0.806-1.8-1.8-1.8s-1.8,0.806-1.8,1.8    s0.806,1.8,1.8,1.8S5.699-9.124,5.699-10.118z"
         stroke-miterlimit="10"
         stroke-width="0.9"
         stroke="#000000" /><path
         id="path986"
         d="M13.499-10.118c0-0.994-0.806-1.8-1.8-1.8    s-1.8,0.806-1.8,1.8s0.806,1.8,1.8,1.8S13.499-9.124,13.499-10.118z"
         stroke-miterlimit="10"
         stroke-width="0.9"
         stroke="#000000" /></g></symbol><symbol
     id="symbol995"
     viewBox="-21.086 -31.266 42.17 72.87"><use
       id="use991"
       overflow="visible"
       transform="matrix(1 0 0 1 6.996482e-004 -2.671033e-004)"
       y="-31.266"
       x="-21.087"
       height="72.87"
       width="42.17"
       xlink:href="#a" /><line
       id="line993"
       y2="13.75"
       x2="-9.223"
       y1="13.75"
       x1="9.224"
       stroke-miterlimit="10"
       stroke-width="4"
       stroke="#000000"
       fill="none" /></symbol><g
     id="g999"
     display="none"><path
       id="path997"
       d="M588.792,714.743H-649.006c-2.084,0-3.789-1.705-3.789-3.789V-476.211   c0-2.084,1.705-3.789,3.789-3.789H588.792c2.084,0,3.789,1.705,3.789,3.789V710.954   C592.582,713.038,590.877,714.743,588.792,714.743z"
       fill="#000000"
       display="inline" /></g><g
     id="g1009"><path
       id="path1001"
       d="M23.774,8.823c-1.985,0-3.599,1.615-3.599,3.599s1.615,3.6,3.599,3.6s3.6-1.615,3.6-3.6   S25.759,8.823,23.774,8.823z"
       fill="none" /><path
       id="path1003"
       d="M59.422,26.871l4.572,20.316c0.144,0.64-0.05,1.31-0.515,1.773c-0.465,0.463-1.138,0.654-1.775,0.51   c-2.82-0.644-5.823-0.739-8.944-0.297l1.022,4.254c10.964,0.541,22.189-5.069,25.777-7.045l-5.444-23.908   C69.282,24.816,64.078,26.134,59.422,26.871z"
       fill="none" /><path
       id="path1005"
       d="M59.64,45.248l-5.304-23.57c-3.998-0.232-16.088-0.435-25.648,4.425l4.767,27.261   c2.845-2.067,9.147-6.095,16.91-7.664C53.556,45.063,56.664,44.912,59.64,45.248z"
       fill="none" /><path
       id="path1007"
       d="M77.292,19.201c-0.134-0.59-0.54-1.082-1.094-1.325c-0.555-0.244-1.192-0.211-1.716,0.089   c-5.016,2.86-10.809,4.364-15.906,5.146l-0.822-3.653c-0.18-0.797-0.846-1.392-1.658-1.48C55.427,17.905,40.402,16.37,28,22.172   l-0.576-3.294c2.249-1.277,3.772-3.69,3.772-6.455c0-4.093-3.33-7.422-7.423-7.422c-4.092,0-7.422,3.329-7.422,7.422   c0,4.072,3.297,7.386,7.361,7.419L36.58,93.418C36.742,94.346,37.548,95,38.46,95c0.109,0,0.22-0.01,0.331-0.029   c1.04-0.182,1.735-1.172,1.553-2.212l-6.167-35.268c0.189-0.068,0.371-0.161,0.537-0.292c1.159-0.912,6.909-5.215,14.304-7.242   l1.374,5.719c0.19,0.792,0.861,1.377,1.672,1.456c1.088,0.106,2.174,0.155,3.26,0.155c13.775,0,26.827-7.961,27.417-8.326   c0.694-0.429,1.04-1.253,0.859-2.05L77.292,19.201z M23.774,16.022c-1.985,0-3.599-1.615-3.599-3.6s1.615-3.599,3.599-3.599   s3.6,1.615,3.6,3.599S25.759,16.022,23.774,16.022z M50.365,45.7c-7.763,1.569-14.066,5.597-16.91,7.664l-4.767-27.261   c9.56-4.859,21.649-4.657,25.648-4.425l5.304,23.57C56.664,44.912,53.556,45.063,50.365,45.7z M53.783,53.427l-1.022-4.254   c3.12-0.442,6.123-0.347,8.944,0.297c0.637,0.144,1.31-0.046,1.775-0.51c0.465-0.463,0.659-1.133,0.515-1.773l-4.572-20.316   c4.656-0.737,9.86-2.055,14.694-4.398l5.444,23.908C75.972,48.357,64.746,53.968,53.783,53.427z" /></g><path
     transform="scale(0.33333333)"
     id="path1019"
     d="M 93.593711,119.97893 C 89.802797,98.25316 86.609539,79.981937 86.497583,79.376215 c -0.194462,-1.0521 0.02509,-1.197878 4.913396,-3.262352 12.199041,-5.152012 24.163121,-8.147645 40.049691,-10.027864 4.41638,-0.52269 9.60987,-0.730555 18.73988,-0.750046 l 12.63033,-0.02696 7.89164,34.971907 c 4.34041,19.23455 7.90011,34.97191 7.91046,34.97191 0.0104,0 -4.01035,0.003 -8.93489,0.005 -10.10078,0.006 -15.02618,0.60542 -24.12065,2.9363 -13.65326,3.49928 -28.12232,10.11821 -41.17223,18.8344 -2.01885,1.3484 -3.7265,2.45165 -3.79478,2.45165 -0.0683,0 -3.225805,-17.77563 -7.016719,-39.50141 z"
     style="fill:#ffd42a;stroke:#7e7e7b;stroke-width:8.42697;stroke-linejoin:round;stroke-opacity:0" /><path
     transform="scale(0.33333333)"
     id="path1021"
     d="m 162.15817,160.04114 c -0.50865,-0.13517 -1.07193,-1.77511 -2.11788,-6.16601 l -1.42494,-5.98187 1.27519,-0.3518 c 0.70136,-0.19349 4.97252,-0.36026 9.49148,-0.3706 6.36814,-0.0146 9.21146,0.16397 12.64045,0.79376 5.35813,0.98412 6.84929,0.76287 8.73627,-1.29617 1.15122,-1.2562 1.3761,-1.82965 1.37616,-3.50917 4e-5,-1.10418 -3.04609,-15.53626 -6.76916,-32.0713 -3.72308,-16.535034 -6.70942,-30.117275 -6.63631,-30.182756 0.0731,-0.06548 2.78742,-0.630056 6.03181,-1.25461 11.5481,-2.223049 22.87412,-5.592075 32.57076,-9.688469 2.61897,-1.106399 4.81811,-1.942353 4.88697,-1.857676 0.0689,0.08468 3.67094,15.796514 8.00461,34.915191 4.33367,19.11868 7.96699,35.05925 8.07404,35.42348 0.14798,0.5035 -1.70023,1.57941 -7.7102,4.48839 -20.75612,10.04652 -39.73853,15.61476 -57.83461,16.96502 -5.76595,0.43024 -9.33633,0.47896 -10.59464,0.14459 z"
     style="fill:#ffd42a;stroke:#7e7e7b;stroke-width:8.42697;stroke-linejoin:round;stroke-opacity:0" /><path
     transform="scale(0.33333333)"
     id="path1023"
     d="m 68.000411,47.290042 c -4.737413,-1.87988 -7.785046,-6.646443 -7.160932,-11.199849 0.972688,-7.096539 8.446124,-11.300565 14.815974,-8.33442 8.093986,3.768996 8.123429,14.909929 0.05044,19.084636 -1.674968,0.86616 -6.017262,1.119543 -7.705477,0.449633 z"
     style="fill:#ffd42a;stroke:#7e7e7b;stroke-width:8.42697;stroke-linejoin:round;stroke-opacity:0" /></svg>
