<?xml version="1.0" encoding="UTF-8" standalone="no"?>
<svg
   xmlns:dc="http://purl.org/dc/elements/1.1/"
   xmlns:cc="http://creativecommons.org/ns#"
   xmlns:rdf="http://www.w3.org/1999/02/22-rdf-syntax-ns#"
   xmlns:svg="http://www.w3.org/2000/svg"
   xmlns="http://www.w3.org/2000/svg"
   xmlns:sodipodi="http://sodipodi.sourceforge.net/DTD/sodipodi-0.dtd"
   xmlns:inkscape="http://www.inkscape.org/namespaces/inkscape"
   inkscape:version="1.0 (4035a4f, 2020-05-01)"
   sodipodi:docname="market.svg"
   id="svg897"
   viewBox="0 0 100 100"
   y="0px"
   x="0px"
   version="1.1"
   fill="#000000"
   width="300px"
   height="300px">
  <metadata
     id="metadata903">
    <rdf:RDF>
      <cc:Work
         rdf:about="">
        <dc:format>image/svg+xml</dc:format>
        <dc:type
           rdf:resource="http://purl.org/dc/dcmitype/StillImage" />
      </cc:Work>
    </rdf:RDF>
  </metadata>
  <defs
     id="defs901" />
  <sodipodi:namedview
     inkscape:current-layer="svg897"
     inkscape:window-maximized="0"
     inkscape:window-y="23"
     inkscape:window-x="0"
     inkscape:cy="150"
     inkscape:cx="150"
     inkscape:zoom="2.3733333"
     showgrid="false"
     id="namedview899"
     inkscape:window-height="870"
     inkscape:window-width="1415"
     inkscape:pageshadow="2"
     inkscape:pageopacity="0"
     guidetolerance="10"
     gridtolerance="10"
     objecttolerance="10"
     borderopacity="1"
     bordercolor="#666666"
     pagecolor="#ffffff" />
  <g
     id="g895"
     transform="translate(0,-952.36218)">
    <path
       id="path889"
       overflow="visible"
       display="inline"
       visibility="visible"
       marker="none"
       stroke="none"
       fill-opacity="1"
       fill="#000000"
       d="m 22.8266,1002.2193 c -1.0471,10e-5 -1.9999,0.9528 -1.9999,2 l 0,22.2894 c 0,1.0472 0.9528,1.9999 1.9999,2 l 54.3286,0 c 1.0472,0 2,-0.9528 2,-2 l 0,-22.2894 c 0,-1.0472 -0.9528,-2 -2,-2 z m 2,3.9999 50.3287,0 0,18.2896 -50.3287,0 z"
       style="text-indent:0;text-transform:none;direction:ltr;block-progression:tb;baseline-shift:baseline;color:#000000;enable-background:accumulate;" />
    <path
       id="path891"
       overflow="visible"
       display="inline"
       visibility="visible"
       marker="none"
       stroke="none"
       fill-opacity="1"
       fill="#000000"
       d="m 49.9985,958.36227 c -16.9127,0 -34.0745,7.03753 -40.75,21.59375 -0.3504,0.62718 -0.4347,1.16055 -0.436,1.49985 l 0,10.625 c 0,3.64177 2.54,6.58174 5.9063,7.65625 l 0,44.62498 c 0,1.0472 0.9528,2 2,2 l 66.5625,0 c 1.0472,0 2,-0.9528 2,-2 l 0,-44.62498 c 3.3663,-1.07451 5.9062,-4.01448 5.9062,-7.65625 l 0,-10.8125 c 0,-0.42579 -0.2927,-0.91873 -0.4677,-1.2811 -6.6627,-14.57274 -23.7969,-21.625 -40.7187,-21.625 z m 0,4 c 14.7691,0 29.1812,5.85296 35.75,16.90625 l -71.5,0 c 6.5729,-11.05362 20.9808,-16.90625 35.75,-16.90625 z m -37.1876,20.90625 9.0626,0 0,8.8125 c 0,2.24705 -1.9738,4.1875 -4.5313,4.1875 -2.5575,0 -4.5313,-1.94041 -4.5313,-4.1875 z m 13.0626,0 9.0624,0 0,8.8125 c 0,2.24709 -1.9608,4.1875 -4.5312,4.1875 -2.5575,0 -4.5312,-1.94041 -4.5312,-4.1875 z m 13.0624,0 9.0626,0 0,8.8125 c 0,2.24709 -1.9738,4.1875 -4.5313,4.1875 -2.5704,0 -4.5313,-1.93653 -4.5313,-4.1875 z m 13.0626,0 9.0624,0 0,8.8125 c 0,2.24709 -1.9736,4.1875 -4.5312,4.1875 -2.5575,0 -4.5312,-1.94041 -4.5312,-4.1875 z m 13.0624,0 9.0626,0 0,8.8125 c 0,2.24705 -1.9738,4.1875 -4.5313,4.1875 -2.5575,0 -4.5313,-1.94041 -4.5313,-4.1875 z m 13.0626,0 9.0624,0 0,8.8125 c 0,2.24709 -1.9737,4.1875 -4.5312,4.1875 -2.5575,0 -4.5312,-1.94041 -4.5312,-4.1875 z m -54.25,13.84375 c 1.5786,1.86898 3.8863,3.15623 6.5312,3.15623 2.649,0 4.9511,-1.28725 6.5312,-3.15623 1.5774,1.86934 3.8823,3.15623 6.5313,3.15623 2.6449,0 4.9526,-1.28725 6.5313,-3.15623 1.5786,1.86898 3.8863,3.15623 6.5312,3.15623 2.6449,0 4.9526,-1.28725 6.5312,-3.15623 1.5787,1.86898 3.8864,3.15623 6.5313,3.15623 2.6449,0 4.9526,-1.28726 6.5313,-3.15623 1.2893,1.5265 3.0824,2.53342 5.1562,2.875 l 0,42.37503 -62.5625,0 0,-42.37503 c 2.0738,-0.34158 3.8669,-1.34851 5.1563,-2.875 z"
       style="text-indent:0;text-transform:none;direction:ltr;block-progression:tb;baseline-shift:baseline;color:#000000;enable-background:accumulate;" />
    <path
       id="path893"
       overflow="visible"
       display="inline"
       visibility="visible"
       marker="none"
       stroke="none"
       fill-opacity="1"
       fill="#000000"
       d="m 22.6235,1030.6123 c -1.0472,0.057 -1.9479,1.0621 -1.8906,2.1093 0.057,1.0472 1.0621,1.9479 2.1093,1.8907 l 54.3125,0 c 1.0487,0 2.0045,-0.9513 2.0045,-2 0,-1.0487 -0.9558,-2.0024 -2.0045,-2 l -54.3125,0 c -0.073,0 -0.1459,0 -0.2187,0 z"
       style="text-indent:0;text-transform:none;direction:ltr;block-progression:tb;baseline-shift:baseline;color:#000000;enable-background:accumulate;" />
  </g>
  <path
     transform="scale(0.33333333)"
     id="path905"
     d="m 47.561278,130.78369 c -3.184024,-1.10409 -5.868421,-3.42995 -7.421668,-6.43042 l -1.375565,-2.65724 V 107.40701 93.117978 h 13.272472 13.272472 v 14.258542 14.25855 l -1.288495,2.5785 c -1.430325,2.86233 -2.838794,4.22997 -6.039829,5.86471 -2.741177,1.3999 -7.4895,1.72136 -10.419387,0.70541 z"
     style="fill:#f2f2f2;stroke:#7e7e7b;stroke-width:8.42697;stroke-linejoin:round;stroke-opacity:0" />
  <path
     transform="scale(0.33333333)"
     id="path907"
     d="m 86.746671,130.75859 c -3.153011,-1.05269 -5.860365,-3.38929 -7.421668,-6.40532 l -1.375565,-2.65724 V 107.40701 93.117978 h 13.272472 13.27247 v 14.289032 14.28902 l -1.37556,2.65724 c -2.98804,5.77211 -10.023932,8.52478 -16.372149,6.40532 z"
     style="fill:#f2f2f2;stroke:#7e7e7b;stroke-width:8.42697;stroke-linejoin:round;stroke-opacity:0" />
  <path
     transform="scale(0.33333333)"
     id="path909"
     d="m 125.93206,130.75859 c -3.15301,-1.05269 -5.86036,-3.38929 -7.42166,-6.40532 l -1.37557,-2.65724 V 107.40701 93.117978 h 13.27247 13.27248 v 14.289032 14.28902 l -1.37557,2.65724 c -2.98803,5.77211 -10.02393,8.52478 -16.37215,6.40532 z"
     style="fill:#f2f2f2;stroke:#7e7e7b;stroke-width:8.42697;stroke-linejoin:round;stroke-opacity:0" />
  <path
     transform="scale(0.33333333)"
     id="path911"
     d="m 165.11746,130.75859 c -3.15301,-1.05269 -5.86037,-3.38929 -7.42167,-6.40532 l -1.37557,-2.65724 V 107.40701 93.117978 h 13.27248 13.27247 v 14.289032 14.28902 l -1.37557,2.65724 c -2.98803,5.77211 -10.02393,8.52478 -16.37214,6.40532 z"
     style="fill:#f2f2f2;stroke:#7e7e7b;stroke-width:8.42697;stroke-linejoin:round;stroke-opacity:0" />
  <path
     transform="scale(0.33333333)"
     id="path913"
     d="m 204.30285,130.75859 c -3.15301,-1.05269 -5.86036,-3.38929 -7.42167,-6.40532 l -1.37556,-2.65724 V 107.40701 93.117978 h 13.27247 13.27247 v 14.289032 14.28902 l -1.37556,2.65724 c -2.98804,5.77211 -10.02393,8.52478 -16.37215,6.40532 z"
     style="fill:#f2f2f2;stroke:#7e7e7b;stroke-width:8.42697;stroke-linejoin:round;stroke-opacity:0" />
  <path
     transform="scale(0.33333333)"
     id="path915"
     d="m 243.48824,130.75859 c -3.15301,-1.05269 -5.86036,-3.38929 -7.42166,-6.40532 l -1.37557,-2.65724 V 107.40701 93.117978 h 13.27247 13.27248 v 14.289032 14.28902 l -1.37557,2.65724 c -2.98803,5.77211 -10.02393,8.52478 -16.37215,6.40532 z"
     style="fill:#f2f2f2;stroke:#7e7e7b;stroke-width:8.42697;stroke-linejoin:round;stroke-opacity:0" />
  <path
     transform="scale(0.33333333)"
     id="path917"
     d="m 43.398876,80.247826 c 0,-0.126337 0.967859,-1.664006 2.150797,-3.417047 C 62.885217,51.140616 96.7451,34.096511 137.14888,30.72234 c 7.50785,-0.626991 26.02889,-0.255844 32.65449,0.65437 26.40847,3.627954 47.23588,11.581589 64.79847,24.745436 4.68561,3.51205 12.7829,11.383075 16.16957,15.717742 2.43568,3.117463 5.82971,8.010156 5.82971,8.403847 0,0.128587 -47.9705,0.233793 -106.60112,0.233793 -58.630618,0 -106.601124,-0.103365 -106.601124,-0.229702 z"
     style="fill:#efe8b9;stroke:#7e7e7b;stroke-width:8.42697;stroke-linejoin:round;stroke-opacity:0;fill-opacity:1" />
  <path
     transform="scale(0.33333333)"
     id="path919"
     d="M 56.460674,206.34971 V 143.0365 l 2.212079,-0.51792 c 3.364402,-0.78772 8.016875,-3.25717 10.621632,-5.63778 l 2.338205,-2.13698 2.47401,2.29049 c 3.111594,2.88079 5.37235,4.20851 9.577326,5.62466 4.70626,1.58497 10.359912,1.58828 15.04971,0.009 3.859824,-1.29994 7.289764,-3.36313 10.056484,-6.04919 l 1.97832,-1.92065 2.49878,2.31344 c 5.01413,4.64219 10.3964,6.76721 17.14008,6.76721 6.64863,0 12.18437,-2.17909 17.10219,-6.73212 L 150,134.74069 l 2.4757,2.29206 c 4.98987,4.61974 10.38467,6.74584 17.117,6.74584 6.73232,0 12.12712,-2.1261 17.11699,-6.74584 l 2.4757,-2.29206 2.4757,2.29206 c 4.98987,4.61974 10.38468,6.74584 17.117,6.74584 6.73149,0 12.12721,-2.12618 17.11531,-6.74428 l 2.47401,-2.29049 2.33821,2.13698 c 2.60475,2.38061 7.25722,4.85006 10.62163,5.63778 l 2.21208,0.51792 v 63.31321 63.31321 H 150 56.460674 Z M 234.23971,246.1721 c 2.01368,-1.0268 3.06712,-2.64418 3.27235,-5.02414 0.20791,-2.41096 -0.78053,-4.31053 -2.92253,-5.61653 -1.35805,-0.82801 -2.29658,-0.83729 -84.84323,-0.83884 l -83.469994,-0.002 -1.431692,0.95643 c -3.951795,2.63997 -3.643569,8.4919 0.556306,10.56194 1.259442,0.62075 8.786994,0.68234 84.38841,0.69049 78.20335,0.008 83.0892,-0.0337 84.45038,-0.72777 z m 0.31511,-18.47208 c 0.65426,-0.48479 1.61618,-1.50827 2.1376,-2.27439 l 0.94803,-1.39295 v -34.93052 c 0,-38.31 0.14255,-36.15829 -2.54529,-38.41995 l -1.3115,-1.10356 H 149.98233 66.181008 l -1.437459,1.26211 c -0.790602,0.69416 -1.65372,1.78439 -1.91804,2.42275 -0.34992,0.84509 -0.449954,10.7261 -0.367932,36.34323 0.110227,34.42672 0.130752,35.20727 0.955344,36.33139 0.463483,0.63184 1.601124,1.53336 2.52809,2.00336 1.678381,0.851 2.030191,0.85411 84.554819,0.74727 l 82.86942,-0.1073 z"
     style="fill:#efe8b9;fill-opacity:1;stroke:#7e7e7b;stroke-width:8.42697;stroke-linejoin:round;stroke-opacity:0" />
  <path
     transform="scale(0.33333333)"
     id="path921"
     d="m 47.347775,130.55242 c -2.445855,-0.83176 -5.354891,-3.43636 -7.001962,-6.26917 l -1.581768,-2.72051 V 107.34036 93.117978 h 13.272472 13.272472 v 14.129172 14.12918 l -1.137658,2.19807 c -0.625711,1.20894 -1.135677,2.29288 -1.133258,2.40875 0.0057,0.27462 -2.533698,2.69374 -3.032972,2.88927 -0.211373,0.0828 -1.142741,0.5445 -2.069708,1.02603 -1.952543,1.01429 -8.363623,1.41029 -10.587618,0.65397 z"
     style="fill:#8ccceb;fill-opacity:1;stroke:#7e7e7b;stroke-width:8.42697;stroke-linejoin:round;stroke-opacity:0" />
  <path
     transform="scale(0.33333333)"
     id="path923"
     d="m 88.595734,131.02852 c -4.046047,-0.82606 -7.019569,-3.06532 -9.165146,-6.90197 l -1.48115,-2.64854 V 107.29799 93.117978 h 13.272472 13.27247 v 14.131952 c 0,13.56122 -0.0361,14.2036 -0.8935,15.9059 -2.95966,5.87605 -9.073421,9.08374 -15.005146,7.87269 z"
     style="fill:#8ccceb;fill-opacity:1;stroke:#7e7e7b;stroke-width:8.42697;stroke-linejoin:round;stroke-opacity:0" />
  <path
     transform="scale(0.33333333)"
     id="path925"
     d="m 127.78113,131.02852 c -4.04605,-0.82606 -7.01957,-3.06532 -9.16515,-6.90197 l -1.48115,-2.64854 V 107.29799 93.117978 h 13.27247 13.27248 v 14.131952 c 0,13.56122 -0.0361,14.2036 -0.89351,15.9059 -2.95966,5.87605 -9.07342,9.08374 -15.00514,7.87269 z"
     style="fill:#8ccceb;fill-opacity:1;stroke:#7e7e7b;stroke-width:8.42697;stroke-linejoin:round;stroke-opacity:0" />
  <path
     transform="scale(0.33333333)"
     id="path927"
     d="m 166.96652,131.02852 c -4.04605,-0.82606 -7.01957,-3.06532 -9.16515,-6.90197 l -1.48115,-2.64854 V 107.29799 93.117978 h 13.27248 13.27247 v 14.131952 c 0,13.56122 -0.0361,14.2036 -0.8935,15.9059 -2.95966,5.87605 -9.07342,9.08374 -15.00515,7.87269 z"
     style="fill:#8ccceb;fill-opacity:1;stroke:#7e7e7b;stroke-width:8.42697;stroke-linejoin:round;stroke-opacity:0" />
  <path
     transform="scale(0.33333333)"
     id="path929"
     d="m 206.15191,131.02852 c -4.04604,-0.82606 -7.01957,-3.06532 -9.16514,-6.90197 l -1.48115,-2.64854 V 107.29799 93.117978 h 13.27247 13.27247 v 14.131952 c 0,13.56122 -0.0361,14.2036 -0.8935,15.9059 -2.95966,5.87605 -9.07342,9.08374 -15.00515,7.87269 z"
     style="fill:#8ccceb;fill-opacity:1;stroke:#7e7e7b;stroke-width:8.42697;stroke-linejoin:round;stroke-opacity:0" />
  <path
     transform="scale(0.33333333)"
     id="path931"
     d="m 245.33731,131.02852 c -4.04605,-0.82606 -7.01957,-3.06532 -9.16515,-6.90197 l -1.48115,-2.64854 V 107.29799 93.117978 h 13.27247 13.27248 v 14.131952 c 0,13.56122 -0.0361,14.2036 -0.89351,15.9059 -2.95966,5.87605 -9.07342,9.08374 -15.00514,7.87269 z"
     style="fill:#8ccceb;fill-opacity:1;stroke:#7e7e7b;stroke-width:8.42697;stroke-linejoin:round;stroke-opacity:0" />
</svg>
