<?xml version="1.0" encoding="UTF-8" standalone="no"?>
<svg
   xmlns:dc="http://purl.org/dc/elements/1.1/"
   xmlns:cc="http://creativecommons.org/ns#"
   xmlns:rdf="http://www.w3.org/1999/02/22-rdf-syntax-ns#"
   xmlns:svg="http://www.w3.org/2000/svg"
   xmlns="http://www.w3.org/2000/svg"
   xmlns:sodipodi="http://sodipodi.sourceforge.net/DTD/sodipodi-0.dtd"
   xmlns:inkscape="http://www.inkscape.org/namespaces/inkscape"
   inkscape:version="1.0 (4035a4f, 2020-05-01)"
   sodipodi:docname="star.svg"
   id="svg125"
   xml:space="preserve"
   enable-background="new 0 0 100 100"
   viewBox="0 0 100 100"
   y="0px"
   x="0px"
   version="1.1"
   fill="#000000"
   width="300px"
   height="300px"><metadata
     id="metadata131"><rdf:RDF><cc:Work
         rdf:about=""><dc:format>image/svg+xml</dc:format><dc:type
           rdf:resource="http://purl.org/dc/dcmitype/StillImage" /></cc:Work></rdf:RDF></metadata><defs
     id="defs129" /><sodipodi:namedview
     inkscape:current-layer="svg125"
     inkscape:window-maximized="0"
     inkscape:window-y="23"
     inkscape:window-x="0"
     inkscape:cy="150"
     inkscape:cx="150"
     inkscape:zoom="2.45"
     showgrid="false"
     id="namedview127"
     inkscape:window-height="976"
     inkscape:window-width="1567"
     inkscape:pageshadow="2"
     inkscape:pageopacity="0"
     guidetolerance="10"
     gridtolerance="10"
     objecttolerance="10"
     borderopacity="1"
     bordercolor="#666666"
     pagecolor="#ffffff" /><path
     id="path123"
     d="M31.736,56.468l-4.66,19.515c-0.188,0.781,0.114,1.6,0.76,2.076c0.648,0.474,1.514,0.52,2.208,0.107L47.568,67.76  l17.516,10.406c0.316,0.188,0.67,0.282,1.021,0.282c0.418,0,0.834-0.13,1.187-0.388c0.646-0.477,0.948-1.295,0.76-2.076  l-4.659-19.514l15.467-13.109c0.619-0.522,0.861-1.366,0.613-2.136c-0.246-0.77-0.935-1.316-1.74-1.382L57.33,38.16l-7.926-18.5  c-0.314-0.736-1.038-1.212-1.838-1.212c-0.8,0-1.524,0.476-1.838,1.212l-7.932,18.5L17.4,39.842  c-0.806,0.066-1.494,0.612-1.74,1.382c-0.248,0.77-0.006,1.614,0.612,2.136L31.736,56.468z M39.324,42.046  c0.738-0.06,1.382-0.524,1.674-1.206l6.568-15.318l6.56,15.316c0.292,0.682,0.937,1.146,1.674,1.206l16.788,1.384L59.866,54.21  c-0.576,0.485-0.828,1.256-0.652,1.99l3.849,16.11L48.59,63.712c-0.628-0.376-1.414-0.376-2.042,0l-14.48,8.601L35.916,56.2  c0.176-0.734-0.076-1.505-0.652-1.99L22.546,43.428L39.324,42.046z" /><path
     transform="scale(0.33333333)"
     id="path133"
     d="m 96.734694,215.90026 c 0,-0.12221 2.571428,-10.98341 5.714286,-24.136 3.14286,-13.15259 5.71429,-24.25297 5.71429,-24.66751 0,-2.69446 -0.81461,-3.49688 -20.430576,-20.12496 C 77.179448,138.026 68.612531,130.63917 68.695101,130.5566 c 0.08257,-0.0826 9.042603,-0.88162 19.911186,-1.77568 10.868583,-0.89405 22.148813,-1.82815 25.067183,-2.07577 5.70069,-0.4837 7.54084,-1.07013 8.71032,-2.77588 0.40428,-0.58967 5.10868,-11.266 10.45421,-23.72519 5.34552,-12.459182 9.76312,-22.706071 9.81688,-22.770863 0.0538,-0.06479 4.56587,10.312759 10.02693,23.061223 10.28046,23.99904 10.8394,25.07076 13.34964,25.59684 0.61128,0.1281 12.303,1.15463 25.98162,2.28117 13.67862,1.12654 24.90585,2.09135 24.9494,2.14402 0.0436,0.0527 -7.62954,6.61618 -17.05131,14.58557 -21.94326,18.56065 -21.83639,18.46312 -22.35962,20.40624 -0.50212,1.86471 -1.0597,-0.82386 5.74852,27.71873 2.9133,12.21363 5.24404,22.36519 5.17942,22.55903 -0.0646,0.19385 -9.94098,-5.4828 -21.94748,-12.61476 -21.03733,-12.49635 -21.90424,-12.96623 -23.87487,-12.94041 -1.93571,0.0254 -3.20623,0.71725 -23.79695,12.95918 -11.96364,7.11282 -21.836093,12.9324 -21.938781,12.9324 -0.102688,0 -0.186705,-0.1 -0.186705,-0.22219 z"
     style="fill:#ffcc00;stroke-width:0.408163" /></svg>
