<?xml version="1.0" encoding="UTF-8" standalone="no"?>
<svg
   xmlns:dc="http://purl.org/dc/elements/1.1/"
   xmlns:cc="http://creativecommons.org/ns#"
   xmlns:rdf="http://www.w3.org/1999/02/22-rdf-syntax-ns#"
   xmlns:svg="http://www.w3.org/2000/svg"
   xmlns="http://www.w3.org/2000/svg"
   xmlns:sodipodi="http://sodipodi.sourceforge.net/DTD/sodipodi-0.dtd"
   xmlns:inkscape="http://www.inkscape.org/namespaces/inkscape"
   inkscape:version="1.0 (4035a4f, 2020-05-01)"
   sodipodi:docname="stone.svg"
   id="svg360"
   viewBox="0 0 100 100"
   y="0px"
   x="0px"
   version="1.1"
   fill="#000000"
   width="300px"
   height="300px">
  <metadata
     id="metadata366">
    <rdf:RDF>
      <cc:Work
         rdf:about="">
        <dc:format>image/svg+xml</dc:format>
        <dc:type
           rdf:resource="http://purl.org/dc/dcmitype/StillImage" />
      </cc:Work>
    </rdf:RDF>
  </metadata>
  <defs
     id="defs364" />
  <sodipodi:namedview
     inkscape:current-layer="svg360"
     inkscape:window-maximized="0"
     inkscape:window-y="23"
     inkscape:window-x="0"
     inkscape:cy="150"
     inkscape:cx="150"
     inkscape:zoom="2.23"
     showgrid="false"
     id="namedview362"
     inkscape:window-height="928"
     inkscape:window-width="1318"
     inkscape:pageshadow="2"
     inkscape:pageopacity="0"
     guidetolerance="10"
     gridtolerance="10"
     objecttolerance="10"
     borderopacity="1"
     bordercolor="#666666"
     pagecolor="#ffffff" />
  <g
     id="g358"
     transform="translate(0,-952.36218)">
    <path
       id="path356"
       overflow="visible"
       display="inline"
       visibility="visible"
       marker="none"
       stroke="none"
       fill-opacity="1"
       fill="#000000"
       style="text-indent:0;text-transform:none;direction:ltr;block-progression:tb;baseline-shift:baseline;color:#000000;enable-background:accumulate;"
       d="m 51.96522,964.64823 -19.99893,11.99658 c -0.33498,0.1972 -0.61023,0.4944 -0.78121,0.8435 l -15.99914,32.99059 c -0.23642,0.5052 -0.24806,1.1106 -0.0312,1.6245 l 8.99951,21.9937 c 0.25403,0.6505 0.8719,1.1446 1.56242,1.2496 l 35.99807,4.9986 c 0.68815,0.093 1.41589,-0.2029 1.84365,-0.7498 8.11735,-13.0156 15.32604,-28.9204 21.248874,-41.36317 0.24547,-0.51353 0.25717,-1.13335 0.0312,-1.65577 L 76.83889,977.58201 c -0.17349,-0.4078 -0.48679,-0.7546 -0.87495,-0.9685 L 53.96512,964.61703 c -0.29493,-0.1632 -0.63165,-0.2501 -0.9687,-0.25 -0.3662,-0.04 -0.74077,0.1778 -1.03115,0.2812 z m 1.09369,4.03008 19.93644,10.8406 0,11.37177 -16.12414,31.30352 -18.43652,-2.6242 -5.40596,-13.4962 1.90615,-26.52359 z m -22.81128,19.96302 -1.24993,17.58877 c -0.0141,0.2983 0.0397,0.5997 0.15624,0.8747 l 4.06228,10.1221 -13.56177,-6.7793 z m 45.46632,5.74835 4.781004,3.56148 C 73.77394,1011.1691 69.22719,1022.2107 62.6834,1033.441 l -2.53112,-8.8725 z m -37.99797,29.11662 18.68651,2.6555 2.81234,9.7785 -29.18594,-4.0301 z" />
  </g>
  <path
     transform="scale(0.33333333)"
     id="path368"
     d="M 131.35593,256.31267 C 101.86402,252.17578 77.204313,248.65803 76.556583,248.49546 73.808375,247.8057 73.539332,247.24224 59.200116,212.1453 51.550366,193.42163 45.29148,177.52551 45.29148,176.8206 c 0,-1.69176 48.11343,-101.063684 49.713731,-102.677131 1.218897,-1.228913 59.534369,-36.299967 62.235529,-37.428581 0.88896,-0.371433 2.00965,-0.506325 2.72173,-0.327602 2.12854,0.534228 68.47955,36.888494 69.34029,37.992114 0.45509,0.583499 6.36393,14.154102 13.13076,30.1569 10.67747,25.25099 12.27814,29.33303 12.11262,30.88971 -0.28204,2.65257 -23.8906,52.18079 -37.13863,77.91286 -12.60306,24.47935 -26.07467,47.96291 -28.38154,49.47443 -0.5713,0.37434 -1.71591,0.7572 -2.54356,0.85081 -0.82766,0.0936 -25.63458,-3.21454 -55.12648,-7.35144 z m 46.00052,-7.54585 c -0.34216,-1.17153 -2.25106,-7.77006 -4.24201,-14.6634 -1.99093,-6.89334 -3.80264,-12.6463 -4.02601,-12.78435 -0.49465,-0.30571 -56.11074,-8.23137 -56.26155,-8.01764 -0.18781,0.26616 -19.639589,21.60915 -21.280526,23.34953 -0.867771,0.92036 -1.438475,1.81267 -1.268233,1.98292 0.292072,0.29207 83.912909,12.09675 86.491429,12.20992 l 1.20902,0.0531 z m 16.26714,-14.85811 c 5.67844,-10.16696 16.8601,-32.47056 28.72802,-57.3026 5.44207,-11.38682 12.02266,-24.95561 14.62355,-30.15287 2.60088,-5.19727 4.72888,-9.54732 4.72888,-9.66678 0,-0.49594 -14.55843,-10.96863 -14.82262,-10.66273 -0.15849,0.18352 -10.72907,20.60143 -23.49017,45.37313 l -23.202,45.03946 3.70001,13.03229 c 2.03501,7.16776 3.80298,13.22062 3.92883,13.45081 0.31274,0.57201 0.99909,-0.5051 5.8055,-9.11071 z m 1.49293,-71.35266 24.15471,-46.86098 -0.10647,-17.253366 -0.10646,-17.253363 -29.94719,-16.281827 -29.9472,-16.281825 -27.3398,16.406407 c -26.92527,16.157648 -27.34019,16.428146 -27.36531,17.840124 -0.014,0.788542 -1.28158,18.74671 -2.81679,39.90704 l -2.791293,38.47331 8.104523,20.27108 8.10452,20.27107 26.88716,3.88399 c 14.78794,2.13619 27.3659,3.85143 27.95103,3.81166 0.94147,-0.064 3.84275,-5.46346 25.21857,-46.93332 z M 99.14374,192.713 c -0.463744,-1.17152 -3.308538,-8.28475 -6.321758,-15.80717 -4.825497,-12.04672 -5.472169,-13.97114 -5.424769,-16.1435 0.0296,-1.3565 0.84319,-13.56441 1.807981,-27.12869 0.964793,-13.56428 1.681936,-24.73455 1.593663,-24.82283 -0.219763,-0.21976 -2.458338,4.30062 -18.359919,37.07436 -7.577744,15.61801 -13.708554,28.46009 -13.624022,28.53796 0.317888,0.29283 40.526842,20.37205 40.842219,20.39545 0.181376,0.0135 -0.04965,-0.93405 -0.513395,-2.10558 z"
     style="fill:#333333;stroke-width:0.44843" />
  <path
     transform="scale(0.33333333)"
     id="path370"
     d="m 143.04933,205.35886 c -14.18162,-2.05359 -26.18049,-3.79674 -26.66416,-3.87368 -0.7083,-0.11267 -2.45411,-4.05037 -8.97278,-20.23827 l -8.093383,-20.09839 2.811453,-39.31865 c 1.5463,-21.62526 2.88575,-39.523479 2.97657,-39.773814 0.20617,-0.568335 53.35153,-32.504486 54.09113,-32.504486 0.29665,0 13.82999,7.214125 30.0741,16.03139 l 29.53473,16.03139 0.0135,16.841269 0.0135,16.841271 -23.75969,46.12003 c -13.06783,25.36602 -24.09686,46.4926 -24.50896,46.94797 -0.4121,0.45537 -0.97024,0.80539 -1.24031,0.77785 -0.27006,-0.0276 -12.09417,-1.7303 -26.27578,-3.78388 z"
     style="fill:#b3b3b3;stroke-width:0.44843" />
  <path
     transform="scale(0.33333333)"
     id="path372"
     d="m 78.664481,183.71994 -19.317582,-9.72891 15.281707,-31.41685 c 11.029028,-22.67399 15.319217,-31.08763 15.416495,-30.23381 0.07413,0.65067 -0.581774,11.25686 -1.45757,23.56932 -0.875796,12.31245 -1.592279,23.60231 -1.592186,25.08858 1.53e-4,2.41916 0.610985,4.22688 5.829767,17.25285 3.206278,8.0028 5.829597,14.70717 5.829597,14.89859 0,0.19143 -0.151346,0.33704 -0.336323,0.32359 -0.184978,-0.0135 -9.029235,-4.40246 -19.653905,-9.75336 z"
     style="fill:#b3b3b3;stroke-width:0.44843" />
  <path
     transform="scale(0.33333333)"
     id="path374"
     d="m 173.76682,249.98473 c -1.23319,-0.19737 -20.2018,-2.82653 -42.15247,-5.84258 -21.95067,-3.01605 -40.065883,-5.61995 -40.256023,-5.78645 -0.19014,-0.1665 4.631899,-5.73684 10.715643,-12.37854 9.30285,-10.15603 11.247,-12.06686 12.22912,-12.01948 2.68305,0.12943 54.11424,7.50213 54.45834,7.80664 0.32794,0.2902 8.34348,27.46449 8.36168,28.34779 0.008,0.38099 -0.23831,0.37165 -3.35629,-0.12738 z"
     style="fill:#b3b3b3;stroke-width:0.44843" />
  <path
     transform="scale(0.33333333)"
     id="path376"
     d="m 184.4066,229.516 -3.66446,-12.86069 23.13453,-44.87474 c 12.72399,-24.68111 23.20512,-44.95223 23.29142,-45.04694 0.21852,-0.23986 13.63908,9.83584 13.63908,10.23976 0,0.18041 -3.09965,6.66614 -6.88813,14.41274 -3.78847,7.7466 -8.71095,17.9188 -10.93884,22.6049 -14.46585,30.42711 -23.42012,48.25706 -31.1344,61.99552 -1.97347,3.51457 -3.63011,6.39013 -3.68142,6.39013 -0.0513,0 -1.74232,-5.78731 -3.75778,-12.86068 z"
     style="fill:#b3b3b3;stroke-width:0.44843" />
</svg>
