<?xml version="1.0" encoding="UTF-8" standalone="no"?>
<svg
   xmlns:dc="http://purl.org/dc/elements/1.1/"
   xmlns:cc="http://creativecommons.org/ns#"
   xmlns:rdf="http://www.w3.org/1999/02/22-rdf-syntax-ns#"
   xmlns:svg="http://www.w3.org/2000/svg"
   xmlns="http://www.w3.org/2000/svg"
   xmlns:sodipodi="http://sodipodi.sourceforge.net/DTD/sodipodi-0.dtd"
   xmlns:inkscape="http://www.inkscape.org/namespaces/inkscape"
   inkscape:version="1.0 (4035a4f, 2020-05-01)"
   sodipodi:docname="tower.svg"
   id="svg997"
   xml:space="preserve"
   style="enable-background:new 0 0 100 100;"
   viewBox="0 0 100 100"
   y="0px"
   x="0px"
   version="1.1"
   fill="#000000"
   width="300px"
   height="300px"><metadata
     id="metadata1003"><rdf:RDF><cc:Work
         rdf:about=""><dc:format>image/svg+xml</dc:format><dc:type
           rdf:resource="http://purl.org/dc/dcmitype/StillImage" /></cc:Work></rdf:RDF></metadata><defs
     id="defs1001" /><sodipodi:namedview
     inkscape:current-layer="svg997"
     inkscape:window-maximized="0"
     inkscape:window-y="23"
     inkscape:window-x="0"
     inkscape:cy="150"
     inkscape:cx="150"
     inkscape:zoom="2.23"
     showgrid="false"
     id="namedview999"
     inkscape:window-height="777"
     inkscape:window-width="1056"
     inkscape:pageshadow="2"
     inkscape:pageopacity="0"
     guidetolerance="10"
     gridtolerance="10"
     objecttolerance="10"
     borderopacity="1"
     bordercolor="#666666"
     pagecolor="#ffffff" /><style
     id="style989"
     type="text/css">
	.st0{fill:none;stroke:#000000;stroke-width:3;stroke-linecap:round;stroke-linejoin:round;stroke-miterlimit:10;}
	.st1{fill:#000000;}
</style><g
     id="g995"><path
       id="path991"
       d="M64.7,31.6h3.6c0.8,0,1.5-0.7,1.5-1.5V11.8c0-0.8-0.7-1.5-1.5-1.5h-7.9c-0.8,0-1.5,0.7-1.5,1.5v4.4h-3.4v-4.4   c0-0.8-0.7-1.5-1.5-1.5h-7.9c-0.8,0-1.5,0.7-1.5,1.5v4.4h-3.4v-4.4c0-0.8-0.7-1.5-1.5-1.5h-7.9c-0.8,0-1.5,0.7-1.5,1.5v18.4   c0,0.8,0.7,1.5,1.5,1.5h3.6v45.2h-3.6c-0.8,0-1.5,0.7-1.5,1.5v9.9c0,0.8,0.7,1.5,1.5,1.5h36.5c0.8,0,1.5-0.7,1.5-1.5v-9.9   c0-0.8-0.7-1.5-1.5-1.5h-3.6V31.6z M33.3,13.3h4.9v4.4c0,0.8,0.7,1.5,1.5,1.5h6.4c0.8,0,1.5-0.7,1.5-1.5v-4.4h4.9v4.4   c0,0.8,0.7,1.5,1.5,1.5h6.4c0.8,0,1.5-0.7,1.5-1.5v-4.4h4.9v15.4h-3.6H36.8h-3.6V13.3z M40,31.6v1.9h-1.7v-1.9H40z M38.3,70.5v-2.2   H40v2.2H38.3z M66.8,86.8H33.3v-6.9h3.6h26.3h3.6V86.8z M38.3,76.9v-3.4h6.2c0.8,0,1.5-0.7,1.5-1.5s-0.7-1.5-1.5-1.5H43v-2.2h1.5   c0.8,0,1.5-0.7,1.5-1.5s-0.7-1.5-1.5-1.5h-6.2V36.5h7c0.8,0,1.5-0.7,1.5-1.5s-0.7-1.5-1.5-1.5H43v-1.9h18.7v11.3h-2.8   c-0.8,0-1.5,0.7-1.5,1.5s0.7,1.5,1.5,1.5h2.8v11h-9.4c-0.8,0-1.5,0.7-1.5,1.5s0.7,1.5,1.5,1.5h9.4v1.6h-6.3c-0.8,0-1.5,0.7-1.5,1.5   s0.7,1.5,1.5,1.5h6.3v12.4H38.3z" /><path
       id="path993"
       d="M54.4,51.3v-7.7c0-2.4-2-4.4-4.4-4.4s-4.4,2-4.4,4.4v7.7c0,0.8,0.7,1.5,1.5,1.5h5.8C53.7,52.8,54.4,52.1,54.4,51.3z    M51.4,49.8h-2.8v-6.2c0-0.8,0.6-1.4,1.4-1.4s1.4,0.6,1.4,1.4V49.8z" /></g><path
     transform="scale(0.33333333)"
     id="path1566"
     d="m 100.22422,250 v -10.08969 h 50 50 V 250 260.08969 h -50 -50 z"
     style="fill:#666666;stroke:#7e7e7b;stroke-width:8.96861;stroke-linejoin:round;stroke-opacity:0" /><path
     transform="scale(0.33333333)"
     id="path1568"
     d="m 99.775785,63.004484 v -23.09417 h 7.399105 7.3991 v 7.428583 c 0,4.23742 0.19835,7.799199 0.46172,8.291323 1.06638,1.992542 2.4515,2.217314 13.66384,2.217314 11.21234,0 12.59746,-0.224772 13.66384,-2.217314 0.26338,-0.492124 0.46172,-4.053903 0.46172,-8.291323 V 39.910314 H 150 h 7.17489 l 0.002,7.06278 c 0.001,6.267847 0.10245,7.228072 0.89707,8.531357 0.49246,0.807717 1.41292,1.66534 2.04545,1.90583 0.63242,0.240489 6.00004,0.437253 11.92793,0.437253 h 10.77798 l 1.52467,-1.524664 1.52466,-1.524664 V 47.35426 39.910314 h 7.17489 7.17489 v 23.09417 23.094171 H 150 99.775785 Z"
     style="fill:#666666;stroke:#7e7e7b;stroke-width:8.96861;stroke-linejoin:round;stroke-opacity:0" /><path
     transform="scale(0.33333333)"
     id="path1570"
     d="m 115.02242,225.56054 v -4.93274 h 10.05528 10.05528 l 1.36445,-1.1481 c 1.71897,-1.44643 2.19011,-3.60709 1.20283,-5.51629 -0.96702,-1.86999 -2.83946,-2.75265 -5.83943,-2.75265 h -2.48863 v -3.13901 -3.13901 h 3.07786 c 2.70841,0 3.21636,-0.1385 4.23164,-1.15378 1.5306,-1.53061 1.8722,-3.29775 1.02803,-5.31815 -1.11455,-2.66749 -2.36415,-2.94511 -13.25586,-2.94511 h -9.43145 v -42.82512 -42.82511 h 10.55252 c 11.32794,0 12.83979,-0.24298 14.27677,-2.29456 1.34228,-1.91638 0.52375,-5.58513 -1.48606,-6.66076 -0.47451,-0.25394 -2.69215,-0.46172 -4.9281,-0.46172 h -4.06535 v -2.690582 -2.690583 h 27.80269 27.80269 v 16.816145 16.81614 h -4.96222 c -5.4343,0 -6.35444,0.279 -7.36498,2.23318 -0.90577,1.75157 -0.85094,3.0819 0.19792,4.80208 1.10662,1.81489 3.0417,2.37599 8.20551,2.37928 l 3.92377,0.002 v 16.12631 16.12632 l -15.05969,0.12929 -15.05969,0.12929 -1.30802,1.46448 c -1.41864,1.58831 -1.66991,3.30445 -0.77229,5.27451 1.07399,2.35715 1.7676,2.45384 17.60343,2.45384 h 14.59626 v 2.24215 2.24215 h -9.88774 c -10.46941,0 -11.91448,0.24707 -12.96893,2.21732 -0.59413,1.11015 -0.59413,3.87225 0,4.98241 1.05445,1.97025 2.49952,2.21731 12.96893,2.21731 h 9.88774 v 18.38565 18.38565 H 150 115.02242 Z m 45.75459,-67.49638 c 2.65353,-1.37219 2.74846,-2.00116 2.59278,-17.17865 l -0.14109,-13.75547 -1.21196,-2.29746 c -2.42223,-4.59174 -6.92545,-7.34379 -12.01674,-7.34379 -5.09129,0 -9.59451,2.75205 -12.01674,7.34379 l -1.21196,2.29746 -0.14062,13.68505 c -0.0897,8.72531 0.0282,14.12903 0.32514,14.91011 0.25618,0.67378 1.12663,1.62799 1.93435,2.12045 1.34615,0.82075 2.26479,0.89553 11.01999,0.89707 7.66291,0.001 9.8115,-0.13282 10.86685,-0.67856 z"
     style="fill:#999999;stroke:#7e7e7b;stroke-width:8.96861;stroke-linejoin:round;stroke-opacity:0" /><path
     transform="scale(0.33333333)"
     id="path1572"
     d="m 115.02242,97.757848 v -2.690583 h 2.46637 2.46637 v 2.690583 2.690582 h -2.46637 -2.46637 z"
     style="fill:#999999;stroke:#7e7e7b;stroke-width:8.96861;stroke-linejoin:round;stroke-opacity:0" /><path
     transform="scale(0.33333333)"
     id="path1574"
     d="m 115.02242,208.07175 v -3.13901 h 2.46637 2.46637 v 3.13901 3.13901 h -2.46637 -2.46637 z"
     style="fill:#333333;stroke:#7e7e7b;stroke-width:8.96861;stroke-linejoin:round;stroke-opacity:0" /><path
     transform="scale(0.33333333)"
     id="path1576"
     d="m 145.96413,139.42739 v -9.89997 l 1.31079,-1.31079 c 1.76234,-1.76234 3.68782,-1.76234 5.45016,0 l 1.31079,1.31079 v 9.89997 9.89996 H 150 145.96413 Z"
     style="fill:#333333;stroke:#7e7e7b;stroke-width:8.96861;stroke-linejoin:round;stroke-opacity:0" /></svg>
