<?xml version="1.0" encoding="UTF-8" standalone="no"?>
<svg
   xmlns:dc="http://purl.org/dc/elements/1.1/"
   xmlns:cc="http://creativecommons.org/ns#"
   xmlns:rdf="http://www.w3.org/1999/02/22-rdf-syntax-ns#"
   xmlns:svg="http://www.w3.org/2000/svg"
   xmlns="http://www.w3.org/2000/svg"
   xmlns:sodipodi="http://sodipodi.sourceforge.net/DTD/sodipodi-0.dtd"
   xmlns:inkscape="http://www.inkscape.org/namespaces/inkscape"
   inkscape:version="1.0 (4035a4f, 2020-05-01)"
   sodipodi:docname="vp.svg"
   id="svg1656"
   xml:space="preserve"
   enable-background="new 0 0 512 512"
   viewBox="0 0 512 512"
   y="0px"
   x="0px"
   version="1.1"
   fill="#000000"
   width="300px"
   height="300px"><metadata
     id="metadata1662"><rdf:RDF><cc:Work
         rdf:about=""><dc:format>image/svg+xml</dc:format><dc:type
           rdf:resource="http://purl.org/dc/dcmitype/StillImage" /></cc:Work></rdf:RDF></metadata><defs
     id="defs1660" /><sodipodi:namedview
     inkscape:current-layer="svg1656"
     inkscape:window-maximized="0"
     inkscape:window-y="23"
     inkscape:window-x="0"
     inkscape:cy="150"
     inkscape:cx="150"
     inkscape:zoom="2.23"
     showgrid="false"
     id="namedview1658"
     inkscape:window-height="950"
     inkscape:window-width="1641"
     inkscape:pageshadow="2"
     inkscape:pageopacity="0"
     guidetolerance="10"
     gridtolerance="10"
     objecttolerance="10"
     borderopacity="1"
     bordercolor="#666666"
     pagecolor="#ffffff" /><path
     style="fill:#065020;fill-opacity:1"
     id="path1654"
     d="M410.062,332.086c0-0.031,0.016-0.047,0.031-0.062c6.281-10.391,11.781-21.297,16.453-32.656  c5.188,1.766,10.156,2.562,14.891,2.562c45.719,0,70.562-74.055,70.562-74.055c-4.875-0.406-9.516-0.594-13.906-0.594  c-25.406,0-43.203,6.344-55.656,15.086c2.234-14.016,3.438-28.469,3.578-43.203c50.625-8.062,37.797-90.984,37.797-90.984  c-21.25,8.852-34.719,19.633-43.062,30.641c-2.859-15.664-6.031-26.898-7.156-30.656c12.328-44.047-59.344-70.375-59.344-70.375  c-6.328,56.961,22.844,75.727,40.297,81.82c1.578,5.383,6.984,25.188,9.203,52.742c-20.062-22.531-50.484-36.578-50.484-36.578  c-14.875,76.844,29.406,99.508,47.734,105.5c-0.469,2.75-0.969,5.469-1.516,8.172c-3.297,16.172-8.172,31.609-14.531,46.203  C397.969,263.898,375,234.297,375,234.297c-49.406,62.414-22,104.133-7.531,119.492c-11.281,12.562-24.203,24.078-38.703,34.531  c7.625-34.109-6.141-76.156-6.141-76.156c-64.469,40.234-56.75,86.281-48.562,107.234c-5.844,2.625-11.875,5.109-18.062,7.5  c-7.422-2.859-14.609-5.891-21.547-9.078c6.094-22.016,8.469-67.422-57.922-101.203c0,0-7.953,34.016-2.266,64.938  c-10.922-8.594-20.828-17.859-29.734-27.766C159,338.43,186.391,296.711,137,234.297c0,0-22.969,29.602-29.953,61.336  c-6.297-14.422-11.125-29.672-14.422-45.641c-0.594-2.875-1.125-5.781-1.625-8.719c18.344-5.992,62.609-28.664,47.75-105.5  c0,0-30.438,14.047-50.5,36.578c2.219-27.43,7.625-47.328,9.219-52.742c17.453-6.102,46.609-24.859,40.281-81.82  c0,0-71.75,26.352-59.328,70.438c-1.141,3.828-4.312,15.023-7.156,30.609c-8.359-11.016-21.828-21.805-43.078-30.656  c0,0-12.828,82.922,37.797,90.984c0.141,14.734,1.344,29.188,3.578,43.203c-12.453-8.742-30.25-15.086-55.656-15.086  c-4.391,0-9.031,0.188-13.906,0.594c0,0,24.844,74.055,70.562,74.055c4.734,0,9.703-0.797,14.891-2.562  c4.672,11.359,10.172,22.266,16.453,32.656c0.016,0.016,0.031,0.031,0.031,0.062c-7.141-1.812-15.078-2.844-23.875-2.844  c-15.781,0-34.344,3.344-56.078,11.688c0,0,45.172,64.891,93.75,64.891c12.266,0,24.734-4.141,36.766-14.5  c20.812,17.828,45.234,33.156,73.188,45.969c-21.328,6.453-44.312,11.75-68.938,15.891l3.531,21.031  c35.016-5.875,66.938-14.062,95.719-24.531c28.781,10.469,60.703,18.656,95.719,24.531l3.531-21.031  c-24.625-4.141-47.609-9.438-68.938-15.891c27.953-12.812,52.375-28.141,73.188-45.969c12.016,10.359,24.5,14.5,36.766,14.5  c48.578,0,93.75-64.891,93.75-64.891c-21.734-8.344-40.297-11.688-56.078-11.688C425.141,329.242,417.203,330.273,410.062,332.086z   M452.297,161.172c2.234-5.516,5.828-10.664,10.734-15.422c-1.453,11.781-4.672,20.961-9.281,26.344  c-1.062,1.234-2.391,2.555-4.266,3.664C449.5,171.359,450.203,166.336,452.297,161.172z M477.734,250.461  c-0.719,1.188-1.453,2.344-2.203,3.516c-5.625,8.609-11.422,15.281-17.266,19.859c-5.828,4.562-11.328,6.766-16.828,6.766  c-1,0-2.031-0.078-3.078-0.234c1.281-3.062,3.016-6.391,5.344-9.656C451.156,260.289,462.562,253.523,477.734,250.461z   M404.641,87.805c-2.891-3.586-5.156-7.82-6.797-12.688c7.938,6.188,13.188,12.477,15.062,18.219  c0.234,0.703,0.438,1.461,0.594,2.297C410.453,93.727,407.375,91.18,404.641,87.805z M418.75,217.188  c-7.125-3.836-12.953-8.992-17.312-15.352c-5.5-8.016-8.703-17.969-9.609-29.773c15.047,11.391,24.641,23.258,27.125,33.539  C419.656,208.469,420.125,212.297,418.75,217.188z M291.094,381.07c2.297-10.812,8.203-21.172,17.672-31  c1.906,16.766,1.469,35.609-6.281,47.266c-2.844,4.281-6.516,7.062-10.359,8.875C290.25,399.539,289.062,390.727,291.094,381.07z   M193.625,353.18c10.047,8.766,16.75,18.344,20.016,28.656c2.578,8.125,3.031,16.703,1.359,25.547  c-3.969-1.469-7.844-3.922-11.047-7.922C195.281,388.57,193.219,369.961,193.625,353.18z M58.281,172.125  c-4.625-5.367-7.844-14.57-9.312-26.375c4.906,4.758,8.5,9.906,10.734,15.422c2.094,5.164,2.797,10.188,2.812,14.586  C60.656,174.656,59.328,173.352,58.281,172.125z M93.031,205.648c2.469-10.281,12.078-22.188,27.141-33.586  c-0.906,11.797-4.109,21.758-9.609,29.773c-4.359,6.359-10.188,11.516-17.312,15.352C91.875,212.32,92.344,208.5,93.031,205.648z   M99.078,93.375c1.875-5.742,7.109-12.055,15.062-18.258c-1.625,4.867-3.891,9.102-6.781,12.68c-2.734,3.383-5.812,5.93-8.859,7.836  C98.656,94.812,98.859,94.062,99.078,93.375z M70.562,280.602c-5.5,0-11-2.203-16.828-6.766  c-5.844-4.578-11.641-11.25-17.266-19.859c-0.75-1.172-1.484-2.344-2.203-3.516c15.172,3.062,26.578,9.828,34.031,20.25  c2.328,3.266,4.047,6.594,5.344,9.656C72.594,280.523,71.562,280.602,70.562,280.602z M136.922,275.336  c0.109-0.234,0.219-0.469,0.344-0.719c5.5,12.203,7.609,23.75,6.266,34.531c-1.047,8.469-4.234,16.469-9.453,23.812  c-4.328-4.266-5.922-8.5-6.75-11.797C124.578,310.039,127.969,293.773,136.922,275.336z M115.734,384.492  c-14.203,0-31.484-9.062-49.984-26.188c-2.172-2.016-4.234-4.031-6.188-6.016c6.469-1.141,12.641-1.719,18.5-1.719l0,0  c19.656,0,35.906,6.484,48.297,19.281c2.953,3.062,5.391,6.172,7.328,9.016C127.938,382.633,121.984,384.492,115.734,384.492z   M374.734,274.617l0.016,0.031c9.188,18.688,12.703,35.188,9.922,46.469c-0.812,3.312-2.406,7.562-6.75,11.844  c-5.219-7.344-8.406-15.344-9.453-23.812C367.125,298.367,369.234,286.836,374.734,274.617z M446.797,357.789  c-8.781,8.203-17.422,14.672-25.656,19.203c-9.062,4.969-17.422,7.5-24.875,7.5c-6.25,0-12.203-1.859-17.953-5.625  c1.938-2.844,4.359-5.953,7.328-9.016c12.391-12.797,28.641-19.266,48.297-19.266c5.859,0,12.031,0.562,18.5,1.703  C450.656,354.117,448.766,355.961,446.797,357.789z" /><path
     transform="scale(1.7066667)"
     id="path2229"
     d="m 61.434978,224.07315 c -3.84185,-1.1425 -7.338226,-2.83237 -11.56485,-5.58952 -3.777724,-2.46431 -10.751869,-8.10366 -13.037061,-10.54187 l -1.283524,-1.36947 2.180385,-0.37135 c 1.199212,-0.20424 5.106395,-0.34506 8.682628,-0.31294 7.851541,0.0705 11.634025,0.92692 17.93722,4.06119 3.645474,1.81272 4.923228,2.7776 8.856502,6.68787 2.528027,2.51324 4.596413,4.77779 4.596413,5.03232 0,0.25454 -1.160314,1.02027 -2.578476,1.70163 -3.374225,1.62116 -9.628066,1.9396 -13.789237,0.70214 z"
     style="opacity:1;fill:#1bbc3b;fill-opacity:1;stroke:none;stroke-width:8.96861" /><path
     transform="scale(1.7066667)"
     id="path2231"
     d="m 76.936468,192.57203 c -3.992682,-5.51174 -3.276072,-15.77407 1.925028,-27.56767 l 1.549446,-3.51341 0.740658,1.76574 c 2.794997,6.66329 3.617607,14.76641 2.105917,20.74434 -0.948049,3.74902 -3.276613,9.06781 -4.365534,9.97154 -0.451718,0.37489 -0.904101,0.0509 -1.955515,-1.40054 z"
     style="opacity:1;fill:#1bbc3b;fill-opacity:1;stroke:none;stroke-width:8.96861" /><path
     transform="scale(1.7066667)"
     id="path2233"
     d="m 123.96854,237.43777 c -2.1067,-1.08532 -5.02807,-4.30396 -6.44577,-7.10166 -2.21984,-4.38064 -3.84564,-12.61412 -3.84564,-19.47533 0,-2.88728 0.0475,-3.03029 0.82386,-2.47814 1.94666,1.38455 6.31712,6.90034 8.06135,10.17391 2.46812,4.63215 3.67982,9.41417 3.63933,14.36272 -0.0173,2.11861 -0.16868,4.18652 -0.33633,4.59535 -0.28093,0.68511 -0.42947,0.67909 -1.8968,-0.0769 z"
     style="opacity:1;fill:#1bbc3b;fill-opacity:1;stroke:none;stroke-width:8.96861" /><path
     transform="scale(1.7066667)"
     id="path2235"
     d="m 38.309125,163.73661 c -3.151054,-0.84962 -6.164177,-2.81825 -9.643638,-6.30071 -3.414395,-3.41733 -8.136876,-9.79447 -7.428092,-10.03073 0.745764,-0.24858 7.351232,2.149 9.842559,3.57255 3.278056,1.87309 7.339389,5.73854 9.494016,9.0361 2.807932,4.29741 2.393404,4.97879 -2.264845,3.72279 z"
     style="opacity:1;fill:#1bbc3b;fill-opacity:1;stroke:none;stroke-width:8.96861" /><path
     transform="scale(1.7066667)"
     id="path2237"
     d="m 34.611457,100.7047 c -0.887134,-0.981948 -2.018872,-2.580996 -2.514974,-3.553435 -1.081026,-2.118986 -2.731009,-7.892721 -2.707449,-9.47409 0.01616,-1.084718 0.0795,-1.058074 1.577572,0.663632 2.204987,2.53415 4.126885,6.621611 4.928993,10.482903 0.377947,1.81941 0.606548,3.38864 0.508003,3.48719 -0.09855,0.0985 -0.90501,-0.62424 -1.792145,-1.6062 z"
     style="opacity:1;fill:#1bbc3b;fill-opacity:1;stroke:none;stroke-width:8.96861" /><path
     transform="scale(1.7066667)"
     id="path2239"
     d="m 54.484305,123.97983 c 0,-3.3072 1.141929,-6.69602 3.42316,-10.15867 1.829775,-2.77739 8.378409,-9.62082 10.825999,-11.31334 l 1.468889,-1.01575 -0.275951,1.94455 c -0.990602,6.98046 -3.827415,13.30146 -7.945079,17.70326 -2.267254,2.4237 -6.318277,5.54173 -7.199954,5.54173 -0.163385,0 -0.297064,-1.2158 -0.297064,-2.70178 z"
     style="opacity:1;fill:#1bbc3b;fill-opacity:1;stroke:none;stroke-width:8.96861" /><path
     transform="scale(1.7066667)"
     id="path2241"
     d="m 58.520179,54.352748 c 0,-1.018411 2.491688,-4.430783 5.1318,-7.028012 1.370335,-1.348078 2.491519,-2.244278 2.491519,-1.991557 0,0.790503 -3.129148,5.716961 -4.625386,7.282102 -1.809978,1.893328 -2.997933,2.581813 -2.997933,1.737467 z"
     style="opacity:1;fill:#1bbc3b;fill-opacity:1;stroke:none;stroke-width:8.96861" /><path
     transform="scale(1.7066667)"
     id="path2243"
     d="m 226.45404,224.07175 c -2.61143,-0.97008 -4.25673,-1.92774 -4.25673,-2.47767 0,-0.21312 2.06839,-2.44378 4.59641,-4.95702 3.93328,-3.91027 5.21103,-4.87515 8.8565,-6.68787 6.70089,-3.33202 10.03358,-4.04359 18.83408,-4.02131 4.06951,0.0103 7.98445,0.20336 8.69987,0.42901 l 1.30077,0.41028 -3.6575,3.31862 c -7.2986,6.62237 -14.25472,11.18911 -20.33136,13.34768 -4.40847,1.566 -10.76665,1.85501 -14.04204,0.63828 z"
     style="opacity:1;fill:#1bbc3b;fill-opacity:1;stroke:none;stroke-width:8.96861" /><path
     transform="scale(1.7066667)"
     id="path2245"
     d="m 170.67384,234.60452 c -1.64675,-9.45634 1.33097,-18.75889 8.83781,-27.60978 l 1.2938,-1.52544 0.30499,4.88867 c 0.74302,11.9094 -2.01028,21.61335 -7.26638,25.61022 -1.06738,0.81167 -2.10608,1.47576 -2.30822,1.47576 -0.20215,0 -0.59005,-1.27774 -0.862,-2.83943 z"
     style="opacity:1;fill:#1bbc3b;fill-opacity:1;stroke:none;stroke-width:8.96861" /><path
     transform="scale(1.7066667)"
     id="path2247"
     d="m 220.12071,192.52176 c -0.67794,-1.06634 -1.84748,-3.65405 -2.59897,-5.75046 -1.24742,-3.47986 -1.36618,-4.2996 -1.36423,-9.41704 0.002,-5.68782 0.70396,-9.37299 2.68074,-14.07658 l 0.73327,-1.74474 1.13259,2.41739 c 1.95811,4.17932 4.14695,11.45615 4.70363,15.63724 0.63683,4.78318 0.0532,9.02021 -1.64308,11.928 -1.81724,3.11517 -2.23058,3.2293 -3.64395,1.00619 z"
     style="opacity:1;fill:#1bbc3b;fill-opacity:1;stroke:none;stroke-width:8.96861" /><path
     transform="scale(1.7066667)"
     id="path2249"
     d="m 257.62332,163.6122 c 0,-2.54129 6.65099,-9.9799 11.29673,-12.63448 2.49132,-1.42355 9.09679,-3.82113 9.84255,-3.57255 0.74183,0.24728 -4.07591,6.68995 -7.67226,10.25997 -3.76637,3.7388 -7.6837,5.9813 -11.33698,6.48992 -1.88811,0.26287 -2.13004,0.20121 -2.13004,-0.54286 z"
     style="opacity:1;fill:#1bbc3b;fill-opacity:1;stroke:none;stroke-width:8.96861" /><path
     transform="scale(1.7066667)"
     id="path2251"
     d="m 242.5818,125.16686 c -6.55052,-4.41138 -11.14766,-12.40194 -12.50186,-21.73024 l -0.28229,-1.94455 1.46889,1.03107 c 2.52041,1.76917 9.03529,8.56511 10.83077,11.29802 0.94324,1.43572 2.09825,3.70086 2.56668,5.03364 0.83503,2.37581 1.1898,7.82681 0.5094,7.82681 -0.18827,0 -1.35449,-0.68164 -2.59159,-1.51475 z"
     style="opacity:1;fill:#1bbc3b;fill-opacity:1;stroke:none;stroke-width:8.96861" /><path
     transform="scale(1.7066667)"
     id="path2253"
     d="m 263.67301,100.89686 c 0.85129,-5.232768 3.77418,-11.5957 6.28313,-13.677943 0.56477,-0.468717 0.67166,-0.386682 0.67166,0.515457 0,1.77211 -1.7798,7.634377 -2.99654,9.869925 -0.62609,1.150336 -1.83848,2.765341 -2.6942,3.588901 l -1.55586,1.49738 z"
     style="opacity:1;fill:#1bbc3b;fill-opacity:1;stroke:none;stroke-width:8.96861" /><path
     transform="scale(1.7066667)"
     id="path2255"
     d="m 238.7326,52.687634 c -2.2353,-2.290574 -5.22947,-6.968043 -4.76058,-7.436936 0.32155,-0.321552 6.05022,5.921996 6.84652,7.461871 1.29776,2.50958 0.37667,2.49857 -2.08594,-0.02493 z"
     style="opacity:1;fill:#1bbc3b;fill-opacity:1;stroke:none;stroke-width:8.96861" /></svg>
