<?xml version="1.0" encoding="UTF-8" standalone="no"?>
<svg
   xmlns:dc="http://purl.org/dc/elements/1.1/"
   xmlns:cc="http://creativecommons.org/ns#"
   xmlns:rdf="http://www.w3.org/1999/02/22-rdf-syntax-ns#"
   xmlns:svg="http://www.w3.org/2000/svg"
   xmlns="http://www.w3.org/2000/svg"
   xmlns:sodipodi="http://sodipodi.sourceforge.net/DTD/sodipodi-0.dtd"
   xmlns:inkscape="http://www.inkscape.org/namespaces/inkscape"
   inkscape:version="1.0 (4035a4f, 2020-05-01)"
   sodipodi:docname="wagon.svg"
   id="svg3022"
   xml:space="preserve"
   enable-background="new 0 0 512 512"
   viewBox="0 0 512 512"
   y="0px"
   x="0px"
   version="1.1"
   fill="#000000"
   width="300px"
   height="300px"><metadata
     id="metadata3028"><rdf:RDF><cc:Work
         rdf:about=""><dc:format>image/svg+xml</dc:format><dc:type
           rdf:resource="http://purl.org/dc/dcmitype/StillImage" /></cc:Work></rdf:RDF></metadata><defs
     id="defs3026" /><sodipodi:namedview
     inkscape:current-layer="svg3022"
     inkscape:window-maximized="0"
     inkscape:window-y="23"
     inkscape:window-x="0"
     inkscape:cy="150"
     inkscape:cx="150"
     inkscape:zoom="2.23"
     showgrid="false"
     id="namedview3024"
     inkscape:window-height="847"
     inkscape:window-width="1521"
     inkscape:pageshadow="2"
     inkscape:pageopacity="0"
     guidetolerance="10"
     gridtolerance="10"
     objecttolerance="10"
     borderopacity="1"
     bordercolor="#666666"
     pagecolor="#ffffff" /><path
     style="fill:#1e1e1e;fill-opacity:1"
     id="path3020"
     d="M450.031,282.652l8.625-137.992l0.016-0.664c0-47.055-40.922-85.336-91.234-85.336  c-15.891,0-31.547,3.883-45.266,11.227c-8.984,4.813-17.031,11.039-23.781,18.344c-6.75-7.305-14.797-13.531-23.781-18.344  c-13.734-7.344-29.375-11.227-45.266-11.227c-15.906,0-31.547,3.883-45.266,11.227c-8.984,4.813-17.047,11.039-23.797,18.344  c-6.75-7.305-14.797-13.531-23.781-18.344c-13.719-7.344-29.375-11.227-45.266-11.227C40.922,58.66,0,96.941,0,143.996  L10.672,314.98v63.672h32c0.172,19.063,7.531,38.063,22.063,52.609C79.453,445.965,98.719,453.34,118,453.34  s38.563-7.375,53.266-22.063c14.547-14.563,21.891-33.563,22.063-52.625h72.016c0.172,19.063,7.516,38.063,22.063,52.609  c14.703,14.703,33.984,22.078,53.266,22.078s38.563-7.375,53.266-22.063c14.547-14.563,21.891-33.563,22.063-52.625h24.875H448  h42.672l21.328-96H450.031z M367.438,79.996c38.438,0,69.719,28.539,69.906,63.68l-7.516,120.094  c-13.688,11.305-33.922,18.461-56.484,18.461c-27.172,0-50.938-10.367-64-25.852v-147.93  C322.25,90.816,344.172,79.996,367.438,79.996z M229.344,79.996c23.594,0,45.828,11.141,58.656,29.227v148.102  c-12.281,14.953-33.953,24.906-58.656,24.906s-46.391-9.953-58.672-24.906V109.223C183.5,91.137,205.734,79.996,229.344,79.996z   M91.234,79.996c23.266,0,45.188,10.82,58.109,28.453v147.93c-13.078,15.484-36.844,25.852-64,25.852  c-22.578,0-42.813-7.156-56.5-18.461l-7.5-120.094C21.531,108.535,52.813,79.996,91.234,79.996z M171.859,381.387l-33.25-8.922  l24.375-24.359C169.625,358.09,172.578,369.84,171.859,381.387z M123.531,357.402l-8.922-33.281  c1.125-0.078,2.266-0.125,3.391-0.125h0.016l0,0c10.797,0,21.109,3.156,29.891,9.016L123.531,357.402z M94,329.621l8.922,33.281  l-33.297-8.906c2.578-5.188,5.984-9.969,10.188-14.188C84.031,335.605,88.813,332.184,94,329.621z M64,377.996  c0-1.141,0.047-2.266,0.125-3.391l33.266,8.922l-24.375,24.375C67.156,399.121,64,388.809,64,377.996z M88.109,422.98l24.375-24.375  l8.922,33.266c-1.141,0.078-2.266,0.125-3.406,0.125C107.203,431.996,96.891,428.84,88.109,422.98z M142.016,426.371l-8.922-33.281  l33.266,8.906c-2.531,5.125-5.906,9.938-10.172,14.188C151.984,420.387,147.188,423.809,142.016,426.371z M394.531,381.387  l-33.25-8.922l24.359-24.359C392.297,358.09,395.25,369.84,394.531,381.387z M346.188,357.402l-8.906-33.281  c1.125-0.078,2.25-0.125,3.391-0.125l0,0l0,0c10.797,0,21.109,3.156,29.891,9.016L346.188,357.402z M316.656,329.621l8.922,33.281  l-33.297-8.906c2.578-5.188,6-9.969,10.203-14.188C306.688,335.605,311.484,332.184,316.656,329.621z M286.672,377.996  c0-1.141,0.047-2.266,0.109-3.391l33.281,8.922l-24.375,24.375C289.828,399.121,286.672,388.809,286.672,377.996z M310.766,422.98  l24.391-24.375l8.906,33.266c-1.125,0.078-2.25,0.125-3.391,0.125C329.875,431.996,319.563,428.84,310.766,422.98z M364.672,426.371  l-8.922-33.281l33.281,8.906c-2.531,5.125-5.922,9.938-10.172,14.188C374.641,420.387,369.859,423.809,364.672,426.371z   M426.672,357.34h-13.547c-3.391-11.938-9.781-23.219-19.188-32.609c-14.703-14.703-33.984-22.078-53.266-22.078  c-19.281,0.016-38.563,7.375-53.266,22.078c-9.406,9.391-15.797,20.672-19.188,32.609h-77.766  c-3.391-11.938-9.781-23.219-19.188-32.609c-14.703-14.703-33.984-22.078-53.266-22.078c-19.281,0.016-38.563,7.375-53.266,22.078  c-9.391,9.391-15.797,20.672-19.188,32.609H32v-66.156c15.641,8.031,34.109,12.375,53.344,12.375c24.344,0,47.5-6.953,65.188-19.594  c3.203-2.281,6.188-4.719,8.922-7.297c2.422,2.406,5.047,4.703,7.844,6.859c16.813,12.906,38.844,20.031,62.047,20.031  c23.188,0,45.219-7.125,62.031-20.031c2.797-2.172,5.422-4.453,7.844-6.859c2.75,2.578,5.719,5.016,8.922,7.297  c17.688,12.641,40.844,19.594,65.203,19.594c19.219,0,37.688-4.344,53.328-12.375V357.34z M473.563,357.34H448v-42.344l0.688-11  h36.719L473.563,357.34z" /><path
     transform="scale(1.7066667)"
     id="path3591"
     d="m 41.418164,164.54174 c -7.285341,-1.07008 -15.38474,-4.07257 -20.929363,-7.75863 -2.632743,-1.75024 -3.232055,-2.37377 -3.417799,-3.5559 -0.123881,-0.78842 -1.174107,-17.10973 -2.333833,-36.26959 C 12.644443,82.383684 12.634383,82.091953 13.400415,78.193231 16.066197,64.625729 26.288143,53.634704 40.369352,49.195204 56.144565,44.221621 74.243475,48.911423 84.757206,60.697016 l 2.458494,2.755899 0.0022,43.410935 0.0018,43.41093 -2.353296,2.25632 c -6.397704,6.13406 -15.825421,10.38067 -26.656367,12.00707 -3.681316,0.55279 -13.039145,0.55478 -16.791904,0.004 z"
     style="fill:#cccccc;stroke-width:8.96861;stroke-linejoin:round" /><path
     transform="scale(1.7066667)"
     id="path3593"
     d="m 125.47348,164.3846 c -9.14104,-1.73837 -17.10628,-5.6514 -22.87248,-11.23641 l -2.37678,-2.30209 V 107.24437 63.642635 l 4.15357,-4.130735 c 5.66241,-5.631269 11.55697,-8.961263 19.78014,-11.174328 5.15645,-1.387735 15.46985,-1.373493 20.64406,0.02851 8.173,2.214549 13.67371,5.377541 19.65989,11.304748 l 3.92377,3.885106 v 43.714304 43.71432 l -2.57848,2.44618 c -5.016,4.75865 -11.30149,8.12608 -18.85389,10.10087 -5.41451,1.41578 -16.25642,1.84633 -21.4798,0.85299 z"
     style="fill:#cccccc;stroke-width:8.96861;stroke-linejoin:round" /><path
     transform="scale(1.7066667)"
     id="path3595"
     d="m 209.07117,164.34458 c -9.92988,-1.66945 -18.89451,-5.87596 -25.06443,-11.76107 l -2.61661,-2.49581 V 106.92691 63.766136 l 1.93432,-2.329302 c 7.65575,-9.219064 21.63639,-15.001988 34.35442,-14.2103 20.94734,1.303956 38.10261,17.449782 38.16249,35.916947 0.006,1.995301 -0.91775,18.762349 -2.05383,37.260109 l -2.0656,33.63228 -1.64572,1.45122 c -2.29035,2.01968 -9.63035,5.68881 -14.07279,7.03474 -8.14191,2.46675 -18.80803,3.18863 -26.93225,1.82275 z"
     style="fill:#cccccc;stroke-width:8.96861;stroke-linejoin:round" /><path
     transform="scale(1.7066667)"
     id="path3597"
     d="m 19.058296,190.13453 c 0,-10.35875 0.110918,-18.83408 0.246484,-18.83408 0.135567,0 0.793929,0.28309 1.463028,0.6291 2.637409,1.36385 10.67554,3.88371 15.452928,4.84429 4.207467,0.846 6.471875,1.0114 13.779264,1.0065 10.210566,-0.007 14.432336,-0.63698 22.641274,-3.37948 7.491076,-2.50267 13.023547,-5.54949 19.589309,-10.78814 l 1.199188,-0.95681 2.957233,2.45463 c 14.424336,11.97278 36.340366,16.04261 56.079366,10.41399 7.27424,-2.07426 15.72268,-6.605 20.67637,-11.08833 l 2.29072,-2.07322 1.07251,1.14773 c 1.61295,1.72608 8.46778,6.18897 12.29717,8.00618 8.10682,3.84702 16.72842,5.91606 26.48647,6.35631 10.959,0.49443 21.71056,-1.31535 30.61147,-5.15274 L 250,170.95332 v 19.00764 19.00765 l -3.92377,-0.001 -3.92376,-0.001 -1.23399,-3.49423 c -2.44792,-6.93127 -8.39122,-14.7945 -14.85502,-19.65343 -3.71056,-2.78927 -10.88361,-6.16682 -15.74956,-7.41592 -5.57857,-1.43204 -16.19331,-1.44484 -21.37912,-0.0258 -13.56021,3.71065 -23.7883,12.18835 -29.54037,24.48496 -0.93668,2.0024 -1.84114,4.19566 -2.0099,4.87392 l -0.30685,1.23318 h -22.6112 c -21.13159,0 -22.62905,-0.0514 -22.88401,-0.78475 -2.38105,-6.84928 -5.87187,-12.60484 -10.63686,-17.53774 -4.039774,-4.18211 -7.593478,-6.72665 -12.91511,-9.24754 -13.381372,-6.33881 -29.194912,-5.48213 -42.125099,2.28208 -4.313092,2.58989 -10.648759,8.59101 -13.385412,12.67861 -1.999944,2.98721 -5.100729,9.25416 -5.628734,11.37616 -0.3043,1.22294 -0.338093,1.23318 -4.069893,1.23318 h -3.763046 z"
     style="fill:#666666;stroke-width:8.96861;stroke-linejoin:round" /><path
     transform="scale(1.7066667)"
     id="path3599"
     d="m 262.55605,197.82674 c 0,-6.12803 0.13112,-12.98902 0.29137,-15.24664 l 0.29136,-4.10476 h 10.47951 10.47951 l -0.23982,1.00896 c -0.45666,1.92121 -6.50372,29.2053 -6.50372,29.34451 0,0.0769 -3.3296,0.1398 -7.3991,0.1398 h -7.39911 z"
     style="fill:#666666;stroke-width:8.96861;stroke-linejoin:round" /><path
     transform="scale(1.7066667)"
     id="path3601"
     d="m 50.11402,209.71403 c -4.746707,-1.27321 -8.631236,-2.51941 -8.632287,-2.76934 -0.0035,-0.84311 3.291614,-5.35868 5.588304,-7.65803 2.541876,-2.54481 7.269638,-5.85879 7.71824,-5.41019 0.217903,0.2179 5.064498,17.52083 5.07519,18.11905 0.005,0.27764 -1.669194,-0.11413 -9.749447,-2.28149 z"
     style="fill:#666666;stroke-width:8.96861;stroke-linejoin:round" /><path
     transform="scale(1.7066667)"
     id="path3603"
     d="m 72.421525,208.77256 c 0,-0.20526 -4.335292,-16.49022 -4.752801,-17.85328 -0.209989,-0.68556 0.08937,-0.78377 2.368322,-0.77696 3.95036,0.0118 8.469137,1.13536 12.672349,3.15091 l 3.785627,1.81531 -6.919215,6.93003 c -6.750722,6.76128 -7.154282,7.14114 -7.154282,6.73399 z"
     style="fill:#666666;stroke-width:8.96861;stroke-linejoin:round" /><path
     transform="scale(1.7066667)"
     id="path3605"
     d="m 91.147219,220.69106 -9.301212,-2.54791 6.900902,-6.89013 6.900902,-6.89012 1.582909,3.31182 c 0.8706,1.82151 1.885342,4.52259 2.254983,6.00241 0.639397,2.55976 1.476187,9.68557 1.127517,9.60154 -0.0906,-0.0218 -4.350335,-1.18627 -9.466001,-2.58761 z"
     style="fill:#666666;stroke-width:8.96861;stroke-linejoin:round" /><path
     transform="scale(1.7066667)"
     id="path3607"
     d="m 40.778725,234.78433 c -1.966513,-4.25626 -2.960657,-8.56093 -2.793772,-12.09711 l 0.131639,-2.78934 8.945939,2.3976 c 4.920267,1.31868 9.035327,2.48698 9.144579,2.59623 0.274909,0.27491 -12.886762,13.22488 -13.441075,13.22488 -0.246241,0 -1.140531,-1.49952 -1.98731,-3.33226 z"
     style="fill:#666666;stroke-width:8.96861;stroke-linejoin:round" /><path
     transform="scale(1.7066667)"
     id="path3609"
     d="m 63.004484,252.22627 c -3.137663,-0.66442 -6.939867,-2.08874 -9.344126,-3.50035 l -1.496593,-0.8787 6.647936,-6.65903 c 3.656365,-3.66247 6.751357,-6.65883 6.87776,-6.65858 0.216122,4.4e-4 4.964421,17.32568 4.94662,18.04887 -0.01304,0.52979 -4.42882,0.326 -7.631597,-0.35221 z"
     style="fill:#666666;stroke-width:8.96861;stroke-linejoin:round" /><path
     transform="scale(1.7066667)"
     id="path3611"
     d="m 80.994746,240.56888 c -1.28378,-4.81716 -2.435448,-9.02246 -2.559261,-9.34511 -0.149583,-0.38981 2.903789,0.24479 9.100193,1.89135 5.12892,1.36289 9.39266,2.52456 9.474978,2.58148 0.309226,0.21381 -3.143422,5.21644 -4.97304,7.20555 -1.734614,1.88583 -7.67139,6.4252 -8.403138,6.4252 -0.168072,0 -1.355951,-3.94131 -2.639732,-8.75847 z"
     style="fill:#666666;stroke-width:8.96861;stroke-linejoin:round" /><path
     transform="scale(1.7066667)"
     id="path3613"
     d="m 171.29873,234.91107 c -1.90526,-3.9756 -3.00333,-8.76262 -2.82484,-12.31474 l 0.13598,-2.7059 9.11477,2.45919 9.11478,2.45918 -6.6428,6.6539 c -3.65354,3.65964 -6.80455,6.65389 -7.00225,6.65389 -0.19769,0 -1.05073,-1.44248 -1.89564,-3.20552 z"
     style="fill:#666666;stroke-width:8.96861;stroke-linejoin:round" /><path
     transform="scale(1.7066667)"
     id="path3615"
     d=""
     style="fill:#666666;stroke-width:8.96861;stroke-linejoin:round" /><path
     transform="scale(1.7066667)"
     id="path3617"
     d="m 202.73425,208.0468 c -0.12062,-0.35623 -1.14832,-4.17909 -2.28378,-8.49523 -1.13546,-4.31614 -2.17892,-8.23207 -2.3188,-8.70206 -0.24089,-0.80934 -0.0441,-0.8398 3.7218,-0.57605 2.18687,0.15315 5.18689,0.66052 6.66671,1.12747 2.82792,0.89233 7.84753,3.22911 7.84753,3.65325 0,0.13668 -3.01819,3.26167 -6.70708,6.94442 -4.46705,4.4596 -6.78033,6.47958 -6.92638,6.0482 z"
     style="fill:#666666;stroke-width:8.96861;stroke-linejoin:round" /><path
     transform="scale(1.7066667)"
     id="path3619"
     d="m 221.64049,220.69106 -9.30121,-2.54791 6.87587,-6.86514 6.87588,-6.86513 1.61071,3.28683 c 0.88588,1.80776 1.91189,4.4976 2.28001,5.97742 0.63779,2.56393 1.472,9.68523 1.12475,9.60154 -0.0906,-0.0218 -4.35034,-1.18627 -9.46601,-2.58761 z"
     style="fill:#666666;stroke-width:8.96861;stroke-linejoin:round" /><path
     transform="scale(1.7066667)"
     id="path3621"
     d="m 211.36044,240.24664 c -1.49782,-5.5459 -2.26613,-9.12385 -1.97374,-9.19152 0.26333,-0.0609 4.45639,0.95398 9.31793,2.25538 l 8.83915,2.36619 -1.28778,2.22892 c -1.93066,3.34161 -5.50553,7.08639 -8.95232,9.37781 -1.69099,1.12416 -3.16817,2.04393 -3.28262,2.04393 -0.11446,0 -1.31174,-4.08632 -2.66062,-9.08071 z"
     style="fill:#666666;stroke-width:8.96861;stroke-linejoin:round" /><path
     transform="scale(1.7066667)"
     id="path3623"
     d="m 193.49776,252.22203 c -3.42036,-0.72926 -8.31796,-2.58242 -9.75546,-3.69129 l -1.01107,-0.77992 6.71266,-6.70147 c 3.69196,-3.68581 6.78898,-6.61023 6.88226,-6.49873 0.19116,0.22853 4.79493,17.5572 4.79493,18.04821 0,0.51442 -4.48248,0.29286 -7.62332,-0.3768 z"
     style="fill:#666666;stroke-width:8.96861;stroke-linejoin:round" /><path
     transform="scale(1.7066667)"
     id="path3625"
     d="m 180.60729,209.71403 c -4.7467,-1.27321 -8.63123,-2.53552 -8.63228,-2.80514 -0.003,-0.85171 4.27096,-6.61431 6.1951,-8.35224 2.43586,-2.20015 6.74686,-5.04476 7.10403,-4.68759 0.20604,0.20603 5.00249,17.33975 5.07436,18.12646 0.0256,0.28034 -1.67695,-0.11842 -9.74121,-2.28149 z"
     style="fill:#666666;stroke-width:8.96861;stroke-linejoin:round" /></svg>
