<?xml version="1.0" encoding="UTF-8" standalone="no"?>
<svg
   xmlns:dc="http://purl.org/dc/elements/1.1/"
   xmlns:cc="http://creativecommons.org/ns#"
   xmlns:rdf="http://www.w3.org/1999/02/22-rdf-syntax-ns#"
   xmlns:svg="http://www.w3.org/2000/svg"
   xmlns="http://www.w3.org/2000/svg"
   xmlns:sodipodi="http://sodipodi.sourceforge.net/DTD/sodipodi-0.dtd"
   xmlns:inkscape="http://www.inkscape.org/namespaces/inkscape"
   inkscape:version="1.0 (4035a4f, 2020-05-01)"
   sodipodi:docname="wheat.svg"
   id="svg2466"
   xml:space="preserve"
   style="enable-background:new 0 0 29.968 29.609;"
   viewBox="0 0 29.968 29.609"
   y="0px"
   x="0px"
   version="1.1"
   fill="#000000"
   width="300px"
   height="300px"><metadata
     id="metadata2472"><rdf:RDF><cc:Work
         rdf:about=""><dc:format>image/svg+xml</dc:format><dc:type
           rdf:resource="http://purl.org/dc/dcmitype/StillImage" /></cc:Work></rdf:RDF></metadata><defs
     id="defs2470" /><sodipodi:namedview
     inkscape:current-layer="g2464"
     inkscape:window-maximized="0"
     inkscape:window-y="23"
     inkscape:window-x="0"
     inkscape:cy="150"
     inkscape:cx="172.24706"
     inkscape:zoom="2.23"
     showgrid="false"
     id="namedview2468"
     inkscape:window-height="893"
     inkscape:window-width="1555"
     inkscape:pageshadow="2"
     inkscape:pageopacity="0"
     guidetolerance="10"
     gridtolerance="10"
     objecttolerance="10"
     borderopacity="1"
     bordercolor="#666666"
     pagecolor="#ffffff" /><g
     id="g2464"><path
       style="fill:#a77914;fill-opacity:1"
       id="path2448"
       d="M19.507,8.76c1.219,0.186,2.384-0.84,2.698-2.899s-1.065-5.536-1.144-5.546c-0.113-0.019-2.958,2.814-3.271,4.873   C17.478,7.247,18.287,8.573,19.507,8.76z" /><path
       style="fill:#a77914;fill-opacity:1"
       id="path2450"
       d="M17.207,10.117c0-2.309-2.09-5.884-2.175-5.883c-0.129,0-2.771,3.574-2.771,5.883c0,2.31,1.105,3.624,2.473,3.624   C16.1,13.741,17.206,12.426,17.207,10.117z" /><path
       style="fill:#a77914;fill-opacity:1"
       id="path2452"
       d="M9.614,8.461c-0.128,0-2.771,3.577-2.772,5.884c0,2.308,1.107,3.626,2.475,3.626c1.365,0,2.473-1.318,2.474-3.626   C11.79,12.038,9.699,8.46,9.614,8.461z" /><path
       style="fill:#a77914;fill-opacity:1"
       id="path2454"
       d="M23.762,7.502c-2.063,0.292-3.101,1.448-2.926,2.67c0.174,1.22,1.49,2.044,3.554,1.751   c2.063-0.295,4.923-3.109,4.906-3.225C29.286,8.62,25.824,7.208,23.762,7.502z" /><path
       style="fill:#a77914;fill-opacity:1"
       id="path2456"
       d="M19.601,17.459c2.309,0,5.885-2.644,5.885-2.771c0.001-0.087-3.576-2.176-5.885-2.176s-3.624,1.107-3.624,2.473   C15.977,16.351,17.292,17.459,19.601,17.459z" /><path
       style="fill:#a77914;fill-opacity:1"
       id="path2458"
       d="M21.092,19.944c0.001-0.087-3.576-2.179-5.884-2.179c-2.308,0.002-3.625,1.109-3.625,2.475   c0,1.367,1.317,2.476,3.625,2.476C17.516,22.714,21.092,20.071,21.092,19.944z" /><path
       style="fill:#a77914;fill-opacity:1"
       id="path2460"
       d="M24.026,5.587c0.827,0.826,2.294,0.701,3.693-0.697c1.397-1.397,2.299-4.83,2.246-4.883   c-0.079-0.077-3.846,0.489-5.242,1.886C23.325,3.29,23.198,4.759,24.026,5.587z" /><path
       style="fill:#5b4415;fill-opacity:1"
       id="path2462"
       d="M10.546,18.559c-0.021-0.003-0.046-0.001-0.065-0.006L0.036,28.457c-0.09,0.118-0.017,0.524,0.277,0.817   c0.297,0.296,0.678,0.394,0.797,0.302l4.686-4.915l5.267-5.518c0.017-0.061-0.05-0.238-0.196-0.385   C10.753,18.646,10.62,18.587,10.546,18.559z" /></g></svg>
