<?xml version="1.0" encoding="UTF-8" standalone="no"?>
<svg
   xmlns:dc="http://purl.org/dc/elements/1.1/"
   xmlns:cc="http://creativecommons.org/ns#"
   xmlns:rdf="http://www.w3.org/1999/02/22-rdf-syntax-ns#"
   xmlns:svg="http://www.w3.org/2000/svg"
   xmlns="http://www.w3.org/2000/svg"
   xmlns:sodipodi="http://sodipodi.sourceforge.net/DTD/sodipodi-0.dtd"
   xmlns:inkscape="http://www.inkscape.org/namespaces/inkscape"
   inkscape:version="1.0 (4035a4f, 2020-05-01)"
   sodipodi:docname="wood-color.svg"
   id="svg171"
   version="1.1"
   y="0px"
   x="0px"
   viewBox="0 0 128 128"
   data-name="Layer 1"
   fill="#000000"
   width="300px"
   height="300px">
  <metadata
     id="metadata177">
    <rdf:RDF>
      <cc:Work
         rdf:about="">
        <dc:format>image/svg+xml</dc:format>
        <dc:type
           rdf:resource="http://purl.org/dc/dcmitype/StillImage" />
        <dc:title>miscellaneous 57 FINAL</dc:title>
      </cc:Work>
    </rdf:RDF>
  </metadata>
  <defs
     id="defs175" />
  <sodipodi:namedview
     inkscape:current-layer="svg171"
     inkscape:window-maximized="0"
     inkscape:window-y="23"
     inkscape:window-x="0"
     inkscape:cy="150"
     inkscape:cx="150"
     inkscape:zoom="2.45"
     showgrid="false"
     id="namedview173"
     inkscape:window-height="943"
     inkscape:window-width="1458"
     inkscape:pageshadow="2"
     inkscape:pageopacity="0"
     guidetolerance="10"
     gridtolerance="10"
     objecttolerance="10"
     borderopacity="1"
     bordercolor="#666666"
     pagecolor="#ffffff" />
  <title
     id="title155">miscellaneous 57 FINAL</title>
  <path
     id="path157"
     d="M116,40.2019a6.74093,6.74093,0,0,0-2.17084.359,1.98816,1.98816,0,0,0-.44147.14612c-.25391.12109-25.62109,12.03711-49.39551,5.94629A75.7423,75.7423,0,0,0,53.373,44.80371c-.91095-.09766-1.83026-.17725-2.75287-.24878A27.73563,27.73563,0,0,1,44.343,35.67529c-.46741-4.06287-6.27716-7.06689-13.89862-7.06689C22.49512,28.6084,16.5,31.873,16.5,36.20215a5.04564,5.04564,0,0,0,1.22748,3.20691,31.75238,31.75238,0,0,0,3.44409,5.93005c-2.92383.31921-5.67084.675-8.13739,1.03491a60.09707,60.09707,0,0,0-8.33887,1.72852,2.98316,2.98316,0,0,0-1.84082,1.834C1.041,55.08691,0,62.47363,0,70.20215A65.55416,65.55416,0,0,0,2.62891,89.7998a2.96671,2.96671,0,0,0,2.13574,1.9707c4.97559,1.207,30.751,5.248,48.60645,3.33105a76.14625,76.14625,0,0,0,10.625-1.85254c19.68219-5.04126,40.49854,2.28162,47.18207,4.99878A7.0383,7.0383,0,0,0,116,100.2019c8.85724,0,12-16.16077,12-30S124.85724,40.2019,116,40.2019ZM20.5,36.20215c0-1.2666,3.77539-3.59375,9.94434-3.59375s9.94434,2.32715,9.94434,3.59375-3.77539,3.59375-9.94434,3.59375S20.5,37.46875,20.5,36.20215ZM90.7959,58.28906A2.00093,2.00093,0,0,0,92.748,59.86133a2.029,2.029,0,0,0,.42969-.0459,55.62222,55.62222,0,0,1,11.61353-1.3429A84.29424,84.29424,0,0,0,104,70.2019a85.946,85.946,0,0,0,.61841,10.43054c-4.717-1.45251-14.5686-3.95984-24.05786-3.05823a2.0002,2.0002,0,1,0,.37891,3.98242c10.28571-.97925,21.47852,2.52344,24.38257,3.51294a39.69807,39.69807,0,0,0,2.16449,7.50537c-9.70386-3.31641-27.24915-7.61426-44.4787-3.2019a71.90735,71.90735,0,0,1-10.06152,1.751C36.18164,92.9209,12.21,89.31152,6.25684,88.00977a46.27177,46.27177,0,0,1-1.42859-6.49219,26.47126,26.47126,0,0,0,8.8241,1.64551,19.92865,19.92865,0,0,0,2.332-.13379,2.00011,2.00011,0,1,0-.46875-3.97266A22.51187,22.51187,0,0,1,4.29108,76.978C4.10406,74.78906,4,72.51367,4,70.20215a74.55928,74.55928,0,0,1,.92035-11.91284,62.4175,62.4175,0,0,0,18.85114,3.23706q2.12988,0,4.168-.19336a2.0002,2.0002,0,1,0-.37891-3.98242c-6.48083.62256-13.82489-.40784-21.83087-3.01123.2276-.9126.46814-1.79395.73615-2.6001a68.4332,68.4332,0,0,1,7.15234-1.4082c3.18616-.46509,6.851-.9209,10.76605-1.29687a25.43594,25.43594,0,0,0,10.00446,6.07227,2,2,0,1,0,1.22266-3.80859,22.512,22.512,0,0,1-11.062-8.172,25.22721,25.22721,0,0,0,5.895.67c5.08295,0,9.3573-1.33862,11.78589-3.433a30.10113,30.10113,0,0,0,6.65564,8.027c-.01874.01538-.032.03174-.05115.04712.04126.00269.0816.00757.12286.01025a25.12643,25.12643,0,0,0,8.43109,4.65918,1.99684,1.99684,0,0,0,1.95972-3.375c1.25677.24072,2.48578.501,3.65552.79785,17.38806,4.45435,35.0918.0376,44.73877-3.29016a36.8604,36.8604,0,0,0-2.25616,7.276c-4.87793-.37219-12.2453,1.19141-13.16425,1.39209A2.00123,2.00123,0,0,0,90.7959,58.28906ZM116,96.2019c-4.41827,0-8-11.64062-8-26s3.58173-26,8-26,8,11.64063,8,26S120.41827,96.2019,116,96.2019Z" />
  <path
     id="path159"
     d="M116,55.20215c-4.5127,0-5,10.49023-5,15s.4873,15,5,15,5-10.49023,5-15S120.5127,55.20215,116,55.20215Zm0,24.4502a37.90415,37.90415,0,0,1-1-9.4502,37.90415,37.90415,0,0,1,1-9.4502,37.90415,37.90415,0,0,1,1,9.4502A37.90415,37.90415,0,0,1,116,79.65234Z" />
  <path
     id="path161"
     d="M116.05566,47.20215c-2.09668,0-2.72461,2.45605-2.99317,3.50391a2.00008,2.00008,0,0,0,3.28126,1.97754,2.00058,2.00058,0,0,0,2.57715-2.44531C118.68066,49.4082,118.043,47.20215,116.05566,47.20215Z" />
  <path
     id="path163"
     d="M72.27734,60.61133a2.00064,2.00064,0,0,0-1.72363,2.24316A15.57124,15.57124,0,0,1,57.15234,80.2959a12.05638,12.05638,0,0,1-13.50488-10.376,9.24414,9.24414,0,0,1,7.95605-10.35547A6.99209,6.99209,0,0,1,59.43945,65.585a5.19441,5.19441,0,0,1-4.47168,5.81934,2.00034,2.00034,0,1,0,.51953,3.9668,9.20136,9.20136,0,0,0,7.91895-10.30566A11.00955,11.00955,0,0,0,51.084,55.59766a13.25039,13.25039,0,0,0-11.40332,14.8418A16.03666,16.03666,0,0,0,57.67188,84.2627,19.578,19.578,0,0,0,74.52051,62.335,2.00993,2.00993,0,0,0,72.27734,60.61133Z" />
  <path
     id="path165"
     d="M35.875,66.95215H20a2,2,0,0,0,0,4H35.875a2,2,0,0,0,0-4Z" />
  <path
     id="path167"
     d="M78,68.95215a2.0001,2.0001,0,0,0,2,2H95.875a2,2,0,0,0,0-4H80A2.0001,2.0001,0,0,0,78,68.95215Z" />
  <path
     id="path169"
     d="M32,35.77441a2.0001,2.0001,0,0,0-2-2c-2.35547,0-4,1.17383-4,2.85449a1.9999,1.9999,0,0,0,3.61914,1.17383A2.50313,2.50313,0,0,1,30,37.77441,2.0001,2.0001,0,0,0,32,35.77441Z" />
  <path
     transform="scale(0.42666667)"
     id="path179"
     d="m 249.79592,216.06946 c -4.31922,-1.73295 -19.8285,-5.80691 -28.36735,-7.4515 -13.2579,-2.55349 -23.97151,-3.60283 -36.93877,-3.61796 -14.23488,-0.0166 -21.51285,0.83299 -37.55102,4.38348 -18.40447,4.07434 -26.51131,4.90504 -47.755107,4.89341 C 83.11938,214.26811 76.67171,213.96163 60.204082,212.42416 46.098288,211.1072 25.824313,208.35036 17.357,206.59784 l -2.438919,-0.50479 -0.684972,-2.2302 c -0.891565,-2.90285 -2.614828,-11.73963 -2.342462,-12.012 0.115962,-0.11596 1.767435,0.24043 3.66994,0.79199 5.232682,1.517 10.859913,2.28657 16.695642,2.28325 7.484253,-0.004 9.376424,-1.03533 9.376424,-5.10937 0,-1.46141 -0.247433,-2.12159 -1.190955,-3.17763 l -1.190956,-1.33297 -7.074351,-0.25625 c -4.114253,-0.14904 -8.427244,-0.54627 -10.307639,-0.94935 -3.395217,-0.7278 -10.725842,-3.20251 -11.357432,-3.8341 -0.6075123,-0.60751 -1.0501393,-16.05438 -0.685241,-23.91366 0.349432,-7.52616 1.484401,-18.60622 1.951714,-19.05347 0.144663,-0.13846 2.742615,0.46729 5.773227,1.34611 6.414211,1.86 15.291323,3.70727 22.244898,4.62901 5.995438,0.79474 18.701486,1.23603 23.655923,0.8216 3.405396,-0.28486 3.748028,-0.39792 5,-1.64989 1.07782,-1.07782 1.344077,-1.67178 1.344077,-2.99834 0,-2.09164 -0.650428,-3.52896 -2.001685,-4.42335 -0.933637,-0.61797 -2.126572,-0.68943 -10.039131,-0.60133 -9.490782,0.10567 -15.280112,-0.37978 -23.673469,-1.9851 -7.463226,-1.42742 -19.126416,-4.51489 -19.922509,-5.27388 -0.181869,-0.17339 -0.0075,-1.52812 0.387509,-3.0105 l 0.718181,-2.69525 3.595436,-0.84411 c 6.953877,-1.63257 24.868917,-4.2586 35.097191,-5.14462 l 3.141114,-0.2721 2.527596,2.28734 c 4.769184,4.31587 12.214641,8.71809 18.663482,11.03504 1.64093,0.58955 3.449322,1.07192 4.018657,1.07192 2.267241,0 4.630486,-2.49976 4.630486,-4.89796 0,-1.54748 -1.214939,-3.54173 -2.572523,-4.22263 -0.717767,-0.35999 -2.725902,-1.2263 -4.462522,-1.92511 -6.364425,-2.56104 -12.743588,-7.02649 -17.851923,-12.49644 -3.334837,-3.57092 -4.179204,-4.82716 -3.005208,-4.47114 3.544322,1.07482 15.576016,1.44566 21.157482,0.65212 6.418812,-0.91259 13.402289,-3.415327 17.341053,-6.214672 l 1.422681,-1.011125 1.362554,2.261903 c 3.90132,6.476364 11.42493,14.629484 17.49829,18.962384 6.27831,4.47911 14.88156,8.46471 18.27179,8.46471 3.33329,0 5.54571,-3.17362 4.37486,-6.27555 -0.25361,-0.6719 -0.40856,-1.2742 -0.34433,-1.33843 0.0642,-0.0642 3.22941,0.60198 7.03372,1.48047 15.00106,3.46404 22.21895,4.2828 37.52918,4.25713 12.95583,-0.0217 19.17286,-0.53615 31.41079,-2.59906 10.772,-1.81581 24.47138,-5.19958 33.04393,-8.16191 1.32765,-0.45879 2.49377,-0.7543 2.59137,-0.6567 0.0976,0.0976 -0.38788,1.6434 -1.07883,3.4351 -0.69095,1.79171 -1.78246,5.33988 -2.42557,7.88483 l -1.16929,4.62718 -6.49232,0.26249 c -6.55389,0.26497 -15.26019,1.36175 -21.98998,2.77018 -3.08103,0.64481 -3.8407,0.96738 -4.79592,2.03645 -2.22577,2.49107 -1.18219,6.76215 1.90084,7.77965 1.14144,0.3767 2.3274,0.27567 6.6441,-0.56602 5.97794,-1.1656 15.8355,-2.28275 20.14267,-2.28275 h 2.90706 l -0.2632,1.93877 c -0.85221,6.27771 -1.08944,10.10718 -1.31013,21.14821 -0.22346,11.18004 0.07,19.34441 0.94813,26.37769 l 0.23893,1.91365 -1.98802,-0.60697 c -8.06141,-2.46124 -20.19793,-4.95087 -29.74313,-6.10138 -8.14315,-0.98151 -23.38239,-0.96509 -25.83201,0.0278 -2.04913,0.83059 -2.9435,2.26185 -2.9435,4.71049 0,1.39568 0.25471,1.94845 1.4474,3.14115 l 1.44742,1.44741 6.00156,-0.27486 c 13.8028,-0.63214 32.25476,2.00296 47.79707,6.82584 l 5.46897,1.69706 0.91635,4.09641 c 0.76669,3.42733 2.51811,9.2226 3.66531,12.12808 0.31598,0.80027 0.0447,0.84802 -1.43796,0.25313 z M 138.57143,197.07492 c 16.75587,-3.25225 30.71164,-16.54102 35.17339,-33.49233 1.22026,-4.63604 1.79577,-14.94757 0.99876,-17.89489 -0.69321,-2.56347 -2.10945,-3.64688 -4.76719,-3.64688 -1.86226,0 -2.37767,0.17474 -3.33446,1.13047 -1.12824,1.127 -1.13253,1.15273 -1.39301,8.36735 -0.20209,5.59758 -0.45849,7.91375 -1.13191,10.22503 -3.30417,11.34051 -12.4121,20.88075 -23.48775,24.60259 -11.38766,3.82669 -22.07081,1.50063 -30.01702,-6.53564 -5.30542,-5.36556 -7.73915,-10.73247 -8.06713,-17.7898 -0.16855,-3.62688 -0.0699,-4.43762 0.88528,-7.27667 1.36153,-4.04676 3.15448,-6.84733 6.11357,-9.54929 5.82026,-5.31452 14.19311,-6.89997 20.37281,-3.85772 6.80097,3.34811 10.56633,10.90286 8.67563,17.40664 -0.99015,3.40598 -4.37739,6.77653 -7.79997,7.76153 -3.72544,1.07216 -4.96843,1.80685 -5.71356,3.37709 -0.88214,1.85896 -0.54183,3.96193 0.88154,5.4476 1.41224,1.47407 2.85697,1.76506 5.76546,1.16126 14.007,-2.90784 21.22316,-18.27761 14.85085,-31.63096 -3.20556,-6.71737 -8.52616,-11.35175 -15.96448,-13.90549 -1.75018,-0.60088 -3.41422,-0.77073 -7.55102,-0.77073 -4.74342,0 -5.68618,0.12457 -8.88995,1.17469 -9.51107,3.11749 -16.916882,10.46363 -20.075425,19.91369 -1.520874,4.55031 -1.87071,11.24479 -0.850878,16.28242 1.459551,7.20969 4.587033,13.2444 9.565363,18.45709 9.52537,9.97379 21.77729,13.75715 35.7611,11.04295 z M 86.85029,165.68951 c 1.18189,-0.82783 2.129302,-2.68782 2.129302,-4.18031 0,-1.68947 -1.608514,-3.86984 -3.279441,-4.44535 -1.834984,-0.63201 -37.826681,-0.73161 -40.061671,-0.11086 -0.827407,0.22981 -1.995125,1.00105 -2.594928,1.71388 -0.946914,1.12534 -1.064794,1.56409 -0.895001,3.33116 0.156861,1.63248 0.449456,2.26199 1.478918,3.18181 l 1.283369,1.14669 h 20.514986 c 17.929584,0 20.629605,-0.0803 21.424466,-0.63702 z m 140.50093,-0.0427 c 1.44699,-0.85476 2.03654,-2.13143 2.03654,-4.41015 0,-2.53287 -1.64189,-4.14108 -4.59416,-4.49992 -1.17729,-0.1431 -10.40584,-0.20211 -20.50789,-0.13112 -14.01779,0.0985 -18.58482,0.25327 -19.28571,0.65362 -3.05738,1.74635 -3.05947,6.82918 -0.004,8.52636 0.7033,0.39059 5.69738,0.51541 21.06299,0.52645 18.07532,0.013 20.25912,-0.0553 21.29175,-0.66524 z"
     style="fill:#aa4400;stroke-width:0.408163" />
  <path
     transform="scale(0.42666667)"
     id="path181"
     d="m 268.75948,224.34249 c -6.47375,-3.94783 -11.69905,-18.14622 -14.29107,-38.83229 -0.88138,-7.03402 -1.23965,-27.17783 -0.62144,-34.94053 1.70463,-21.40459 6.37747,-37.59411 12.66602,-43.88266 3.90218,-3.90218 6.82721,-3.85311 10.80147,0.18122 6.11943,6.21192 10.58446,21.27723 12.48091,42.11136 0.56986,6.26036 0.57835,24.70986 0.0142,30.81633 -2.21936,24.02214 -7.58428,40.05079 -14.91159,44.55102 -1.59591,0.98016 -4.52738,0.97804 -6.13848,-0.004 z m 7.22102,-25.84844 c 4.68802,-3.60743 7.18334,-13.69083 7.57613,-30.61455 0.61011,-26.28699 -4.14555,-40.20763 -13.15838,-38.51681 -1.88556,0.35373 -4.46849,2.6882 -5.73107,5.17979 -1.39662,2.7561 -2.88636,8.16034 -3.72493,13.51272 -1.03264,6.59104 -1.03055,26.25991 0.004,32.96521 1.56048,10.11893 3.86084,15.56305 7.55462,17.87904 2.06694,1.29597 5.51174,1.10927 7.48013,-0.4054 z m -2.10295,-74.51021 c 1.23469,-0.19305 2.63422,-0.5651 3.11006,-0.82677 1.30471,-0.7175 2.32976,-3.19373 2.04725,-4.94556 -0.341,-2.11449 -2.30775,-5.74147 -3.65663,-6.74334 -1.59385,-1.18382 -5.07333,-1.18707 -6.67483,-0.006 -2.27276,1.67579 -4.4453,7.03211 -3.92645,9.68052 0.12311,0.62835 0.78113,1.69977 1.46229,2.38092 1.34237,1.34237 1.81548,1.37089 7.63831,0.46047 z"
     style="fill:#aa4400;stroke-width:0.408163" />
  <path
     transform="scale(0.42666667)"
     id="path183"
     d="m 270.76292,180.10204 c -1.08582,-6.5353 -1.08594,-25.14518 -2e-4,-31.12245 1.14498,-6.30345 1.29134,-6.14856 2.50698,2.65306 0.67815,4.91009 0.79681,19.73278 0.19604,24.4898 -0.67414,5.33799 -1.28422,8.57143 -1.61725,8.57143 -0.17746,0 -0.66596,-2.06633 -1.08557,-4.59184 z"
     style="fill:#d45500;stroke-width:0.408163" />
  <path
     transform="scale(0.42666667)"
     id="path185"
     d="m 268.75948,223.93433 c -6.88832,-4.20064 -12.98458,-22.70877 -14.50374,-44.03307 -0.64929,-9.114 -0.29598,-31.02838 0.6071,-37.65636 1.0225,-7.50446 2.9586,-16.67555 4.53857,-21.49877 3.60981,-11.01978 9.40705,-18.0041 13.70147,-16.50705 4.53075,1.57942 8.99853,8.66761 11.9925,19.02623 3.83959,13.28434 5.38062,29.82063 4.67857,50.20408 -0.62457,18.1336 -4.4122,35.72571 -9.59647,44.57201 -1.39752,2.38469 -4.06629,5.30731 -5.5442,6.07157 -1.56879,0.81125 -4.39132,0.72541 -5.8738,-0.17864 z m 6.02255,-24.5025 c 1.70645,-0.64879 3.96129,-3.41505 5.19052,-6.36778 2.77295,-6.66093 3.90742,-16.91336 3.58604,-32.40789 -0.28323,-13.65523 -1.33464,-20.09389 -4.23955,-25.96228 -1.94703,-3.93331 -4.12411,-5.51021 -7.60742,-5.51021 -3.02005,0 -5.43221,1.81154 -7.19949,5.40683 -1.8569,3.77762 -3.59845,11.2377 -4.14574,17.75859 -0.6124,7.29668 -0.24814,25.07424 0.61673,30.09989 1.56129,9.07241 3.96969,14.51515 7.32946,16.56384 1.37877,0.84073 4.78072,1.06107 6.46945,0.41901 z m -0.76698,-75.30789 c 3.57915,-0.69252 4.79457,-1.8032 5.06615,-4.62961 0.30491,-3.17334 -2.14252,-7.74694 -4.65717,-8.70301 -1.34006,-0.50949 -3.39839,-0.4848 -4.95974,0.0595 -2.45889,0.85717 -5.34866,6.88943 -4.83038,10.08319 0.12837,0.79108 0.73385,1.96067 1.3455,2.5991 0.94102,0.98222 1.42998,1.15847 3.17859,1.14578 1.13657,-0.008 3.32224,-0.25798 4.85705,-0.55494 z"
     style="fill:#d45500;stroke-width:0.408163" />
  <path
     transform="scale(0.42666667)"
     id="path187"
     d="M 66.909796,92.799617 C 62.177967,92.441145 57.015118,91.177991 53.55757,89.532832 50.918497,88.277116 48.163265,85.918824 48.163265,84.91567 c 0,-2.494934 7.395461,-6.340355 14.489796,-7.534265 11.655211,-1.961463 25.339189,0.428785 30.306123,5.293719 1.722783,1.687407 1.692355,2.837479 -0.117111,4.42621 -4.852657,4.260692 -15.121985,6.517244 -25.932277,5.698283 z m 1.418719,-3.003699 c 0.827011,-0.561224 1.776908,-1.020408 2.110884,-1.020408 0.333976,0 1.231987,-0.261041 1.995581,-0.58009 3.449388,-1.441247 3.534532,-6.88858 0.135148,-8.64647 -2.84366,-1.470513 -8.980655,0.264087 -10.834844,3.062431 -1.734396,2.617551 -0.954856,6.2577 1.610875,7.522164 1.894827,0.933824 3.243437,0.842436 4.982356,-0.337627 z"
     style="fill:#d45500;stroke-width:0.408163" />
  <path
     transform="scale(0.42666667)"
     id="path189"
     d="m 266.34965,233.49696 c -1.33422,-0.56155 -3.35463,-1.65807 -4.4898,-2.43671 -4.80984,-3.29919 -26.04632,-9.92314 -41.86043,-13.05685 -12.35729,-2.44871 -23.17114,-3.5054 -35.91779,-3.50977 -13.63851,-0.005 -21.54714,0.90927 -35.23597,4.07201 -18.14919,4.19327 -33.1967,5.61357 -54.764027,5.16906 C 68.517951,223.20782 39.378436,220.2642 16.213301,215.86858 7.8357029,214.27892 7.1342588,213.6244 5.0556029,205.45728 1.1667213,190.17771 -0.23192882,175.65211 0.44277698,157.55102 0.99502351,142.73529 2.835249,130.24468 5.9235376,120.35013 c 2.0562195,-6.58791 2.5328963,-6.92864 13.0560544,-9.33257 4.64286,-1.06063 21.672767,-3.63569 27.256241,-4.12137 1.746032,-0.15188 3.248375,-0.39551 3.338538,-0.5414 0.09016,-0.14589 -0.850995,-1.81907 -2.091469,-3.71818 -1.240469,-1.89912 -3.201996,-5.254741 -4.358947,-7.456948 -1.156951,-2.202206 -2.549718,-4.847394 -3.095037,-5.878197 -1.446852,-2.734945 -1.413149,-6.109446 0.09164,-9.17497 4.1914,-8.538654 20.132376,-14.089862 36.236367,-12.618779 14.930511,1.363886 24.835055,6.882242 27.169055,15.137338 1.32885,4.699987 6.66969,13.176667 11.74253,18.637086 l 3.03792,3.27004 6.53213,0.68508 c 7.97611,0.83652 14.19407,1.87911 22.50838,3.77406 9.32976,2.12639 13.73413,2.93326 19.72631,3.61384 28.49984,3.23692 63.54491,-2.39942 94.27616,-15.16256 6.55865,-2.723902 6.63977,-2.745226 10.48732,-2.756929 3.51806,-0.0107 4.12353,0.10649 6.53062,1.264018 5.95447,2.863403 10.23392,8.482861 14.09547,18.509111 7.7576,20.1421 9.54949,58.4795 4.0068,85.72528 -3.54152,17.40883 -9.89838,29.01731 -18.02382,32.91396 -1.87847,0.90085 -3.02675,1.14155 -5.99682,1.25705 -3.19567,0.12428 -3.989,0.0101 -6.09933,-0.87813 z m 8.45938,-8.54052 c 2.0181,-0.85088 4.95393,-4.29902 6.81957,-8.0096 4.20395,-8.36125 7.26656,-21.48952 8.57147,-36.74276 0.44764,-5.23253 0.60679,-25.41417 0.22775,-28.88136 -0.11635,-1.06423 -0.41126,-3.95537 -0.65536,-6.42476 -2.05706,-20.80966 -7.99034,-37.20432 -14.70387,-40.62931 -10.04345,-5.123788 -19.11228,14.2759 -21.63303,46.27658 -0.9547,12.11979 -0.0935,32.32503 1.86438,43.74048 2.71862,15.85115 7.98719,27.89732 13.35934,30.5451 1.64475,0.81066 4.39191,0.86677 6.14975,0.12563 z M 250.75952,213.0573 c -0.78386,-2.24274 -1.96074,-6.26303 -2.6153,-8.93397 -0.65454,-2.67095 -1.23946,-4.90128 -1.2998,-4.95629 -0.0603,-0.055 -1.94646,-0.66188 -4.19136,-1.34858 -17.05714,-5.2177 -34.7783,-7.78218 -49.26402,-7.12915 l -5.59056,0.25202 -1.45026,-1.45025 c -1.70118,-1.70118 -1.90638,-3.43189 -0.65102,-5.49075 1.00258,-1.64428 2.36924,-2.01015 8.7926,-2.35383 11.84169,-0.63359 29.41233,1.68259 44.8004,5.90563 3.18293,0.87352 5.85902,1.51634 5.94687,1.42849 0.0879,-0.0878 -0.0903,-2.41994 -0.39581,-5.18242 -0.70624,-6.38509 -0.74258,-31.80964 -0.0541,-37.87983 0.26733,-2.35715 0.61407,-5.37147 0.77055,-6.69849 l 0.2845,-2.41278 -5.4721,0.25327 c -6.21306,0.28756 -13.4154,1.16729 -19.24399,2.35054 -3.52572,0.71575 -4.13211,0.74191 -5.35482,0.23103 -1.80735,-0.75516 -2.71003,-2.10726 -2.71003,-4.05929 0,-1.24165 0.28582,-1.86814 1.32654,-2.90765 1.18086,-1.17951 1.84195,-1.42171 6.0204,-2.20567 8.08036,-1.51604 13.44631,-2.16018 20.34158,-2.44184 l 6.6681,-0.27239 1.1794,-4.58392 c 0.64867,-2.52116 1.82659,-6.31187 2.61761,-8.42382 0.79102,-2.11195 1.43821,-3.92818 1.43821,-4.03607 0,-0.10789 -2.86375,0.69073 -6.3639,1.77472 -23.34869,7.23102 -46.02904,10.66183 -66.28916,10.02744 -12.21707,-0.38255 -19.24232,-1.32759 -32.51868,-4.37443 -3.85467,-0.88463 -7.40371,-1.60841 -7.88677,-1.60841 h -0.87829 l 0.84595,1.07546 c 1.31849,1.67618 1.11826,3.63182 -0.5418,5.29189 -1.64741,1.64741 -3.07292,1.78358 -6.40549,0.61188 -12.23522,-4.30178 -23.20714,-13.29936 -31.28168,-25.652697 -1.21055,-1.852041 -2.254032,-3.367347 -2.318848,-3.367347 -0.06482,0 -1.363135,0.817908 -2.885155,1.817575 -3.030898,1.990702 -7.807388,3.871909 -12.498396,4.922449 -4.642963,1.03978 -16.300486,1.28001 -21.575045,0.44461 -2.320192,-0.36749 -4.308551,-0.57814 -4.418572,-0.46812 -0.34304,0.34304 1.961539,3.14637 5.394331,6.56175 5.253996,5.22734 11.108257,9.05352 18.133253,11.85138 3.99929,1.5928 5.360812,2.86 5.364278,4.99267 0.0037,2.25417 -2.287306,4.57156 -4.519437,4.57156 -1.240633,0 -7.755514,-2.63123 -11.282155,-4.55665 -3.447155,-1.88202 -8.470208,-5.42031 -11.281841,-7.94706 -2.343865,-2.10637 -1.970857,-2.07563 -11.690551,-0.96348 -16.037846,1.83508 -31.616503,4.49826 -32.685865,5.58768 -0.177348,0.18067 -0.68904,1.65666 -1.137093,3.27997 l -0.81464,2.95147 2.726962,0.84406 c 15.023166,4.64999 27.874403,6.63366 41.910636,6.46917 6.029131,-0.0707 8.837608,0.0437 9.468865,0.38566 1.388209,0.75195 2.163788,2.14151 2.163788,3.87674 0,1.24582 -0.286273,1.86892 -1.34511,2.92776 -1.216184,1.21618 -1.656131,1.37425 -4.590053,1.64918 C 58.920645,144.11285 46.094265,143.65642 40,142.8536 c -7.287714,-0.96003 -16.118904,-2.79429 -22.654337,-4.70536 -4.072775,-1.19095 -5.72619,-1.51835 -5.937902,-1.17579 -0.352827,0.57088 -1.029445,5.73031 -1.6281696,12.41531 -0.4862175,5.4288 -0.5372832,25.16954 -0.074848,28.9344 L 10,180.72595 l 2.857143,1.13884 c 6.339005,2.5267 12.48401,3.62521 20.346939,3.63733 l 5.244898,0.008 1.387755,1.38776 c 2.30411,2.30411 1.786624,5.50691 -1.133776,7.01711 -1.7292,0.8942 -10.258369,0.86851 -15.648433,-0.0471 -3.566166,-0.60581 -9.128363,-2.01357 -11.340566,-2.87022 -0.608155,-0.23551 -0.700275,-0.11721 -0.53372,0.68536 0.110714,0.53349 0.312938,1.70469 0.449387,2.60264 0.547367,3.6022 2.7737,12.11103 3.210583,12.27055 1.02591,0.37459 17.683382,3.03935 25.15979,4.0249 22.555131,2.97326 38.228584,4.05067 59.183673,4.06834 22.532907,0.019 30.804577,-0.85457 49.795917,-5.25889 19.16742,-4.44516 36.97639,-5.25179 57.95919,-2.62517 12.82716,1.60571 26.19581,4.52259 38.77551,8.46037 3.47959,1.08921 6.35891,1.96436 6.39848,1.94479 0.0396,-0.0196 -0.56939,-1.87056 -1.35325,-4.1133 z M 83.469388,92.081711 c 6.662143,-1.787097 11.22449,-4.691672 11.22449,-7.145966 0,-4.841853 -14.035,-9.436656 -26.326531,-8.618827 -9.533788,0.63434 -18.246796,3.762146 -20.017245,7.185815 -0.815531,1.577066 -0.776008,1.772909 0.696167,3.449622 2.099666,2.391387 7.160151,4.600245 13.133964,5.732861 4.613396,0.874685 17.097943,0.520773 21.289155,-0.603505 z"
     style="fill:#552200;stroke-width:0.408163" />
  <path
     transform="scale(0.42666667)"
     id="path191"
     d="m 125.8162,197.3199 c -6.663,-0.86628 -13.7659,-3.91139 -19.05531,-8.16928 -8.582851,-6.90904 -13.699666,-17.47746 -13.699666,-28.29569 0,-24.03664 27.754336,-39.10616 45.856576,-24.89833 7.24009,5.68249 11.0314,15.70792 9.0766,24.00135 -1.89012,8.01896 -8.71633,14.65378 -16.69627,16.22814 -2.97215,0.58637 -4.70789,-0.0902 -5.72377,-2.23098 -0.86851,-1.83026 -0.85041,-2.64434 0.0932,-4.19172 0.78639,-1.28958 1.43106,-1.62102 5.4023,-2.77735 2.85298,-0.83072 5.70343,-3.25031 7.20906,-6.11937 0.94603,-1.80271 1.09549,-2.56971 1.08355,-5.56055 -0.0183,-4.5754 -1.09352,-7.3413 -4.12821,-10.61913 -5.42976,-5.86479 -13.41369,-6.96241 -21.46386,-2.95083 -5.55143,2.76639 -10.08562,8.63765 -11.34114,14.68546 -0.7973,3.84055 -0.30684,9.50268 1.16814,13.48579 4.65235,12.56345 16.95394,20.08542 30.17315,18.44978 8.32567,-1.03015 15.1685,-4.43394 21.33151,-10.6108 7.55692,-7.5739 10.61225,-15.34664 10.61225,-26.99756 v -5.72842 l 1.38775,-1.38776 c 1.67947,-1.67946 3.61404,-1.8616 5.34136,-0.50289 1.84864,1.45414 2.25104,3.03068 2.24511,8.79591 -0.0113,10.94487 -3.41428,20.48032 -10.39052,29.11467 -7.1053,8.79409 -18.18292,14.83765 -29.80819,16.26229 -4.06662,0.49835 -4.95971,0.50013 -8.6736,0.0173 z"
     style="fill:#552200;stroke-width:0.408163" />
  <path
     transform="scale(0.42666667)"
     id="path193"
     d="m 43.836735,164.53061 c -1.576488,-1.57649 -1.817451,-3.26908 -0.727965,-5.11343 1.370416,-2.31993 0.886082,-2.26396 20.768781,-2.39988 10.102041,-0.0691 19.159612,-0.0101 20.127939,0.13094 1.094159,0.1594 2.252918,0.69638 3.061224,1.4186 1.110049,0.99183 1.300633,1.44107 1.300633,3.06581 0,1.63441 -0.188555,2.07217 -1.332971,3.09471 l -1.332968,1.19101 H 65.462948 45.22449 Z"
     style="fill:#552200;stroke-width:0.408163" />
  <path
     transform="scale(0.42666667)"
     id="path195"
     d="m 63.801924,89.826663 c -2.507393,-1.121225 -3.289861,-4.362535 -1.64327,-6.807119 1.495804,-2.220722 4.061369,-3.412546 7.363667,-3.420767 2.636168,-0.0066 2.852391,0.06548 3.979592,1.32603 1.368859,1.530791 1.607034,3.811165 0.554943,5.313236 -0.769935,1.099236 -2.660578,2.129304 -3.908239,2.129304 -0.501782,0 -1.300345,0.364521 -1.774586,0.810047 -1.163956,1.09348 -2.996698,1.353742 -4.572107,0.649269 z"
     style="fill:#552200;stroke-width:0.408163" />
  <path
     transform="scale(0.42666667)"
     id="path197"
     d="m 184.76298,165.08348 c -2.29552,-1.80566 -2.09238,-5.56822 0.38844,-7.19459 1.05203,-0.68968 2.52671,-0.75552 19.52389,-0.87159 10.11225,-0.0691 19.19639,-0.007 20.18697,0.137 2.63345,0.38391 4.11731,1.99789 4.11731,4.47835 0,1.55526 -0.21623,2.11577 -1.19309,3.09262 l -1.19309,1.1931 h -20.38452 c -19.91757,0 -20.40883,-0.0191 -21.44591,-0.83489 z"
     style="fill:#552200;stroke-width:0.408163" />
  <path
     transform="scale(0.42666667)"
     id="path199"
     d="m 268.97322,198.63296 c -5.36564,-2.84765 -8.56033,-15.58531 -8.56332,-34.14316 -0.003,-18.42438 3.13882,-30.98027 8.50696,-33.99733 4.5897,-2.57956 8.90351,0.67735 11.4575,8.65037 2.15475,6.72672 2.67896,11.63888 2.68314,25.14287 0.004,12.54631 -0.31912,16.43512 -1.89847,22.85715 -2.45941,10.00051 -6.97315,14.25656 -12.18581,11.4901 z m 3.85519,-15.5349 c 0.36758,-2.00015 0.84445,-5.16852 1.05972,-7.04082 0.51931,-4.51682 0.50534,-18.8652 -0.0226,-23.2108 -0.69309,-5.70488 -1.69321,-10.69222 -2.06881,-10.31662 -0.19316,0.19316 -0.74244,2.54991 -1.22062,5.23722 -1.08303,6.08652 -1.52502,20.65613 -0.82304,27.13092 0.59827,5.51831 1.72331,11.83673 2.1076,11.83673 0.16469,0 0.60018,-1.63648 0.96776,-3.63663 z"
     style="fill:#552200;stroke-width:0.408163" />
  <path
     transform="scale(0.42666667)"
     id="path201"
     d="m 266.81929,123.46301 c -1.73871,-1.36767 -2.07095,-3.11364 -1.15345,-6.06156 2.68606,-8.63035 9.7058,-8.83338 12.52864,-0.36237 1.20793,3.62488 -0.79548,6.42539 -4.59896,6.42878 -0.94084,8.4e-4 -1.82412,0.1852 -1.96287,0.40969 -0.45943,0.74338 -3.69562,0.46467 -4.81336,-0.41454 z"
     style="fill:#2b1100;stroke-width:0.408163" />
  <path
     transform="scale(0.42666667)"
     id="path221"
     d="m 269.54445,198.62663 c -4.94922,-2.30568 -7.89765,-11.57065 -8.69887,-27.33484 -0.55496,-10.91897 0.22957,-22.30273 2.03183,-29.48241 C 264.85794,133.91952 267.83153,130 271.83673,130 c 3.69121,0 6.31816,3.02862 8.49671,9.79592 1.78753,5.55263 2.18964,9.09342 2.41038,21.22449 0.31782,17.46683 -0.76331,25.73607 -4.26477,32.62007 -2.52109,4.95655 -5.46798,6.60113 -8.9346,4.98615 z m 3.06664,-13.83071 c 0.24619,-1.06633 0.72296,-3.68368 1.05948,-5.81633 0.83852,-5.31394 0.84208,-23.12927 0.006,-28.77551 -0.7456,-5.03371 -1.41502,-7.95918 -1.82126,-7.95918 -0.46697,0 -1.61446,5.81171 -2.05503,10.40816 -0.60448,6.30656 -0.48943,20.57002 0.20577,25.51021 0.80684,5.73344 1.40916,8.57142 1.81915,8.57142 0.18619,0 0.53994,-0.87245 0.78613,-1.93877 z"
     style="fill:#2b1100;stroke-width:0.408163" />
  <path
     transform="scale(0.42666667)"
     id="path223"
     d="m 265.71429,232.92985 c -1.2347,-0.64871 -3.84505,-2.01004 -5.80079,-3.02518 -6.27712,-3.25818 -25.03219,-9.01105 -38.07677,-11.67954 -13.69096,-2.80072 -23.11128,-3.72524 -38.01797,-3.73112 -14.51014,-0.006 -20.29634,0.63991 -35.24733,3.93301 -18.71408,4.12194 -25.76228,4.823 -48.57143,4.83125 -11.241298,0.004 -21.471261,-0.20227 -25.918367,-0.52276 C 54.814478,221.34695 37.960156,219.41348 23.314135,216.91165 10.692622,214.75564 8.8659865,214.12738 7.2690351,211.39302 6.4665763,210.01902 4.4666184,202.71838 3.477119,197.55102 1.2333465,185.8336 0.62739229,178.89028 0.64524649,165.10204 0.66915486,146.6384 2.4239721,132.36308 6.1239935,120.53282 c 1.4274596,-4.56408 2.477333,-6.01461 5.1931165,-7.17491 3.828603,-1.63576 18.233598,-4.29225 32.764523,-6.04226 3.030612,-0.36499 5.582367,-0.73248 5.670567,-0.81666 0.0882,-0.0842 -1.140567,-2.32871 -2.7306,-4.98784 -1.590033,-2.659137 -4.004033,-6.97649 -5.364445,-9.59412 -2.115309,-4.070152 -2.472904,-5.070699 -2.469494,-6.909607 0.01325,-7.145387 7.412625,-13.165408 19.996012,-16.268453 3.400654,-0.838596 4.856445,-0.955704 11.836735,-0.952182 6.727751,0.0034 8.617372,0.146759 12.213278,0.926612 5.828355,1.26401 10.085118,2.989029 13.564906,5.49707 3.443608,2.481963 4.990338,4.581397 6.843278,9.288657 2.2857,5.806651 6.95446,12.992245 11.98015,18.438403 l 2.54125,2.75385 7.14285,0.8241 c 8.73301,1.00756 12.09335,1.57829 23.00901,3.90795 16.89523,3.60583 25.89775,4.53176 40.05222,4.11946 24.09212,-0.70178 48.10701,-5.90098 72.24489,-15.640956 l 6.93878,-2.799893 h 4.28571 c 3.87611,0 4.51002,0.110144 6.63256,1.15242 10.79552,5.301159 17.757,22.846599 20.35287,51.296559 0.65788,7.21029 0.66285,27.29054 0.008,34.28571 -2.6004,27.79778 -9.60662,45.42788 -20.24079,50.93294 -1.75907,0.91064 -2.68391,1.08596 -6.34494,1.20284 -4.06718,0.12984 -4.40018,0.0767 -6.53061,-1.04266 z m 10.53502,-8.66652 c 6.33998,-4.96178 11.51718,-20.17106 13.74721,-40.38578 0.83729,-7.58986 0.83636,-31.19923 -0.002,-38.77551 -1.53442,-13.8744 -4.54721,-25.99111 -8.2838,-33.31542 -1.36219,-2.67012 -4.04945,-5.96736 -5.8477,-7.17508 -2.00244,-1.34485 -4.90014,-1.54075 -7.13108,-0.4821 -6.91657,3.28213 -12.77674,19.68277 -15.07758,42.19709 -0.86614,8.47547 -0.64282,30.73568 0.40075,39.94494 2.14174,18.90032 7.63732,34.22355 13.662,38.0935 1.67695,1.07719 2.1557,1.18917 4.54794,1.06379 2.10027,-0.11007 2.95465,-0.36002 3.98378,-1.16543 z m -24.00441,-7.22175 c 0,-0.16794 -0.64052,-2.23427 -1.42337,-4.59183 -0.78285,-2.35757 -1.94792,-6.30689 -2.58904,-8.77628 l -1.16568,-4.4898 -2.00279,-0.74932 c -3.61624,-1.35297 -12.08322,-3.54526 -19.14565,-4.95724 -11.53909,-2.30698 -16.0555,-2.77564 -27.66059,-2.87028 -11.67805,-0.0952 -11.59118,-0.0752 -12.80939,-2.95377 -0.48179,-1.13845 -0.47589,-1.53116 0.0417,-2.76979 0.957,-2.29042 2.53025,-2.73466 10.47453,-2.95768 12.68089,-0.35599 26.2935,1.45219 42.67445,5.66849 3.49257,0.89895 6.43707,1.54752 6.54334,1.44125 0.10626,-0.10627 -0.0298,-3.69124 -0.3025,-7.96661 -0.56365,-8.83883 -0.30958,-33.48598 0.39601,-38.41566 0.24098,-1.68367 0.53331,-3.75684 0.64962,-4.60705 l 0.21147,-1.54583 -3.78276,0.24004 c -6.95763,0.44148 -12.30263,1.03359 -18.88481,2.09203 -7.12842,1.14628 -8.16151,1.0557 -9.39282,-0.82351 -1.65139,-2.52034 -0.38589,-5.33482 2.89559,-6.43983 4.19747,-1.41345 15.37362,-2.93725 25.11611,-3.42442 l 5.55766,-0.27791 0.5058,-2.30064 c 0.27819,-1.26535 1.42551,-5.11156 2.54958,-8.54713 1.12409,-3.43558 1.97716,-6.30576 1.89573,-6.37819 -0.0814,-0.0724 -4.18888,1.03942 -9.12765,2.47078 -21.05993,6.10356 -36.49233,8.63589 -54.94404,9.01586 -16.06299,0.33078 -25.06128,-0.57912 -40.94032,-4.13984 -3.57313,-0.80124 -7.01701,-1.45681 -7.65306,-1.45681 -1.16015,0 -1.53362,0.53506 -0.72312,1.03597 0.91883,0.56787 1.20761,2.2357 0.62751,3.62409 -1.55019,3.71011 -5.07224,3.55819 -13.30575,-0.57391 -9.64617,-4.84107 -18.7067,-13.16272 -25.21911,-23.162509 -1.05806,-1.624651 -2.107418,-2.955073 -2.331908,-2.956494 -0.22449,-0.0014 -0.959184,0.373274 -1.632653,0.832652 -4.267086,2.910614 -10.949572,5.351431 -16.772792,6.126361 -3.560923,0.47387 -18.124437,0.29046 -21.492514,-0.27067 -2.430278,-0.40489 -1.9638,0.58675 2.428873,5.16329 5.428294,5.65551 9.318376,8.44117 17.207959,12.32252 5.646123,2.77765 6.757788,3.47573 7.196457,4.51901 1.063711,2.52982 -0.951142,5.58459 -3.683465,5.58459 -2.54702,0 -9.94162,-3.25073 -15.292681,-6.7228 -1.459184,-0.9468 -4.214286,-2.96829 -6.122449,-4.49219 l -3.469388,-2.77074 -4.081633,0.24894 c -8.164033,0.49792 -31.338363,3.9369 -36.35259,5.39458 l -2.107509,0.61267 -0.873284,2.9464 c -0.480306,1.62052 -0.872087,3.13008 -0.870624,3.35457 0.0032,0.48656 8.518925,3.0327 15.101966,4.51537 9.189585,2.06973 14.615894,2.6674 27.046217,2.97895 10.970951,0.27498 11.793449,0.34761 12.554498,1.10866 2.116077,2.11608 1.515134,5.43152 -1.233368,6.80455 -1.217792,0.60835 -2.633032,0.71323 -9.591836,0.71079 -13.65558,-0.005 -22.431838,-1.15913 -37.157866,-4.8874 -4.456739,-1.12834 -8.251121,-1.90357 -8.431961,-1.72273 -0.18084,0.18084 -0.624128,2.33997 -0.985084,4.79806 -0.7078956,4.82072 -1.3054483,32.99432 -0.7876915,37.1383 l 0.2711636,2.17032 3.5457189,1.28369 c 6.584845,2.38396 9.470762,2.9038 17.423271,3.13841 7.176575,0.21171 7.372747,0.24091 8.459953,1.25925 2.264038,2.12062 2.317504,4.81396 0.129727,6.53486 -2.471883,1.94439 -12.811343,1.52092 -22.509705,-0.92192 -3.094507,-0.77945 -5.714233,-1.32932 -5.821613,-1.22194 -0.255238,0.25523 1.31544,8.0802 2.441527,12.16345 0.654416,2.37295 1.104203,3.29035 1.744038,3.55721 1.143689,0.47702 16.806395,2.96248 26.780562,4.24972 22.114882,2.8541 34.497866,3.64679 57.142857,3.65797 23.584317,0.0116 29.006147,-0.52383 48.610617,-4.80086 16.42979,-3.58442 21.49748,-4.15169 36.89959,-4.13056 12.98525,0.0178 18.15242,0.43408 30.45959,2.45381 10.43628,1.7127 23.44673,4.90211 34.64245,8.49233 2.24489,0.71989 2.44898,0.75025 2.44898,0.36435 z M 79.60591,92.859398 c 7.936041,-0.909483 15.087968,-4.683616 15.087968,-7.962053 0,-1.964863 -1.325833,-3.299652 -5.033021,-5.067015 -9.038771,-4.309139 -22.339624,-4.912243 -33.131943,-1.502308 -5.097167,1.610498 -8.776894,4.346845 -8.771783,6.522941 0.0065,2.760858 5.833738,6.117956 13.510057,7.783179 3.103547,0.673253 13.333143,0.798904 18.338722,0.225256 z"
     style="fill:#2b1100;stroke-width:0.408163" />
  <path
     transform="scale(0.42666667)"
     id="path225"
     d="m 123.46939,196.75 c -14.96927,-3.462 -25.679348,-13.62451 -29.168302,-27.677 -0.984873,-3.96678 -1.216477,-10.92961 -0.471502,-14.17504 2.440015,-10.62975 9.696624,-18.81993 20.083784,-22.66757 3.96801,-1.46984 11.01438,-1.86463 15.07675,-0.8447 9.13059,2.29238 16.32737,9.4911 18.60902,18.61403 0.47457,1.89752 0.60968,3.76985 0.47453,6.57635 -0.16034,3.32977 -0.38762,4.34816 -1.50178,6.72907 -1.8989,4.05785 -4.15098,6.81484 -7.47186,9.14699 -4.21203,2.958 -9.56227,4.43465 -11.7757,3.25006 -1.05066,-0.5623 -2.01821,-2.51245 -2.01821,-4.06782 0,-1.69348 1.3608,-2.9781 4.10678,-3.87688 3.27005,-1.07031 4.89185,-1.98225 6.6475,-3.7379 2.77226,-2.77226 3.3288,-4.27072 3.31686,-8.93038 -0.009,-3.62205 -0.13946,-4.35806 -1.12824,-6.37905 -1.44922,-2.96208 -4.63993,-6.17695 -7.62718,-7.68491 -10.31368,-5.20633 -24.16753,1.56924 -27.83575,13.61376 -0.73056,2.39879 -0.82192,3.48604 -0.63449,7.55102 0.33324,7.22759 2.4007,12.13953 7.33228,17.42021 7.67553,8.21889 18.50017,11.03272 29.81748,7.75097 6.62248,-1.92037 11.73634,-5.09239 16.71033,-10.36508 7.07258,-7.49731 9.68649,-14.50606 9.69723,-26.0014 0.005,-5.72706 0.008,-5.74237 1.12781,-6.81077 2.50543,-2.39015 4.69725,-2.23263 6.51538,0.46824 0.98635,1.46524 1.16462,3.18286 0.97865,9.42943 -0.69007,23.18008 -20.02918,42.42003 -43.31035,43.0883 -3.39605,0.0975 -5.92092,-0.0429 -7.55102,-0.41993 z"
     style="fill:#2b1100;stroke-width:0.408163" />
  <path
     transform="scale(0.42666667)"
     id="path227"
     d="m 62.825746,88.806907 c -0.967887,-0.967886 -1.193093,-1.542474 -1.193093,-3.044038 0,-1.581483 0.222828,-2.084557 1.530612,-3.455633 1.705731,-1.788281 3.668941,-2.505527 6.867627,-2.509041 1.623277,-0.0018 2.257922,0.196509 2.931995,0.916091 1.15766,1.235817 1.69356,2.766897 1.437427,4.106766 -0.238928,1.249872 -2.254931,3.138132 -3.350431,3.138132 -0.39832,0 -1.587824,0.459183 -2.643342,1.020408 -2.57566,1.369491 -4.085333,1.322778 -5.580795,-0.172685 z"
     style="fill:#2b1100;stroke-width:0.408163" />
  <path
     transform="scale(0.42666667)"
     id="path229"
     d="m 249.38776,215.65361 c -2.11545,-0.8647 -13.70292,-4.02948 -20.49499,-5.59761 -18.62307,-4.29965 -37.76528,-6.04342 -54.80514,-4.9925 -8.71295,0.53737 -14.41123,1.40939 -28.37334,4.34203 -18.38424,3.86148 -26.64638,4.68009 -47.135894,4.67018 -17.163861,-0.008 -30.166331,-0.81908 -49.598804,-3.09275 -18.77681,-2.19696 -33.324419,-4.58069 -33.933749,-5.56031 -0.451643,-0.7261 -2.296954,-8.61974 -2.638144,-11.28512 -0.258761,-2.02144 -0.221042,-2.17137 0.49278,-1.95883 6.359044,1.89344 12.426924,2.79306 18.899444,2.80201 8.285356,0.0115 9.83273,-0.773 9.83273,-4.98491 0,-1.89787 -0.18464,-2.48056 -1.122449,-3.54227 l -1.122449,-1.27073 -7.755102,-0.44358 c -8.359777,-0.47816 -12.226847,-1.20332 -17.725802,-3.32394 l -3.250961,-1.2537 -0.307645,-1.91753 c -0.5982699,-3.72896 -0.330786,-25.21572 0.398167,-31.98449 0.98668,-9.16191 0.903148,-8.87304 2.457446,-8.49831 0.707266,0.17052 4.224713,1.05911 7.81655,1.97465 7.800296,1.98825 16.62917,3.57039 23.061225,4.13257 5.120644,0.44756 20.869698,0.4972 22.348102,0.0704 0.505743,-0.146 1.470028,-0.78611 2.142857,-1.42249 1.06509,-1.00738 1.223326,-1.44211 1.223326,-3.36091 0,-1.85822 -0.186767,-2.41291 -1.190877,-3.53683 l -1.190882,-1.33297 -12.176465,-0.26939 c -6.697059,-0.14817 -13.462184,-0.47115 -15.033612,-0.71775 -6.652811,-1.04398 -15.902891,-3.16511 -22.596635,-5.18162 l -3.41296,-1.02816 0.255452,-1.27726 c 0.140499,-0.70249 0.437205,-1.95224 0.659349,-2.77722 l 0.403896,-1.49996 4.182184,-0.87021 c 8.365732,-1.74072 20.421181,-3.53291 31.69613,-4.71203 l 5.473131,-0.57237 2.879204,2.47805 c 6.995983,6.02126 18.111134,11.73405 22.830485,11.73405 1.323115,0 1.86347,-0.26345 2.989731,-1.45764 1.119775,-1.1873 1.374727,-1.78168 1.374727,-3.20494 0,-2.88243 -1.212421,-4.18106 -5.714286,-6.12061 -5.478045,-2.36011 -8.2832,-3.94917 -12.320768,-6.97941 -3.020093,-2.26661 -10.369151,-9.47946 -10.017138,-9.83147 0.06536,-0.0654 1.490579,0.0722 3.167147,0.30574 1.705632,0.23757 6.733845,0.34542 11.415657,0.24486 6.914808,-0.14852 8.934192,-0.33329 11.632653,-1.06439 4.679967,-1.26794 8.31333,-2.722566 11.277959,-4.515158 l 2.583824,-1.562335 1.513616,2.461259 c 4.03373,6.559184 12.64199,15.544984 18.72892,19.550314 6.42169,4.22562 13.35462,7.27582 16.53751,7.27582 3.65671,0 5.32068,-1.76292 4.98282,-5.27913 -0.10929,-1.1373 -0.16444,-2.06781 -0.12256,-2.06781 0.0419,0 2.9996,0.65556 6.57274,1.4568 15.72592,3.52639 25.9258,4.51827 42.41497,4.12459 13.41819,-0.32037 24.08604,-1.66947 38.16326,-4.82631 6.22661,-1.39632 17.35846,-4.38741 20.98534,-5.63868 1.32765,-0.45804 2.47464,-0.77207 2.54886,-0.69785 0.0742,0.0742 -0.4205,1.77368 -1.09939,3.77657 -0.67889,2.00289 -1.51557,4.74365 -1.85929,6.09059 -0.34372,1.34694 -0.79963,3.11939 -1.01313,3.93877 l -0.38819,1.48979 -5.19934,0.27271 c -9.64846,0.50606 -22.83952,2.38161 -26.19606,3.72463 -3.60471,1.44232 -4.23513,5.9573 -1.18962,8.51993 1.49101,1.25461 2.49219,1.28565 8.12801,0.25203 4.73124,-0.86772 13.31526,-1.90015 18.98138,-2.28295 l 3.69857,-0.24987 -0.60063,4.41238 c -0.72732,5.34303 -0.89699,39.44769 -0.21843,43.90669 0.37131,2.44005 0.34561,2.73779 -0.22193,2.57107 -17.11981,-5.02924 -35.07893,-7.58613 -49.31147,-7.02061 -8.71416,0.34625 -10.30998,1.17707 -10.30998,5.36759 0,1.66122 0.22226,2.33369 1.13116,3.42241 l 1.13117,1.35496 11.01169,0.10097 c 11.18236,0.10254 14.5758,0.41072 25.09332,2.27883 5.63527,1.00094 14.34314,3.15349 19.7045,4.87089 l 3.9078,1.25178 0.65439,2.94982 c 0.55573,2.50511 2.97003,10.71582 3.74387,12.73242 0.27417,0.71449 -0.0352,0.74726 -1.47994,0.15672 z M 140.43827,196.79795 c 10.39977,-2.66177 19.25218,-8.52815 25.61044,-16.97169 4.39642,-5.8383 7.72238,-13.62053 8.61678,-20.16192 0.64701,-4.73202 0.56431,-13.46642 -0.14354,-15.16054 -1.57305,-3.76484 -8.35841,-3.53111 -8.99384,0.3098 -0.11909,0.71987 -0.39702,4.39866 -0.61761,8.17509 -0.34377,5.88516 -0.57189,7.3618 -1.59657,10.33458 -3.14113,9.11304 -10.14434,16.90273 -19.02822,21.16511 -14.44607,6.93107 -28.85669,3.09936 -37.60353,-9.99858 -2.67127,-4.00009 -3.82504,-8.18931 -3.82504,-13.88833 0,-7.02744 3.4537,-13.23622 9.57489,-17.21293 9.1423,-5.93942 20.34482,-3.34548 24.81643,5.74623 1.17766,2.39444 1.32297,3.07159 1.32297,6.16531 0,3.05422 -0.13569,3.70625 -1.11957,5.37994 -1.4311,2.43445 -3.89862,4.54315 -6.34509,5.42243 -5.46189,1.96303 -6.20448,2.56128 -6.50662,5.24192 -0.37382,3.31651 1.716,5.59441 5.1325,5.59441 2.40864,0 6.55046,-1.42242 9.27638,-3.18576 6.26562,-4.05311 9.97056,-10.93216 9.97056,-18.51256 0,-4.303 -0.59481,-6.8659 -2.54242,-10.95475 -3.13254,-6.57649 -10.4817,-12.47173 -17.3164,-13.89061 -1.42437,-0.29569 -4.35368,-0.41592 -7.46701,-0.30646 -4.6181,0.16236 -5.48668,0.31896 -8.81073,1.58859 -9.03157,3.44962 -15.644712,10.23943 -18.839859,19.34318 -1.084795,3.09084 -1.145579,3.63604 -1.137612,10.20408 0.0082,6.77683 0.03975,7.02928 1.350886,10.81633 0.738359,2.13265 1.981996,5.02307 2.763637,6.42316 5.637338,10.09766 16.151188,17.51467 27.321518,19.274 4.05336,0.63841 11.71292,0.1922 16.13667,-0.94003 z M 86.688571,165.9359 c 1.326739,-0.50442 2.291021,-2.39554 2.291021,-4.49306 0,-1.31964 -0.285686,-1.97072 -1.396898,-3.18353 L 86.1858,156.73469 66.664327,156.61191 c -10.736809,-0.0675 -20.111262,-0.0146 -20.832119,0.11756 -0.720857,0.13218 -1.868816,0.79851 -2.551021,1.48071 -1.011961,1.01196 -1.240371,1.57655 -1.240371,3.06598 0,2.00047 0.824359,3.96043 1.938767,4.60951 0.938757,0.54677 41.278193,0.59422 42.708988,0.0502 z m 141.714339,-0.95866 c 1.19053,-1.38439 1.38093,-4.84236 0.34782,-6.31733 -1.48762,-2.12387 -1.55797,-2.13065 -21.89373,-2.11152 -10.3938,0.01 -19.71768,0.17597 -20.71974,0.36931 -2.07224,0.39983 -3.12976,1.45759 -3.51609,3.5169 -0.36268,1.93329 0.0723,3.34211 1.46072,4.7305 l 1.18295,1.18294 21.07661,-0.1128 21.0766,-0.11279 z"
     style="fill:#552200;stroke-width:0.408163" />
  <path
     transform="scale(0.42666667)"
     id="path231"
     d="m 191.33632,165.53165 c -5.55298,-0.20836 -6.08128,-0.29631 -6.93877,-1.15523 -1.39769,-1.40002 -1.29803,-4.19198 0.20324,-5.69367 l 1.1314,-1.13173 19.88901,-0.1089 c 19.20561,-0.10516 19.93404,-0.0811 21.19984,0.69874 2.25495,1.38934 2.47887,4.67825 0.4645,6.82246 l -0.89723,0.95505 -14.52068,-0.0806 c -7.98638,-0.0443 -17.22547,-0.18208 -20.53131,-0.30613 z"
     style="fill:#2b1100;stroke-width:0.408163" />
  <path
     transform="scale(0.42666667)"
     id="path233"
     d="m 44.385483,164.79592 c -2.703357,-2.82698 -1.951393,-6.24298 1.553151,-7.05562 2.428815,-0.5632 38.391403,-0.50328 39.496362,0.0658 1.965873,1.01249 2.728269,2.07929 2.728269,3.81762 0,1.37076 -0.251351,1.92914 -1.345963,2.99008 l -1.345959,1.30456 H 65.465096 45.45885 Z"
     style="fill:#2b1100;stroke-width:0.408163" />
  <path
     transform="scale(0.42666667)"
     id="path235"
     d="m 270.20408,224.27266 c -2.24287,-0.51624 -5.35377,-4.17079 -7.73967,-9.09224 -3.11876,-6.43313 -5.46401,-15.18527 -7.23959,-27.01715 -0.62629,-4.17337 -0.73502,-7.67558 -0.73502,-23.67347 0,-20.03884 0.0529,-20.78677 2.26511,-32.04082 2.12796,-10.82528 4.39502,-17.23986 7.92957,-22.43647 3.83714,-5.64149 6.9195,-6.98937 10.3314,-4.5178 4.97959,3.6072 9.20854,12.99466 11.90843,26.43446 1.65168,8.22189 2.42269,16.05235 2.72375,27.66267 0.59721,23.03155 -2.52593,43.74699 -8.44248,55.99805 -1.81241,3.75287 -5.5653,8.15585 -7.27388,8.53392 -0.59101,0.13078 -1.35007,0.29175 -1.6868,0.35772 -0.33674,0.066 -1.2551,-0.028 -2.04082,-0.20887 z m 5.2596,-25.06493 c 3.85214,-1.99202 6.83675,-10.22582 7.85018,-21.65671 0.54072,-6.09909 0.24978,-26.50898 -0.4422,-31.02041 -1.32032,-8.60799 -4.12239,-14.87816 -7.39499,-16.54772 -1.85793,-0.94784 -5.22573,-1.05811 -6.82347,-0.22341 -3.8757,2.02476 -6.85598,9.50069 -8.22733,20.63798 -0.53344,4.33229 -0.54408,21.51674 -0.0172,27.76581 0.44477,5.27515 1.91129,11.82332 3.4037,15.19793 1.06577,2.40989 3.59258,5.49643 4.95026,6.04683 1.36686,0.55411 5.4799,0.43117 6.70103,-0.2003 z m 0.5142,-75.44755 c 3.46184,-1.44645 4.15913,-4.78322 1.93123,-9.24164 -1.68857,-3.37914 -2.99136,-4.20169 -6.3554,-4.01262 -3.08868,0.17359 -3.72347,0.6817 -5.64158,4.51578 -2.08259,4.16285 -1.89138,7.08997 0.59975,9.18154 0.83206,0.6986 7.47812,0.38753 9.466,-0.44306 z"
     style="fill:#803300;stroke-width:0.408163" />
  <path
     transform="scale(0.42666667)"
     id="path237"
     d="m 270.96827,180.10204 c -0.77059,-4.63276 -0.78012,-27.0753 -0.0133,-31.22304 0.30076,-1.62676 0.69223,-3.04759 0.86993,-3.15742 0.73748,-0.45578 1.35069,6.40402 1.53086,17.12521 0.1581,9.40773 0.0694,12.22856 -0.50381,16.02041 -0.38263,2.5312 -0.83697,4.60219 -1.00965,4.60219 -0.17268,0 -0.56601,-1.51531 -0.87406,-3.36735 z"
     style="fill:#803300;stroke-width:0.408163" />
  <path
     transform="scale(0.42666667)"
     id="path239"
     d="m 66.734694,92.614104 c -7.749961,-1.130261 -11.804024,-2.38114 -15.314313,-4.72522 -4.184167,-2.79408 -3.693489,-4.388218 2.249414,-7.307996 5.72408,-2.81227 8.641565,-3.37316 17.554695,-3.374913 7.048917,-0.0014 8.111092,0.09412 11.664471,1.048803 6.634537,1.7825 11.237427,4.686752 10.920708,6.890558 -0.319045,2.219998 -6.276093,5.333107 -12.773015,6.675083 -3.12117,0.644696 -11.960166,1.135214 -14.30196,0.793685 z m 1.705972,-2.592164 c 0.713794,-0.435233 2.032018,-0.989036 2.929387,-1.230672 2.404704,-0.64752 3.731988,-2.420741 3.731988,-4.98585 0,-1.787514 -0.177877,-2.228193 -1.387755,-3.438071 -1.290924,-1.290924 -1.571173,-1.387755 -4.01644,-1.387755 -4.534524,0 -8.62836,2.63248 -8.88643,5.714286 -0.211273,2.522963 0.042,3.384029 1.392666,4.734693 1.153698,1.153699 1.68721,1.387498 3.163265,1.38623 1.036044,-8.98e-4 2.316023,-0.331102 3.073319,-0.792861 z"
     style="fill:#803300;stroke-width:0.408163" />
</svg>
