# Blender v2.82 (sub 7) OBJ File: 'tile_square.blend'
# www.blender.org
mtllib player-board.mtl
o Player_board_v2_Cube.003
v 5.000000 0.099960 -11.000000
v 5.000000 -0.099960 -11.000000
v 5.000000 0.099960 11.000000
v 5.000000 -0.099960 11.000000
v -5.000000 0.099960 -11.000000
v -5.000000 -0.099960 -11.000000
v -5.000000 0.099960 11.000000
v -5.000000 -0.099960 11.000000
v 5.000000 0.099960 -11.000000
v -5.000000 0.099960 -11.000000
v -5.000000 0.099960 11.000000
v 5.000000 0.099960 11.000000
v 5.000000 0.099960 -10.504860
v -5.000000 0.099960 -10.504860
v 5.000000 0.099960 -6.506253
v -5.000000 0.099960 -6.506253
v 5.000000 0.099960 -6.007130
v -5.000000 0.099960 -6.007130
v 5.000000 0.099960 -2.010944
v -5.000000 0.099960 -2.010944
v 5.000000 0.099960 -1.504322
v -5.000000 0.099960 -1.504322
v 5.000000 0.099960 2.491196
v -5.000000 0.099960 2.491196
v 5.000000 0.099960 2.997253
v -5.000000 0.099960 2.997253
v 5.000000 0.099960 6.998627
v -5.000000 0.099960 6.998627
v 5.000000 0.300041 6.998627
v 5.000000 0.300041 11.000000
v -5.000000 0.300041 -11.000000
v 5.000000 0.300041 -11.000000
v -5.000000 0.300041 -10.504860
v -5.000000 0.300041 11.000000
v 5.000000 0.300041 -10.504860
v -5.000000 0.300041 -6.007130
v -5.000000 0.300041 -6.506253
v 5.000000 0.300041 -6.506253
v 5.000000 0.300041 -6.007130
v -5.000000 0.300041 -1.504322
v -5.000000 0.300041 -2.010944
v 5.000000 0.300041 -2.010944
v 5.000000 0.300041 -1.504322
v -5.000000 0.300041 2.997253
v -5.000000 0.300041 2.491196
v 5.000000 0.300041 2.491196
v 5.000000 0.300041 2.997253
v -5.000000 0.300041 6.998627
vt 0.219047 0.812601
vt 0.203580 0.937702
vt 0.203580 0.812601
vt 0.749841 0.750000
vt 0.624885 1.000000
vt 0.624885 0.750000
vt 0.249914 0.687500
vt 0.374870 0.000000
vt 0.374870 0.687500
vt 0.249913 0.000000
vt 0.000000 0.687500
vt 0.000000 0.000000
vt 0.374870 0.687500
vt 0.499827 0.000000
vt 0.499827 0.687500
vt 0.874798 0.750000
vt 0.749842 1.000000
vt 0.749841 0.750000
vt 0.875000 0.375101
vt 1.000000 0.250000
vt 1.000000 0.375101
vt 0.499783 0.937500
vt 0.374870 0.687500
vt 0.499783 0.687500
vt 0.499827 0.250000
vt 0.624885 0.500000
vt 0.499827 0.500000
vt 0.874798 0.750000
vt 0.999636 1.000000
vt 0.874798 1.000000
vt 0.499827 0.000000
vt 0.624885 0.250000
vt 0.499827 0.250000
vt 0.999817 0.250000
vt 0.875000 0.000000
vt 0.999817 0.000000
vt 0.921994 0.500202
vt 0.906402 0.625304
vt 0.906401 0.500202
vt 0.249871 0.687500
vt 0.374870 0.937500
vt 0.249871 0.937500
vt 0.624826 1.000000
vt 0.499827 0.750000
vt 0.624826 0.750000
vt 0.172285 0.687500
vt 0.187753 0.937500
vt 0.172285 0.937500
vt 0.172285 0.937500
vt 0.156693 0.687500
vt 0.172285 0.687500
vt 0.140884 0.937500
vt 0.125058 0.687500
vt 0.140884 0.687500
vt 0.156693 0.937500
vt 0.140884 0.687500
vt 0.156693 0.687500
vt 0.499827 0.500000
vt 0.624885 0.750000
vt 0.499827 0.750000
vt 0.624885 0.250000
vt 0.749943 0.500000
vt 0.624885 0.500000
vt 0.219406 0.812601
vt 0.235215 0.687500
vt 0.235215 0.812601
vt 0.624885 0.000000
vt 0.749943 0.250000
vt 0.624885 0.250000
vt 0.875000 0.750000
vt 0.749943 0.500000
vt 0.875000 0.500000
vt 0.187753 0.812601
vt 0.203580 0.687500
vt 0.203580 0.812601
vt 0.875000 0.625304
vt 0.890809 0.500202
vt 0.890809 0.625304
vt 0.875000 0.500202
vt 1.000000 0.375101
vt 1.000000 0.500202
vt 0.875000 0.500000
vt 0.749943 0.250000
vt 0.875000 0.250000
vt 0.890809 0.625304
vt 0.906401 0.500202
vt 0.906402 0.625304
vt 0.125058 0.937500
vt 0.000000 0.687500
vt 0.125058 0.687500
vt 0.219406 0.687500
vt 0.203580 0.812601
vt 0.203580 0.687500
vt 0.624885 0.500000
vt 0.749943 0.750000
vt 0.624885 0.750000
vt 0.875000 0.250000
vt 0.749943 0.000000
vt 0.875000 0.000000
vt 0.187753 0.937702
vt 0.203221 0.812601
vt 0.203221 0.937702
vt 0.219047 0.937702
vt 0.749841 1.000000
vt 0.249913 0.000000
vt 0.249913 0.687500
vt 0.374870 0.000000
vt 0.874798 1.000000
vt 0.875000 0.250000
vt 0.374870 0.937500
vt 0.624885 0.250000
vt 0.999636 0.750000
vt 0.624885 0.000000
vt 0.875000 0.250000
vt 0.921994 0.625304
vt 0.374870 0.687500
vt 0.499827 1.000000
vt 0.187753 0.687500
vt 0.156693 0.937500
vt 0.125058 0.937500
vt 0.140884 0.937500
vt 0.624885 0.500000
vt 0.749943 0.250000
vt 0.219406 0.687500
vt 0.749943 0.000000
vt 0.749943 0.750000
vt 0.187753 0.687500
vt 0.875000 0.500202
vt 0.875000 0.375101
vt 0.749943 0.500000
vt 0.890809 0.500202
vt 0.000000 0.937500
vt 0.219406 0.812601
vt 0.749942 0.500000
vt 0.749943 0.250000
vt 0.187753 0.812601
vn 1.0000 0.0000 0.0000
vn 0.0000 0.0000 1.0000
vn -1.0000 0.0000 0.0000
vn 0.0000 -1.0000 0.0000
vn 0.0000 0.0000 -1.0000
vn 0.0000 1.0000 0.0000
usemtl Material.005
s off
f 9/1/1 35/2/1 13/3/1
f 3/4/2 8/5/2 4/6/2
f 7/7/3 6/8/3 8/9/3
f 2/10/4 8/11/4 6/12/4
f 1/13/1 4/14/1 2/15/1
f 5/16/5 2/17/5 6/18/5
f 11/19/3 48/20/3 28/21/3
f 14/22/6 15/23/6 13/24/6
f 21/25/2 40/26/2 22/27/2
f 18/28/6 19/29/6 17/30/6
f 12/31/2 34/32/2 11/33/2
f 22/34/6 23/35/6 21/36/6
f 15/37/1 39/38/1 17/39/1
f 26/40/6 27/41/6 25/42/6
f 48/43/6 30/44/6 29/45/6
f 31/46/6 35/47/6 32/48/6
f 37/49/6 39/50/6 38/51/6
f 41/52/6 43/53/6 42/54/6
f 45/55/6 47/56/6 46/57/6
f 17/58/2 36/59/2 18/60/2
f 28/61/5 29/62/5 27/63/5
f 26/64/3 45/65/3 24/66/3
f 13/67/2 33/68/2 14/69/2
f 24/70/5 46/71/5 23/72/5
f 22/73/3 41/74/3 20/75/3
f 23/76/1 47/77/1 25/78/1
f 27/79/1 30/80/1 12/81/1
f 20/82/5 42/83/5 19/84/5
f 18/85/3 37/86/3 16/87/3
f 10/88/5 32/89/5 9/90/5
f 19/91/1 43/92/1 21/93/1
f 16/94/5 38/95/5 15/96/5
f 25/97/2 44/98/2 26/99/2
f 14/100/3 31/101/3 10/102/3
f 9/1/1 32/103/1 35/2/1
f 3/4/2 7/104/2 8/5/2
f 7/7/3 5/105/3 6/8/3
f 2/10/4 4/106/4 8/11/4
f 1/13/1 3/107/1 4/14/1
f 5/16/5 1/108/5 2/17/5
f 11/19/3 34/109/3 48/20/3
f 14/22/6 16/110/6 15/23/6
f 21/25/2 43/111/2 40/26/2
f 18/28/6 20/112/6 19/29/6
f 12/31/2 30/113/2 34/32/2
f 22/34/6 24/114/6 23/35/6
f 15/37/1 38/115/1 39/38/1
f 26/40/6 28/116/6 27/41/6
f 48/43/6 34/117/6 30/44/6
f 31/46/6 33/118/6 35/47/6
f 37/49/6 36/119/6 39/50/6
f 41/52/6 40/120/6 43/53/6
f 45/55/6 44/121/6 47/56/6
f 17/58/2 39/122/2 36/59/2
f 28/61/5 48/123/5 29/62/5
f 26/64/3 44/124/3 45/65/3
f 13/67/2 35/125/2 33/68/2
f 24/70/5 45/126/5 46/71/5
f 22/73/3 40/127/3 41/74/3
f 23/76/1 46/128/1 47/77/1
f 27/79/1 29/129/1 30/80/1
f 20/82/5 41/130/5 42/83/5
f 18/85/3 36/131/3 37/86/3
f 10/88/5 31/132/5 32/89/5
f 19/91/1 42/133/1 43/92/1
f 16/94/5 37/134/5 38/95/5
f 25/97/2 47/135/2 44/98/2
f 14/100/3 33/136/3 31/101/3
